<svg width="343" height="204" viewBox="0 0 343 204" fill="none" xmlns="http://www.w3.org/2000/svg">
    <rect y="0.349121" width="343" height="202.846" rx="8" fill="white"/>
    <path d="M132.68 19.7291H134.28C134.22 22.0291 133.94 24.0691 133.46 25.8491C133 24.4491 132.62 22.8691 132.34 21.1091C132.46 20.6691 132.56 20.2091 132.68 19.7291ZM132.72 27.9491C132.02 29.5291 131.1 30.8091 129.94 31.7891L130.94 33.3891C131.98 32.4491 132.86 31.3291 133.58 30.0091C134.22 31.3491 134.96 32.4491 135.8 33.2891L136.88 31.6691C135.92 30.8291 135.1 29.6891 134.4 28.2091C135.3 25.8691 135.8 23.0491 135.88 19.7291H136.58V17.9491H133.04C133.2 17.0691 133.32 16.1491 133.44 15.1891L131.78 14.9091C131.42 18.5291 130.74 21.4691 129.76 23.7291V22.3691H123.4V24.0491H129.62C129.58 24.1291 129.56 24.1891 129.52 24.2691L130.56 25.5891C130.9 24.9891 131.22 24.3091 131.52 23.5691C131.84 25.1691 132.24 26.6291 132.72 27.9491ZM127.8 32.2691C128.88 31.5691 129.94 30.6691 130.98 29.5491L130.6 27.9691C130.1 28.4891 129.6 28.9491 129.12 29.3891V25.2291H123.98V27.8491C123.96 29.6891 123.46 31.1091 122.48 32.0891L123.88 33.3091C125.08 32.1091 125.7 30.2891 125.74 27.8491V26.9491H127.46V30.0891C127.4 30.3691 127.26 30.5691 127.02 30.7091L127.8 32.2691ZM125.92 14.9491V19.3691H124.92V16.0291H123.36V20.9691H130.02V16.0291H128.48V19.3691H127.5V14.9491H125.92ZM121.28 14.9691C120.6 16.7691 119.54 18.3291 118.12 19.6891L118.7 21.5291C120.66 19.8091 122.06 17.8691 122.9 15.7291L121.28 14.9691ZM121.38 20.3291C120.7 22.2291 119.64 23.8891 118.2 25.3291L118.76 27.1491C119.3 26.6491 119.8 26.1491 120.26 25.6291V33.4491H122.04V23.1291C122.4 22.4691 122.72 21.7891 122.98 21.0891L121.38 20.3291ZM142.5 21.5691V26.4291H147.6C147.34 27.0291 147.04 27.5491 146.68 27.9891C145.48 29.4891 143.42 30.7891 140.5 31.8691L141.72 33.4491C144.88 32.1291 147.12 30.5691 148.44 28.8091C148.92 28.1691 149.32 27.3691 149.64 26.4291H149.68V31.0091C149.68 32.4091 150.42 33.1291 151.92 33.1291H155.98C156.78 33.1291 157.38 32.9491 157.78 32.6091C158.18 32.2291 158.46 31.0691 158.64 29.1491L156.82 28.5491C156.74 29.9491 156.62 30.7691 156.42 31.0491C156.26 31.2891 156 31.4291 155.64 31.4291H152.46C151.86 31.4291 151.56 31.1491 151.56 30.6091V26.4291H156.6V20.2291H151.76C152.52 19.6291 153.3 18.9291 154.06 18.1291V16.7091H147.44C147.74 16.2891 148.04 15.8491 148.36 15.3691L146.42 14.9491C144.7 17.3891 142.62 19.3091 140.18 20.6891L141.48 22.2491C141.82 22.0291 142.16 21.8091 142.5 21.5691ZM149.06 20.2291H144.2C144.84 19.6491 145.48 19.0291 146.08 18.3891H151.46C150.64 19.0891 149.84 19.7091 149.06 20.2291ZM154.76 24.6891H150.12C150.3 23.8691 150.44 22.9491 150.54 21.9491H154.76V24.6891ZM148.18 24.6891H144.32V21.9491H148.66C148.54 22.9491 148.38 23.8491 148.18 24.6891ZM153.7 27.1291L152.26 28.0291C153.26 29.0491 154.06 29.9891 154.64 30.8491L156.14 29.7891C155.58 29.0291 154.76 28.1291 153.7 27.1291ZM168.3 15.6491V17.4091H173.04V18.8291H168.44V26.8291H172.96C172.82 27.6891 172.56 28.4491 172.16 29.1291C171.34 28.5691 170.58 27.9291 169.9 27.2091L168.5 28.1891C169.26 29.0091 170.08 29.7291 170.96 30.3691C170.08 30.9691 168.8 31.5091 167.1 31.9491L168.06 33.4691C170.02 32.9691 171.52 32.2691 172.6 31.3891C174.82 32.5891 177.4 33.2891 180.36 33.4691L180.8 31.7291C178.12 31.6091 175.76 31.0491 173.76 30.0491C174.32 29.1691 174.66 28.0891 174.82 26.8291H179.5V18.8291H174.9V17.4091H180.42V15.6491H168.3ZM177.72 25.2891H174.9V23.5891H177.72V25.2891ZM173.04 25.2891H170.22V23.5891H173.04V25.2891ZM170.22 22.0491V20.3691H173.04V22.0491H170.22ZM174.9 20.3691H177.72V22.0491H174.9V20.3691ZM164.4 22.8491V33.4291H166.26V19.6891C166.88 18.4291 167.4 17.1091 167.8 15.7091L166.08 14.9091C165.24 17.9491 163.92 20.6291 162.14 22.9091L162.78 24.9291C163.36 24.2491 163.9 23.5691 164.4 22.8491ZM184.6 20.1891V22.0091H188.36V22.0691C187.44 24.1691 186.02 26.0491 184.1 27.6891L184.96 29.9091C186.32 28.4691 187.46 26.9091 188.36 25.2091V33.4091H190.28V24.6291C191 25.4091 191.88 26.4691 192.92 27.7891L194.04 26.0891C192.76 24.8091 191.52 23.6491 190.28 22.6491V22.0091H193.86V20.1891H190.28V17.5891C191.44 17.3091 192.56 16.9491 193.66 16.5291L192.74 14.9491C190.7 15.7691 188.02 16.3091 184.7 16.5891L185.3 18.3491C186.34 18.2691 187.36 18.1491 188.36 17.9691V20.1891H184.6ZM195.24 16.8291V29.0691H197.12V16.8291H195.24ZM199.78 33.2291C201.12 33.2291 201.8 32.5091 201.8 31.0891V15.0091H199.88V30.6091C199.88 31.1891 199.62 31.4891 199.12 31.4891C198.24 31.4891 197.34 31.4491 196.4 31.3891L196.8 33.2291H199.78ZM215.74 19.2091V25.7091H211.24V33.3891H213.12V32.5091H221V33.3891H222.88V25.7091H217.64V23.1691H224.02V21.3691H217.64V19.2091H215.74ZM213.12 30.7291V27.4691H221V30.7291H213.12ZM216.28 14.8491L214.3 15.1691C214.62 15.6491 214.94 16.1691 215.22 16.7491H208.06V22.7491C208.02 26.7091 207.44 29.8091 206.34 32.0291L207.78 33.3091C209.16 30.6691 209.88 27.1491 209.94 22.7491V18.5891H224.46V16.7491H217.16C216.88 16.0691 216.6 15.4291 216.28 14.8491Z" fill="#030319"/>
    <path d="M23.584 58.9491V64.1811H32.4V58.9491H23.584ZM31.248 63.0931H24.736V60.0371H31.248V63.0931ZM27.088 65.7651H21.456V72.7091H22.592V71.8931H25.968V72.7091H27.088V65.7651ZM22.592 70.8051V66.8691H25.968V70.8051H22.592ZM34.528 65.7651H28.736V72.7091H29.872V71.8931H33.376V72.7091H34.528V65.7651ZM29.872 70.8051V66.8691H33.376V70.8051H29.872ZM41.68 71.9571H48.832V72.9011H50V66.1491H43.328C46.336 64.7571 48.4 62.9651 49.552 60.7731V59.7491H43.312C43.632 59.3171 43.92 58.8691 44.176 58.3891L42.912 58.2451C41.952 59.9411 40.112 61.3811 37.376 62.5491L38.144 63.5411C39.84 62.7411 41.216 61.8451 42.304 60.8371H48.224C47.472 62.1491 46.288 63.2851 44.656 64.2611C43.968 63.6691 43.008 62.9971 41.792 62.2451L40.8 62.8691C42.016 63.5571 42.976 64.1971 43.68 64.7891C41.84 65.7171 39.536 66.4531 36.768 67.0291L37.376 68.1331C38.496 67.8611 39.536 67.5731 40.528 67.2531V72.9011H41.68V71.9571ZM48.832 70.8371H41.68V67.2211H48.832V70.8371ZM56 61.6051C55.712 61.6051 55.488 61.7011 55.296 61.9091C55.104 62.0851 55.024 62.3091 55.024 62.5971C55.024 62.8691 55.104 63.0931 55.296 63.2851C55.488 63.4771 55.712 63.5731 56 63.5731C56.272 63.5731 56.512 63.4771 56.704 63.2851C56.896 63.0931 56.992 62.8691 56.992 62.5971C56.992 62.3091 56.896 62.0851 56.704 61.9091C56.512 61.7011 56.272 61.6051 56 61.6051ZM56 67.4611C55.712 67.4611 55.488 67.5571 55.296 67.7651C55.104 67.9411 55.024 68.1651 55.024 68.4531C55.024 68.7251 55.104 68.9491 55.296 69.1411C55.488 69.3331 55.712 69.4291 56 69.4291C56.272 69.4291 56.512 69.3331 56.704 69.1411C56.896 68.9491 56.992 68.7251 56.992 68.4531C56.992 68.1651 56.896 67.9411 56.704 67.7651C56.512 67.5571 56.272 67.4611 56 67.4611Z" fill="#030319"/>
    <path d="M84.832 59.1091V60.5811H95.664V70.7731C95.664 71.2531 95.44 71.4931 95.008 71.4931C94.208 71.4931 93.376 71.4611 92.496 71.4131L92.848 72.8851H95.536C96.624 72.8851 97.184 72.3091 97.184 71.1571V60.5811H99.2V59.1091H84.832ZM93.088 62.6611H86.592V70.1331H88.048V68.8211H93.088V62.6611ZM88.048 67.4451V64.0211H91.648V67.4451H88.048ZM101.504 65.8291H107.36V70.8051C107.36 71.2851 107.136 71.5411 106.72 71.5411C106.096 71.5411 105.44 71.5091 104.752 71.4451L105.088 72.9331H107.248C108.336 72.9331 108.896 72.3411 108.896 71.1891V65.8291H114.608V64.3411H108.896V61.3971H107.36V64.3411H103.184C103.424 63.2371 103.664 62.0051 103.888 60.6291C107.888 60.5651 111.136 60.1971 113.616 59.5251L112.896 58.2451C110.592 58.9491 107.584 59.3171 103.872 59.3331C103.456 59.3171 103.04 59.2691 102.656 59.2051C102.432 61.1251 102.048 63.3331 101.504 65.8291ZM103.536 66.8371C102.768 68.5971 101.84 70.1171 100.768 71.3811L102.096 72.3411C103.152 70.9651 104.08 69.3491 104.88 67.4931L103.536 66.8371ZM112.176 66.7571L110.832 67.3971C111.76 68.8691 112.624 70.5331 113.424 72.3891L114.864 71.6691C114 69.8771 113.104 68.2451 112.176 66.7571Z" fill="#030319"/>
    <path d="M21.136 90.5971V91.7011H23.424V94.3411H20.912V95.4611H23.36C23.136 98.4851 22.256 100.741 20.704 102.245L21.552 102.997C22.864 101.733 23.744 99.9731 24.208 97.7171C24.832 98.4051 25.6 99.3491 26.496 100.565L27.136 99.5731C26.208 98.4851 25.28 97.5091 24.384 96.6611C24.432 96.2771 24.48 95.8771 24.512 95.4611H26.928V94.3411H24.576V91.7011H26.704V90.5971H24.576V88.4051H23.424V90.5971H21.136ZM34.128 88.9491H27.648V97.7331H28.752V90.0211H33.024V97.7331H34.128V88.9491ZM33.696 102.741C34.208 102.741 34.576 102.613 34.832 102.373C35.088 102.085 35.28 101.285 35.376 99.9731L34.384 99.6531C34.32 100.645 34.224 101.253 34.08 101.461C33.968 101.621 33.776 101.701 33.504 101.701H32.688C32.336 101.701 32.176 101.525 32.176 101.173V97.8131H31.136V101.413C31.136 102.293 31.536 102.741 32.368 102.741H33.696ZM30.368 91.3491V94.1811C30.32 96.1971 29.968 97.8451 29.312 99.1091C28.608 100.325 27.376 101.301 25.616 102.021L26.224 102.997C28.016 102.245 29.328 101.205 30.128 99.8931C30.944 98.4691 31.376 96.5651 31.408 94.1811V91.3491H30.368ZM40.16 94.6771C40.544 95.2371 41.024 95.9731 41.584 96.9011L41.824 96.5331L42.256 97.1091C44 96.4371 45.488 95.6371 46.704 94.6931C47.824 95.5731 49.2 96.3571 50.864 97.0611L51.376 95.9891C49.872 95.4291 48.576 94.7731 47.504 94.0211C48.592 93.0131 49.44 91.8771 50.016 90.5971V89.7011H45.504C45.696 89.3171 45.872 88.9171 46.032 88.5011L44.928 88.2611C44.192 90.0371 43.248 91.4771 42.08 92.5811L42.816 93.4611C43.28 92.9971 43.728 92.4851 44.144 91.9411C44.592 92.6451 45.168 93.3171 45.856 93.9731C44.832 94.7251 43.6 95.3811 42.192 95.9571L42.208 95.9411C41.52 94.9971 40.832 94.1491 40.16 93.3811V92.5171H41.904V91.4131H40.16V88.2931H39.024V91.4131H36.896V92.5171H39.008C38.512 94.4851 37.696 96.2291 36.576 97.7651L37.072 99.0131C37.872 97.7651 38.528 96.3731 39.024 94.8531V102.885H40.16V94.6771ZM49.984 96.9491H43.216V102.917H44.336V102.213H48.864V102.917H49.984V96.9491ZM44.336 101.141V98.0211H48.864V101.141H44.336ZM46.64 93.3491C45.856 92.6771 45.216 91.9251 44.72 91.1091C44.784 91.0131 44.832 90.9011 44.896 90.8051H48.752C48.224 91.7331 47.52 92.5811 46.64 93.3491ZM56 91.6051C55.712 91.6051 55.488 91.7011 55.296 91.9091C55.104 92.0851 55.024 92.3091 55.024 92.5971C55.024 92.8691 55.104 93.0931 55.296 93.2851C55.488 93.4771 55.712 93.5731 56 93.5731C56.272 93.5731 56.512 93.4771 56.704 93.2851C56.896 93.0931 56.992 92.8691 56.992 92.5971C56.992 92.3091 56.896 92.0851 56.704 91.9091C56.512 91.7011 56.272 91.6051 56 91.6051ZM56 97.4611C55.712 97.4611 55.488 97.5571 55.296 97.7651C55.104 97.9411 55.024 98.1651 55.024 98.4531C55.024 98.7251 55.104 98.9491 55.296 99.1411C55.488 99.3331 55.712 99.4291 56 99.4291C56.272 99.4291 56.512 99.3331 56.704 99.1411C56.896 98.9491 56.992 98.7251 56.992 98.4531C56.992 98.1651 56.896 97.9411 56.704 97.7651C56.512 97.5571 56.272 97.4611 56 97.4611Z" fill="#030319"/>
    <path d="M85.52 89.9251L84.896 96.3251H86.528C86.752 95.9091 87.056 95.6051 87.472 95.4131C87.856 95.2211 88.288 95.1411 88.8 95.1411C89.568 95.1411 90.144 95.3651 90.56 95.8131C90.976 96.2611 91.184 96.8851 91.184 97.6851C91.184 98.4211 90.944 98.9971 90.464 99.4451C89.984 99.8771 89.392 100.101 88.688 100.101C88.048 100.101 87.536 99.9571 87.152 99.6691C86.72 99.3491 86.464 98.8531 86.4 98.2131H84.688C84.768 99.2691 85.216 100.117 86.032 100.725C86.768 101.285 87.648 101.573 88.672 101.573C89.808 101.573 90.784 101.237 91.6 100.565C92.464 99.8131 92.912 98.8531 92.912 97.6691C92.912 96.4371 92.56 95.4771 91.888 94.7731C91.216 94.0691 90.336 93.7171 89.264 93.7171C88.752 93.7171 88.272 93.7971 87.856 93.9731C87.392 94.1331 86.992 94.3891 86.64 94.7571H86.592L86.928 91.4611H92.4V89.9251H85.52ZM98.3938 89.7011C97.0498 89.7011 96.0098 90.2611 95.2738 91.3971C94.6018 92.4371 94.2658 93.8451 94.2658 95.6371C94.2658 97.4131 94.6018 98.8211 95.2738 99.8771C96.0098 100.997 97.0498 101.573 98.3938 101.573C99.7378 101.573 100.778 100.997 101.514 99.8771C102.186 98.8211 102.522 97.3971 102.522 95.6371C102.522 93.8611 102.186 92.4531 101.514 91.3971C100.778 90.2611 99.7378 89.7011 98.3938 89.7011ZM98.3938 91.1731C99.3218 91.1731 99.9938 91.6851 100.378 92.7251C100.65 93.4291 100.794 94.4051 100.794 95.6371C100.794 96.8531 100.65 97.8291 100.378 98.5491C99.9938 99.5731 99.3218 100.101 98.3938 100.101C97.4498 100.101 96.7938 99.5731 96.4098 98.5491C96.1218 97.8291 95.9938 96.8531 95.9938 95.6371C95.9938 94.4051 96.1218 93.4291 96.4098 92.7251C96.7938 91.6851 97.4498 91.1731 98.3938 91.1731ZM107.988 89.7011C106.644 89.7011 105.604 90.2611 104.868 91.3971C104.196 92.4371 103.86 93.8451 103.86 95.6371C103.86 97.4131 104.196 98.8211 104.868 99.8771C105.604 100.997 106.644 101.573 107.988 101.573C109.332 101.573 110.372 100.997 111.108 99.8771C111.78 98.8211 112.116 97.3971 112.116 95.6371C112.116 93.8611 111.78 92.4531 111.108 91.3971C110.372 90.2611 109.332 89.7011 107.988 89.7011ZM107.988 91.1731C108.916 91.1731 109.588 91.6851 109.972 92.7251C110.244 93.4291 110.388 94.4051 110.388 95.6371C110.388 96.8531 110.244 97.8291 109.972 98.5491C109.588 99.5731 108.916 100.101 107.988 100.101C107.044 100.101 106.388 99.5731 106.004 98.5491C105.716 97.8291 105.588 96.8531 105.588 95.6371C105.588 94.4051 105.716 93.4291 106.004 92.7251C106.388 91.6851 107.044 91.1731 107.988 91.1731ZM117.709 92.8531C116.877 92.8531 116.109 93.2211 115.437 93.9891V93.0771H113.741V101.349H115.437V96.3731C115.437 95.7971 115.597 95.3011 115.949 94.9011C116.269 94.4851 116.717 94.2771 117.261 94.2771C118.381 94.2771 118.957 94.9171 118.957 96.2291V101.349H120.653V96.2611C120.653 95.6531 120.813 95.1571 121.133 94.8051C121.453 94.4531 121.837 94.2771 122.317 94.2771C122.957 94.2771 123.437 94.4211 123.725 94.7411C124.013 95.0451 124.157 95.5411 124.157 96.2131V101.349H125.853V95.9251C125.853 94.9971 125.565 94.2611 125.021 93.7011C124.461 93.1251 123.757 92.8531 122.909 92.8531C122.349 92.8531 121.885 92.9491 121.501 93.1571C121.085 93.3651 120.685 93.7331 120.317 94.2451C119.805 93.3171 118.925 92.8531 117.709 92.8531ZM127.965 89.7011V101.349H129.661V89.7011H127.965ZM136.877 88.2291L131.277 102.949H132.765L138.349 88.2291H136.877ZM141.325 88.2611L140.093 88.8531C140.509 89.5251 140.893 90.2771 141.261 91.1251H139.837V92.5171H140.845V95.5091H139.565V96.9171H140.797C140.669 99.0771 140.237 100.693 139.501 101.781L140.637 102.773C141.581 101.493 142.125 99.5411 142.269 96.9171H143.645V102.885H145.101V96.9171H146.317V95.5091H145.101V92.5171H146.269V91.1251H144.925C145.309 90.4051 145.661 89.6051 145.981 88.7091L144.541 88.1971C144.221 89.2371 143.837 90.2131 143.405 91.1251H141.693L142.621 90.6611C142.205 89.7811 141.773 88.9811 141.325 88.2611ZM142.317 92.5171H143.645V95.5091H142.317V92.5171ZM146.349 88.7571V90.2291H147.501C147.133 94.7411 146.765 98.2931 146.381 100.885C146.285 101.157 146.077 101.317 145.789 101.381L146.269 102.789C148.029 102.373 149.453 101.925 150.509 101.461L150.189 100.069C149.277 100.485 148.477 100.789 147.805 101.013C148.013 99.6371 148.22 97.9891 148.429 96.0691C148.989 97.0611 149.437 97.9571 149.773 98.7571L150.941 97.9731L150.733 101.237C150.733 102.197 151.085 102.693 151.821 102.693H152.925C153.453 102.693 153.789 102.469 153.949 102.053C154.109 101.637 154.253 100.501 154.413 98.6771L153.197 98.1971C153.117 99.8291 153.053 100.757 152.989 100.997C152.925 101.253 152.797 101.381 152.605 101.381H152.349C152.205 101.381 152.141 101.269 152.141 101.061L152.717 92.0211H148.829C148.861 91.4451 148.909 90.8531 148.973 90.2291H153.741V88.7571H146.349ZM150.941 97.9251C150.589 97.1571 150.093 96.2611 149.453 95.2371L148.461 95.8451L148.701 93.4291H151.213L150.941 97.9251Z" fill="#030319"/>
    <path d="M27.296 126.181L26.624 126.805C27.216 127.157 27.776 127.557 28.32 128.021H23.472V128.981H30.672C29.856 129.653 28.96 130.261 27.968 130.773C27.04 130.421 26.064 130.117 25.056 129.829L24.48 130.677C26.624 131.269 28.72 132.085 30.752 133.109L31.344 132.197C30.624 131.845 29.872 131.509 29.104 131.205C30.224 130.533 31.248 129.733 32.208 128.821V128.021H28.8L29.2 127.557C28.624 127.013 27.984 126.565 27.296 126.181ZM27.456 124.437C25.68 125.637 23.408 126.629 20.656 127.429L21.296 128.357C23.888 127.541 26.128 126.469 27.984 125.125C29.648 126.469 31.872 127.541 34.64 128.357L35.28 127.413C32.368 126.645 30.112 125.653 28.544 124.469V121.573H33.424V123.717H34.528V120.677H28.544V119.717H33.872V118.789H22.128V119.717H27.456V120.677H21.472V123.717H22.576V121.573H27.456V124.437ZM23.376 122.453V123.205H26.64V122.453H23.376ZM23.344 124.037V124.789H26.656V124.037H23.344ZM29.392 122.453V123.205H32.608V122.453H29.392ZM29.376 124.037V124.789H32.656V124.037H29.376ZM49.648 128.341H38.896V133.013H40.032V132.229H48.512V133.013H49.648V128.341ZM40.032 131.205V129.333H48.512V131.205H40.032ZM38.896 122.437V127.093H50.672V126.117H45.552V124.917H49.744V124.005H45.552V122.885H49.712V121.973H45.552V120.805H50.416V119.845H45.76C45.536 119.237 45.296 118.677 45.04 118.181L43.856 118.373C44.144 118.821 44.4 119.301 44.64 119.845H40.672C40.912 119.381 41.12 118.917 41.312 118.437L40.192 118.213C39.504 120.005 38.32 121.669 36.656 123.189L37.008 124.325C37.696 123.733 38.32 123.109 38.896 122.437ZM44.416 126.117H40V124.917H44.416V126.117ZM44.416 124.005H40V122.885H44.416V124.005ZM44.416 121.973H40V120.981C40.032 120.917 40.064 120.869 40.112 120.805H44.416V121.973ZM54.672 123.829V132.901H55.856V121.845C56.352 120.869 56.768 119.845 57.104 118.773L56.016 118.277C55.312 120.709 54.16 122.869 52.592 124.757L52.976 125.973C53.584 125.301 54.16 124.581 54.672 123.829ZM63.328 123.877V132.805H64.448V123.877H63.328ZM59.216 123.925V126.341C59.184 129.045 58.48 131.013 57.104 132.229L57.968 132.981C59.504 131.573 60.288 129.365 60.32 126.341V123.925H59.216ZM61.248 118.357C60.096 120.741 58.448 122.677 56.304 124.165L56.944 125.141C58.88 123.797 60.48 121.909 61.76 119.461C62.864 121.637 64.544 123.477 66.784 124.965L67.44 123.989C65.008 122.373 63.28 120.501 62.288 118.357H61.248ZM72 121.605C71.712 121.605 71.488 121.701 71.296 121.909C71.104 122.085 71.024 122.309 71.024 122.597C71.024 122.869 71.104 123.093 71.296 123.285C71.488 123.477 71.712 123.573 72 123.573C72.272 123.573 72.512 123.477 72.704 123.285C72.896 123.093 72.992 122.869 72.992 122.597C72.992 122.309 72.896 122.085 72.704 121.909C72.512 121.701 72.272 121.605 72 121.605ZM72 127.461C71.712 127.461 71.488 127.557 71.296 127.765C71.104 127.941 71.024 128.165 71.024 128.453C71.024 128.725 71.104 128.949 71.296 129.141C71.488 129.333 71.712 129.429 72 129.429C72.272 129.429 72.512 129.333 72.704 129.141C72.896 128.949 72.992 128.725 72.992 128.453C72.992 128.165 72.896 127.941 72.704 127.765C72.512 127.557 72.272 127.461 72 127.461Z" fill="#030319"/>
    <path d="M88.912 119.701C87.792 119.701 86.88 120.005 86.176 120.645C85.424 121.285 85.008 122.165 84.912 123.301H86.624C86.688 122.597 86.928 122.069 87.312 121.717C87.696 121.365 88.24 121.189 88.928 121.189C89.6 121.189 90.128 121.333 90.48 121.653C90.8 121.957 90.976 122.389 90.976 122.965C90.976 123.541 90.784 123.989 90.432 124.293C90.08 124.597 89.552 124.757 88.848 124.757H88.032V126.069H88.864C89.616 126.069 90.192 126.229 90.576 126.549C90.992 126.869 91.2 127.365 91.2 128.037C91.2 128.613 90.992 129.077 90.608 129.461C90.16 129.877 89.568 130.101 88.832 130.101C88.16 130.101 87.616 129.909 87.2 129.525C86.72 129.109 86.48 128.517 86.448 127.749H84.688C84.784 129.029 85.232 130.005 86.032 130.677C86.736 131.269 87.68 131.573 88.848 131.573C90.064 131.573 91.072 131.221 91.84 130.549C92.56 129.877 92.928 129.013 92.928 127.957C92.928 127.285 92.736 126.725 92.352 126.293C92 125.877 91.488 125.557 90.816 125.349C92.064 124.933 92.704 124.085 92.704 122.837C92.704 121.861 92.352 121.093 91.68 120.533C90.976 119.973 90.064 119.701 88.912 119.701ZM95.7698 129.061C95.4178 129.061 95.1458 129.173 94.9378 129.397C94.6978 129.621 94.5858 129.909 94.5858 130.261C94.5858 130.581 94.6978 130.869 94.9378 131.109C95.1458 131.317 95.4178 131.429 95.7698 131.429C96.0898 131.429 96.3778 131.317 96.6178 131.109C96.8418 130.869 96.9698 130.581 96.9698 130.261C96.9698 129.909 96.8418 129.621 96.6178 129.397C96.3778 129.173 96.0898 129.061 95.7698 129.061ZM99.4731 119.925L98.8491 126.325H100.481C100.705 125.909 101.009 125.605 101.425 125.413C101.809 125.221 102.241 125.141 102.753 125.141C103.521 125.141 104.097 125.365 104.513 125.813C104.929 126.261 105.137 126.885 105.137 127.685C105.137 128.421 104.897 128.997 104.417 129.445C103.937 129.877 103.345 130.101 102.641 130.101C102.001 130.101 101.489 129.957 101.105 129.669C100.673 129.349 100.417 128.853 100.353 128.213H98.6411C98.7211 129.269 99.1691 130.117 99.9851 130.725C100.721 131.285 101.601 131.573 102.625 131.573C103.761 131.573 104.737 131.237 105.553 130.565C106.417 129.813 106.865 128.853 106.865 127.669C106.865 126.437 106.513 125.477 105.841 124.773C105.169 124.069 104.289 123.717 103.217 123.717C102.705 123.717 102.225 123.797 101.809 123.973C101.345 124.133 100.945 124.389 100.593 124.757H100.545L100.881 121.461H106.353V119.925H99.4731ZM109.899 118.997V120.469H121.051V118.997H109.899ZM108.667 123.701V125.173H112.683V125.461C112.619 127.077 112.283 128.389 111.675 129.413C111.051 130.357 109.883 131.141 108.155 131.765L108.971 133.045C110.763 132.405 112.043 131.525 112.843 130.389C113.643 129.157 114.091 127.509 114.155 125.461V125.173H116.683V131.061C116.683 132.181 117.227 132.741 118.315 132.741H120.795C121.371 132.741 121.787 132.565 122.075 132.245C122.363 131.893 122.571 130.837 122.683 129.045L121.307 128.597C121.275 129.941 121.179 130.741 121.035 131.013C120.923 131.253 120.747 131.381 120.507 131.381H118.747C118.347 131.381 118.155 131.157 118.155 130.741V125.173H122.443V123.701H108.667Z" fill="#030319"/>
    <path d="M22 156.789V157.893H27.456V161.157C27.456 161.637 27.216 161.877 26.752 161.877C26.24 161.877 25.68 161.845 25.104 161.797L25.36 162.901H27.152C28.144 162.901 28.64 162.405 28.64 161.445V157.893H33.952V156.789H28.64V155.221H27.456V156.789H22ZM24.64 158.885C23.68 159.925 22.48 160.821 21.056 161.589L21.792 162.565C23.232 161.717 24.448 160.725 25.44 159.589L24.64 158.885ZM33.84 162.533L34.672 161.685C33.28 160.405 32.064 159.445 31.04 158.805L30.288 159.509C31.488 160.373 32.672 161.381 33.84 162.533ZM25.856 148.101C24.752 149.797 23.36 151.189 21.664 152.245L22.4 153.125C23.136 152.645 23.84 152.085 24.496 151.461C25.184 152.149 25.984 152.773 26.912 153.333C25.152 154.133 23.088 154.693 20.72 155.029L21.216 156.069C23.84 155.637 26.096 154.933 28.016 153.941C29.872 154.853 32.112 155.509 34.768 155.893L35.296 154.821C32.928 154.517 30.88 154.005 29.152 153.285C30.448 152.469 31.552 151.509 32.464 150.389V149.493H26.224C26.48 149.141 26.72 148.757 26.976 148.357L25.856 148.101ZM25.2 150.757L25.408 150.517H31.024C30.176 151.365 29.184 152.117 28.032 152.773C26.912 152.197 25.968 151.525 25.2 150.757ZM36.992 148.901V149.989H38.64V154.613H36.704V155.717H38.624C38.512 158.629 37.872 160.773 36.704 162.149L37.568 162.901C38.928 161.365 39.68 158.965 39.808 155.717H42.208V162.837H43.376V155.717H45.216V154.613H43.376V149.989H44.976V148.901H36.992ZM39.824 149.989H42.208V154.613H39.824V149.989ZM49.648 148.325C48.432 149.637 46.896 150.693 45.04 151.493L45.536 152.549C47.488 151.653 49.104 150.533 50.4 149.189L49.648 148.325ZM50.336 152.661C49.12 154.069 47.584 155.221 45.712 156.085L46.208 157.125C48.16 156.165 49.776 154.965 51.088 153.525L50.336 152.661ZM50.736 157.093C49.2 159.045 47.264 160.613 44.912 161.797L45.408 162.869C47.84 161.573 49.872 159.941 51.504 157.957L50.736 157.093ZM58.048 153.893H55.104C55.52 152.773 55.824 151.573 56.048 150.293H58.464V149.173H53.008V150.293H54.96C54.576 152.677 53.776 154.805 52.56 156.661L53.136 157.589C53.52 157.045 53.872 156.485 54.192 155.909V162.421H55.264V161.205H56.992V162.117H58.048V153.893ZM55.264 160.165V154.949H56.992V160.165H55.264ZM60.208 151.157L59.344 156.341H65.808C65.808 158.901 65.68 160.453 65.424 160.997C65.184 161.509 64.448 161.781 63.216 161.781C62.928 161.781 62.432 161.749 61.728 161.685L62.048 162.805C62.56 162.837 63.04 162.853 63.488 162.853C64.896 162.853 65.808 162.549 66.256 161.973C66.672 161.365 66.896 159.141 66.896 155.269H65.2L66.08 148.949H59.2V150.037H64.832L64.032 155.269H60.64L61.344 151.237L60.208 151.157ZM58.848 158.373V159.461H64.704V158.373H58.848ZM72 151.605C71.712 151.605 71.488 151.701 71.296 151.909C71.104 152.085 71.024 152.309 71.024 152.597C71.024 152.869 71.104 153.093 71.296 153.285C71.488 153.477 71.712 153.573 72 153.573C72.272 153.573 72.512 153.477 72.704 153.285C72.896 153.093 72.992 152.869 72.992 152.597C72.992 152.309 72.896 152.085 72.704 151.909C72.512 151.701 72.272 151.605 72 151.605ZM72 157.461C71.712 157.461 71.488 157.557 71.296 157.765C71.104 157.941 71.024 158.165 71.024 158.453C71.024 158.725 71.104 158.949 71.296 159.141C71.488 159.333 71.712 159.429 72 159.429C72.272 159.429 72.512 159.333 72.704 159.141C72.896 158.949 72.992 158.725 72.992 158.453C72.992 158.165 72.896 157.941 72.704 157.765C72.512 157.557 72.272 157.461 72 157.461Z" fill="#030319"/>
    <path fill-rule="evenodd" clip-rule="evenodd" d="M82 142.349H83.5914V174.349H82V142.349ZM84.6525 142.349H85.7135V174.349H84.6525V142.349ZM87.8355 142.349H87.3051V174.349H87.8355V142.349ZM91.5489 142.349H92.6098V174.349H91.5489V142.349ZM95.7915 142.349H93.1391V174.349H95.7915V142.349ZM98.4443 142.349H99.5052V174.349H98.4443V142.349ZM101.097 142.349H100.567V174.349H101.097V142.349ZM102.158 142.349H104.28V174.349H102.158V142.349ZM109.053 142.349H105.871V174.349H109.053V142.349ZM109.584 142.349H110.645V174.349H109.584V142.349ZM113.828 142.349H112.237V174.349H113.828V142.349ZM115.42 142.349H115.95V174.349H115.42V142.349ZM119.663 142.349H119.132V174.349H119.663V142.349ZM121.255 142.349H123.376V174.349H121.255V142.349ZM126.56 142.349H125.499V174.349H126.56V142.349ZM128.15 142.349H128.68V174.349H128.15V142.349ZM132.394 142.349H130.272V174.349H132.394V142.349ZM134.516 142.349H136.108V174.349H134.516V142.349ZM137.699 142.349H137.169V174.349H137.699V142.349ZM139.82 142.349H141.942V174.349H139.82V142.349ZM144.064 142.349H142.473V174.349H144.064V142.349ZM146.187 142.349H147.778V174.349H146.187V142.349ZM149.9 142.349H149.369V174.349H149.9V142.349ZM152.022 142.349H152.552V174.349H152.022V142.349ZM155.734 142.349H154.673V174.349H155.734V142.349ZM157.857 142.349H158.918V174.349H157.857V142.349ZM162.631 142.349H159.978V174.349H162.631V142.349ZM164.222 142.349H166.344V174.349H164.222V142.349ZM168.996 142.349H167.405V174.349H168.996V142.349ZM170.057 142.349H172.179V174.349H170.057V142.349ZM173.77 142.349H173.24V174.349H173.77V142.349ZM176.422 142.349H177.483V174.349H176.422V142.349ZM179.606 142.349H178.545V174.349H179.606V142.349ZM182.258 142.349H183.319V174.349H182.258V142.349ZM185.441 142.349H184.91V174.349H185.441V142.349ZM187.563 142.349H188.624V174.349H187.563V142.349ZM192.337 142.349H191.806V174.349H192.337V142.349ZM194.989 142.349H197.111V174.349H194.989V142.349ZM199.763 142.349H198.172V174.349H199.763V142.349ZM200.294 142.349H201.355V174.349H200.294V142.349ZM205.598 142.349H204.007V174.349H205.598V142.349ZM206.129 142.349H208.782V174.349H206.129V142.349ZM210.372 142.349H209.842V174.349H210.372V142.349ZM211.433 142.349H211.964V174.349H211.433V142.349ZM215.677 142.349H214.086V174.349H215.677V142.349ZM218.86 142.349H220.451V174.349H218.86V142.349ZM222.574 142.349H222.043V174.349H222.574V142.349ZM223.635 142.349H224.165V174.349H223.635V142.349ZM230 142.349H228.409V174.349H230V142.349Z" fill="#030319"/>
    <path d="M112.129 185.459C111.277 185.459 110.569 185.735 109.993 186.299C109.417 186.851 109.141 187.547 109.141 188.411C109.141 189.251 109.381 189.935 109.873 190.463C110.377 191.003 111.061 191.279 111.901 191.279C112.345 191.279 112.741 191.183 113.089 191.015C113.449 190.823 113.761 190.547 114.001 190.175H114.049C114.049 190.235 114.061 190.283 114.061 190.331C114.061 191.159 113.881 191.855 113.545 192.407C113.185 192.983 112.717 193.283 112.129 193.283C111.265 193.283 110.737 192.863 110.569 192.035H109.297C109.513 193.583 110.449 194.363 112.117 194.363C113.101 194.363 113.881 193.919 114.469 193.055C115.033 192.191 115.321 191.063 115.321 189.671C115.321 188.351 115.045 187.331 114.517 186.599C113.965 185.831 113.173 185.459 112.129 185.459ZM112.177 186.539C112.681 186.539 113.101 186.707 113.425 187.043C113.737 187.367 113.905 187.811 113.905 188.375C113.905 188.927 113.749 189.383 113.437 189.719C113.125 190.055 112.693 190.223 112.165 190.223C111.625 190.223 111.205 190.055 110.905 189.719C110.581 189.395 110.425 188.963 110.425 188.411C110.425 187.859 110.581 187.415 110.905 187.067C111.217 186.707 111.649 186.539 112.177 186.539ZM120.704 185.459C119.864 185.459 119.18 185.687 118.652 186.167C118.088 186.647 117.776 187.307 117.704 188.159H118.988C119.036 187.631 119.216 187.235 119.504 186.971C119.792 186.707 120.2 186.575 120.716 186.575C121.22 186.575 121.616 186.683 121.88 186.923C122.12 187.151 122.252 187.475 122.252 187.907C122.252 188.339 122.108 188.675 121.844 188.903C121.58 189.131 121.184 189.251 120.656 189.251H120.044V190.235H120.668C121.232 190.235 121.664 190.355 121.952 190.595C122.264 190.835 122.42 191.207 122.42 191.711C122.42 192.143 122.264 192.491 121.976 192.779C121.64 193.091 121.196 193.259 120.644 193.259C120.14 193.259 119.732 193.115 119.42 192.827C119.06 192.515 118.88 192.071 118.856 191.495H117.536C117.608 192.455 117.944 193.187 118.544 193.691C119.072 194.135 119.78 194.363 120.656 194.363C121.568 194.363 122.324 194.099 122.9 193.595C123.44 193.091 123.716 192.443 123.716 191.651C123.716 191.147 123.572 190.727 123.284 190.403C123.02 190.091 122.636 189.851 122.132 189.695C123.068 189.383 123.548 188.747 123.548 187.811C123.548 187.079 123.284 186.503 122.78 186.083C122.252 185.663 121.568 185.459 120.704 185.459ZM128.2 185.627C127.912 185.939 127.552 186.215 127.12 186.479C126.688 186.719 126.292 186.887 125.908 186.983V188.279C126.7 188.051 127.36 187.691 127.876 187.199V194.195H129.184V185.627H128.2ZM135.246 185.459C134.334 185.459 133.59 185.759 133.038 186.383C132.498 186.959 132.222 187.727 132.21 188.687H133.518C133.542 187.991 133.686 187.475 133.974 187.115C134.25 186.743 134.658 186.563 135.198 186.563C135.702 186.563 136.098 186.683 136.362 186.923C136.626 187.163 136.758 187.523 136.758 188.003C136.758 188.507 136.554 188.975 136.17 189.407C135.93 189.659 135.522 189.983 134.946 190.391C133.974 191.063 133.326 191.579 133.014 191.951C132.438 192.599 132.162 193.343 132.162 194.195H138.066V193.043H133.782C133.962 192.575 134.514 192.035 135.438 191.423C136.29 190.847 136.878 190.391 137.214 190.043C137.766 189.431 138.054 188.759 138.054 188.015C138.054 187.259 137.79 186.647 137.274 186.167C136.746 185.687 136.062 185.459 135.246 185.459ZM143.593 185.459C142.753 185.459 142.069 185.687 141.541 186.167C140.977 186.647 140.665 187.307 140.593 188.159H141.877C141.925 187.631 142.105 187.235 142.393 186.971C142.681 186.707 143.089 186.575 143.605 186.575C144.109 186.575 144.505 186.683 144.769 186.923C145.009 187.151 145.141 187.475 145.141 187.907C145.141 188.339 144.997 188.675 144.733 188.903C144.469 189.131 144.073 189.251 143.545 189.251H142.933V190.235H143.557C144.121 190.235 144.553 190.355 144.841 190.595C145.153 190.835 145.309 191.207 145.309 191.711C145.309 192.143 145.153 192.491 144.865 192.779C144.529 193.091 144.085 193.259 143.533 193.259C143.029 193.259 142.621 193.115 142.309 192.827C141.949 192.515 141.769 192.071 141.745 191.495H140.425C140.497 192.455 140.833 193.187 141.433 193.691C141.961 194.135 142.669 194.363 143.545 194.363C144.457 194.363 145.213 194.099 145.789 193.595C146.329 193.091 146.605 192.443 146.605 191.651C146.605 191.147 146.461 190.727 146.173 190.403C145.909 190.091 145.525 189.851 145.021 189.695C145.957 189.383 146.437 188.747 146.437 187.811C146.437 187.079 146.173 186.503 145.669 186.083C145.141 185.663 144.457 185.459 143.593 185.459ZM151.905 185.459C150.993 185.459 150.261 185.699 149.733 186.179C149.253 186.611 149.013 187.151 149.013 187.787C149.013 188.231 149.109 188.603 149.301 188.903C149.517 189.227 149.841 189.467 150.273 189.635V189.671C149.853 189.767 149.505 190.007 149.217 190.391C148.881 190.799 148.713 191.267 148.713 191.807C148.713 192.563 148.989 193.175 149.541 193.655C150.093 194.123 150.885 194.363 151.905 194.363C152.913 194.363 153.705 194.123 154.269 193.655C154.821 193.175 155.097 192.563 155.097 191.807C155.097 191.267 154.929 190.799 154.593 190.391C154.305 190.007 153.945 189.767 153.537 189.671V189.635C153.969 189.467 154.293 189.227 154.509 188.903C154.701 188.603 154.797 188.231 154.797 187.787C154.797 187.151 154.557 186.611 154.077 186.179C153.537 185.699 152.817 185.459 151.905 185.459ZM151.905 186.503C152.433 186.503 152.853 186.635 153.165 186.923C153.429 187.163 153.573 187.475 153.573 187.835C153.573 188.243 153.453 188.567 153.237 188.807C152.949 189.095 152.505 189.239 151.905 189.239C151.293 189.239 150.849 189.095 150.573 188.807C150.345 188.567 150.237 188.243 150.237 187.835C150.237 187.475 150.369 187.163 150.645 186.923C150.957 186.635 151.377 186.503 151.905 186.503ZM151.905 190.211C152.529 190.211 152.997 190.367 153.333 190.679C153.645 190.955 153.801 191.327 153.801 191.807C153.801 192.251 153.645 192.611 153.333 192.887C152.985 193.163 152.505 193.307 151.905 193.307C151.293 193.307 150.825 193.163 150.501 192.887C150.165 192.611 150.009 192.251 150.009 191.807C150.009 191.327 150.165 190.955 150.489 190.667C150.801 190.355 151.281 190.211 151.905 190.211ZM160.432 185.459C159.52 185.459 158.776 185.759 158.224 186.383C157.684 186.959 157.408 187.727 157.396 188.687H158.704C158.728 187.991 158.872 187.475 159.16 187.115C159.436 186.743 159.844 186.563 160.384 186.563C160.888 186.563 161.284 186.683 161.548 186.923C161.812 187.163 161.944 187.523 161.944 188.003C161.944 188.507 161.74 188.975 161.356 189.407C161.116 189.659 160.708 189.983 160.132 190.391C159.16 191.063 158.512 191.579 158.2 191.951C157.624 192.599 157.348 193.343 157.348 194.195H163.252V193.043H158.968C159.148 192.575 159.7 192.035 160.624 191.423C161.476 190.847 162.064 190.391 162.4 190.043C162.952 189.431 163.24 188.759 163.24 188.015C163.24 187.259 162.976 186.647 162.46 186.167C161.932 185.687 161.248 185.459 160.432 185.459ZM168.779 185.459C167.939 185.459 167.255 185.687 166.727 186.167C166.163 186.647 165.851 187.307 165.779 188.159H167.063C167.111 187.631 167.291 187.235 167.579 186.971C167.867 186.707 168.275 186.575 168.791 186.575C169.295 186.575 169.691 186.683 169.955 186.923C170.195 187.151 170.327 187.475 170.327 187.907C170.327 188.339 170.183 188.675 169.919 188.903C169.655 189.131 169.259 189.251 168.731 189.251H168.119V190.235H168.743C169.307 190.235 169.739 190.355 170.027 190.595C170.339 190.835 170.495 191.207 170.495 191.711C170.495 192.143 170.339 192.491 170.051 192.779C169.715 193.091 169.271 193.259 168.719 193.259C168.215 193.259 167.807 193.115 167.495 192.827C167.135 192.515 166.955 192.071 166.931 191.495H165.611C165.683 192.455 166.019 193.187 166.619 193.691C167.147 194.135 167.855 194.363 168.731 194.363C169.643 194.363 170.399 194.099 170.975 193.595C171.515 193.091 171.791 192.443 171.791 191.651C171.791 191.147 171.647 190.727 171.359 190.403C171.095 190.091 170.711 189.851 170.207 189.695C171.143 189.383 171.623 188.747 171.623 187.811C171.623 187.079 171.359 186.503 170.855 186.083C170.327 185.663 169.643 185.459 168.779 185.459ZM176.275 185.627C175.987 185.939 175.627 186.215 175.195 186.479C174.763 186.719 174.367 186.887 173.983 186.983V188.279C174.775 188.051 175.435 187.691 175.951 187.199V194.195H177.259V185.627H176.275ZM183.273 185.459C182.433 185.459 181.749 185.687 181.221 186.167C180.657 186.647 180.345 187.307 180.273 188.159H181.557C181.605 187.631 181.785 187.235 182.073 186.971C182.361 186.707 182.769 186.575 183.285 186.575C183.789 186.575 184.185 186.683 184.449 186.923C184.689 187.151 184.821 187.475 184.821 187.907C184.821 188.339 184.677 188.675 184.413 188.903C184.149 189.131 183.753 189.251 183.225 189.251H182.613V190.235H183.237C183.801 190.235 184.233 190.355 184.521 190.595C184.833 190.835 184.989 191.207 184.989 191.711C184.989 192.143 184.833 192.491 184.545 192.779C184.209 193.091 183.765 193.259 183.213 193.259C182.709 193.259 182.301 193.115 181.989 192.827C181.629 192.515 181.449 192.071 181.425 191.495H180.105C180.177 192.455 180.513 193.187 181.113 193.691C181.641 194.135 182.349 194.363 183.225 194.363C184.137 194.363 184.893 194.099 185.469 193.595C186.009 193.091 186.285 192.443 186.285 191.651C186.285 191.147 186.141 190.727 185.853 190.403C185.589 190.091 185.205 189.851 184.701 189.695C185.637 189.383 186.117 188.747 186.117 187.811C186.117 187.079 185.853 186.503 185.349 186.083C184.821 185.663 184.137 185.459 183.273 185.459ZM190.768 185.627C190.48 185.939 190.12 186.215 189.688 186.479C189.256 186.719 188.86 186.887 188.476 186.983V188.279C189.268 188.051 189.928 187.691 190.444 187.199V194.195H191.752V185.627H190.768ZM197.767 185.459C196.927 185.459 196.243 185.687 195.715 186.167C195.151 186.647 194.839 187.307 194.767 188.159H196.051C196.099 187.631 196.279 187.235 196.567 186.971C196.855 186.707 197.263 186.575 197.779 186.575C198.283 186.575 198.679 186.683 198.943 186.923C199.183 187.151 199.315 187.475 199.315 187.907C199.315 188.339 199.171 188.675 198.907 188.903C198.643 189.131 198.247 189.251 197.719 189.251H197.107V190.235H197.731C198.295 190.235 198.727 190.355 199.015 190.595C199.327 190.835 199.483 191.207 199.483 191.711C199.483 192.143 199.327 192.491 199.039 192.779C198.703 193.091 198.259 193.259 197.707 193.259C197.203 193.259 196.795 193.115 196.483 192.827C196.123 192.515 195.943 192.071 195.919 191.495H194.599C194.671 192.455 195.007 193.187 195.607 193.691C196.135 194.135 196.843 194.363 197.719 194.363C198.631 194.363 199.387 194.099 199.963 193.595C200.503 193.091 200.779 192.443 200.779 191.651C200.779 191.147 200.635 190.727 200.347 190.403C200.083 190.091 199.699 189.851 199.195 189.695C200.131 189.383 200.611 188.747 200.611 187.811C200.611 187.079 200.347 186.503 199.843 186.083C199.315 185.663 198.631 185.459 197.767 185.459ZM205.262 185.627C204.974 185.939 204.614 186.215 204.182 186.479C203.75 186.719 203.354 186.887 202.97 186.983V188.279C203.762 188.051 204.422 187.691 204.938 187.199V194.195H206.246V185.627H205.262ZM212.177 185.459C211.169 185.459 210.389 185.879 209.837 186.731C209.333 187.511 209.081 188.567 209.081 189.911C209.081 191.243 209.333 192.299 209.837 193.091C210.389 193.931 211.169 194.363 212.177 194.363C213.185 194.363 213.965 193.931 214.517 193.091C215.021 192.299 215.273 191.231 215.273 189.911C215.273 188.579 215.021 187.523 214.517 186.731C213.965 185.879 213.185 185.459 212.177 185.459ZM212.177 186.563C212.873 186.563 213.377 186.947 213.665 187.727C213.869 188.255 213.977 188.987 213.977 189.911C213.977 190.823 213.869 191.555 213.665 192.095C213.377 192.863 212.873 193.259 212.177 193.259C211.469 193.259 210.977 192.863 210.689 192.095C210.473 191.555 210.377 190.823 210.377 189.911C210.377 188.987 210.473 188.255 210.689 187.727C210.977 186.947 211.469 186.563 212.177 186.563Z" fill="#030319"/>
</svg>