<svg width="343" height="204" viewBox="0 0 343 204" fill="none" xmlns="http://www.w3.org/2000/svg">
    <rect width="343" height="204" rx="8" fill="#EA3421"/>
    <rect x="6" y="9" width="200" height="28" fill="white"/>
    <path d="M233.08 24.6V29.74H240.9V24.46H233.26C234.32 23.68 235.26 22.8 236.08 21.84L234.74 20.66C233.66 21.84 232.34 22.88 230.74 23.76V20.62H243.22V29.26C243.22 29.94 242.96 30.3 242.48 30.3L240.56 30.24L241.04 31.96H243.08C244.38 31.96 245.04 31.18 245.04 29.66V18.94H240.74C241.08 18.32 241.4 17.64 241.72 16.88H245.92V15.06H238.04C237.84 14.46 237.66 13.9 237.46 13.4L235.36 13.72C235.56 14.12 235.76 14.58 235.94 15.06H228.08V16.88H232.14C232.5 17.52 232.8 18.22 233.08 18.94H228.92V31.92H230.74V23.84L231.92 25.36C232.32 25.12 232.7 24.86 233.08 24.6ZM239.06 28.06H234.92V26.16H239.06V28.06ZM239.12 20.64L237.84 21.86C239.52 23.1 240.84 24.24 241.76 25.32L243.18 23.92C242.08 22.84 240.72 21.74 239.12 20.64ZM235.02 18.94C234.78 18.18 234.5 17.5 234.22 16.88H239.64C239.34 17.58 239.02 18.26 238.66 18.94H235.02ZM251.32 14.28V21.26H262.68V14.28H251.32ZM260.78 19.46H253.22V16.08H260.78V19.46ZM256.04 22.76H248.64V31.76H250.5V30.8H254.2V31.76H256.04V22.76ZM250.5 29.02V24.56H254.2V29.02H250.5ZM265.36 22.76H257.74V31.76H259.6V30.8H263.46V31.76H265.36V22.76ZM259.6 29.02V24.56H263.46V29.02H259.6ZM270.6 13.66V17.28H268.32V19.1H270.58C269.98 21.44 269 23.52 267.66 25.36L268.48 27.44C269.32 26.08 270.02 24.58 270.6 22.96V32.04H272.46V22.46C272.96 23.18 273.56 24.08 274.24 25.16L275.32 23.54C274.36 22.38 273.4 21.34 272.46 20.4V19.1H274.62V17.28H272.46V13.66H270.6ZM276.5 22.74C275.98 25.08 275.12 27.26 273.88 29.3L275.54 30.36C276.7 28.32 277.6 25.92 278.24 23.12L276.5 22.74ZM284.2 22.58L282.5 23.14C283.22 25.3 283.9 27.76 284.52 30.56L286.26 29.78C285.68 27.22 285 24.82 284.2 22.58ZM279.46 31.84C280.78 31.84 281.46 31.16 281.46 29.82V21.28H286.2V19.46H274.86V21.28H279.56V29.36C279.56 29.9 279.3 30.18 278.82 30.18C278.26 30.18 277.66 30.14 277.06 30.06L277.44 31.84H279.46ZM275.9 14.64V16.44H285.16V14.64H275.9ZM290.12 21.26V31.96H292.04V18.1C292.64 16.9 293.14 15.66 293.54 14.36L291.76 13.52C290.88 16.56 289.5 19.22 287.64 21.5L288.28 23.54C288.92 22.82 289.54 22.06 290.12 21.26ZM300.86 20.66V31.88H302.7V20.66H300.86ZM295.82 20.72V23.68C295.78 27 294.94 29.4 293.3 30.9L294.72 32.14C296.64 30.36 297.62 27.54 297.66 23.68V20.72H295.82ZM298.34 13.7C296.94 16.58 294.94 18.92 292.34 20.72L293.4 22.34C295.74 20.74 297.68 18.46 299.2 15.52C300.54 18.14 302.58 20.34 305.3 22.14L306.36 20.52C303.4 18.56 301.3 16.3 300.08 13.7H298.34ZM321.42 25.1C320.86 26.88 320.24 28.42 319.52 29.72H308.52V31.48H325.52V29.72H321.56C322.24 28.5 322.82 27.12 323.3 25.6L321.42 25.1ZM312.34 25.28L310.6 25.84C311.24 26.96 311.74 28.14 312.14 29.38L313.86 28.94C313.4 27.56 312.9 26.34 312.34 25.28ZM316.96 24.88L315.2 25.44C315.72 26.64 316.14 27.88 316.48 29.18L318.18 28.76C317.82 27.3 317.42 26 316.96 24.88ZM311.76 23.12V24.54H322.26V23.14C323.18 23.56 324.18 23.96 325.24 24.32L326.16 22.68C322.92 21.66 320.08 20.26 317.6 18.5H316.4C314.12 20.14 311.28 21.52 307.84 22.64L308.76 24.3C309.8 23.92 310.8 23.52 311.76 23.12ZM321.7 22.88H312.28C314.1 22.02 315.68 21.08 317 20.04C318.36 21.1 319.94 22.04 321.7 22.88ZM311.24 16.86H312.56C312.88 17.6 313.16 18.36 313.4 19.16L315.12 18.54C314.94 18.02 314.72 17.46 314.44 16.86H316.94V15.18H311.96C312.1 14.78 312.24 14.38 312.38 13.94L310.54 13.54C310.02 15.3 309.16 16.94 307.92 18.48L309.56 19.52C310.18 18.72 310.74 17.82 311.24 16.86ZM319.62 16.86H321.2C321.62 17.66 322 18.48 322.32 19.36L324.06 18.7C323.82 18.14 323.52 17.52 323.14 16.86H325.96V15.18H320.34C320.48 14.78 320.62 14.38 320.74 13.94L318.94 13.54C318.54 15.02 317.86 16.38 316.94 17.66L318.54 18.68C318.94 18.12 319.3 17.5 319.62 16.86Z" fill="white"/>
    <path d="M70.662 18.542H72.102C72.048 20.612 71.796 22.448 71.364 24.05C70.95 22.79 70.608 21.368 70.356 19.784C70.464 19.388 70.554 18.974 70.662 18.542ZM70.698 25.94C70.068 27.362 69.24 28.514 68.196 29.396L69.096 30.836C70.032 29.99 70.824 28.982 71.472 27.794C72.048 29 72.714 29.99 73.47 30.746L74.442 29.288C73.578 28.532 72.84 27.506 72.21 26.174C73.02 24.068 73.47 21.53 73.542 18.542H74.172V16.94H70.986C71.13 16.148 71.238 15.32 71.346 14.456L69.852 14.204C69.528 17.462 68.916 20.108 68.034 22.142V20.918H62.31V22.43H67.908C67.872 22.502 67.854 22.556 67.818 22.628L68.754 23.816C69.06 23.276 69.348 22.664 69.618 21.998C69.906 23.438 70.266 24.752 70.698 25.94ZM66.27 29.828C67.242 29.198 68.196 28.388 69.132 27.38L68.79 25.958C68.34 26.426 67.89 26.84 67.458 27.236V23.492H62.832V25.85C62.814 27.506 62.364 28.784 61.482 29.666L62.742 30.764C63.822 29.684 64.38 28.046 64.416 25.85V25.04H65.964V27.866C65.91 28.118 65.784 28.298 65.568 28.424L66.27 29.828ZM64.578 14.24V18.218H63.678V15.212H62.274V19.658H68.268V15.212H66.882V18.218H66V14.24H64.578ZM60.402 14.258C59.79 15.878 58.836 17.282 57.558 18.506L58.08 20.162C59.844 18.614 61.104 16.868 61.86 14.942L60.402 14.258ZM60.492 19.082C59.88 20.792 58.926 22.286 57.63 23.582L58.134 25.22C58.62 24.77 59.07 24.32 59.484 23.852V30.89H61.086V21.602C61.41 21.008 61.698 20.396 61.932 19.766L60.492 19.082ZM79.5 20.198V24.572H84.09C83.856 25.112 83.586 25.58 83.262 25.976C82.182 27.326 80.328 28.496 77.7 29.468L78.798 30.89C81.642 29.702 83.658 28.298 84.846 26.714C85.278 26.138 85.638 25.418 85.926 24.572H85.962V28.694C85.962 29.954 86.628 30.602 87.978 30.602H91.632C92.352 30.602 92.892 30.44 93.252 30.134C93.612 29.792 93.864 28.748 94.026 27.02L92.388 26.48C92.316 27.74 92.208 28.478 92.028 28.73C91.884 28.946 91.65 29.072 91.326 29.072H88.464C87.924 29.072 87.654 28.82 87.654 28.334V24.572H92.19V18.992H87.834C88.518 18.452 89.22 17.822 89.904 17.102V15.824H83.946C84.216 15.446 84.486 15.05 84.774 14.618L83.028 14.24C81.48 16.436 79.608 18.164 77.412 19.406L78.582 20.81C78.888 20.612 79.194 20.414 79.5 20.198ZM85.404 18.992H81.03C81.606 18.47 82.182 17.912 82.722 17.336H87.564C86.826 17.966 86.106 18.524 85.404 18.992ZM90.534 23.006H86.358C86.52 22.268 86.646 21.44 86.736 20.54H90.534V23.006ZM84.612 23.006H81.138V20.54H85.044C84.936 21.44 84.792 22.25 84.612 23.006ZM89.58 25.202L88.284 26.012C89.184 26.93 89.904 27.776 90.426 28.55L91.776 27.596C91.272 26.912 90.534 26.102 89.58 25.202ZM102.72 14.87V16.454H106.986V17.732H102.846V24.932H106.914C106.788 25.706 106.554 26.39 106.194 27.002C105.456 26.498 104.772 25.922 104.16 25.274L102.9 26.156C103.584 26.894 104.322 27.542 105.114 28.118C104.322 28.658 103.17 29.144 101.64 29.54L102.504 30.908C104.268 30.458 105.618 29.828 106.59 29.036C108.588 30.116 110.91 30.746 113.574 30.908L113.97 29.342C111.558 29.234 109.434 28.73 107.634 27.83C108.138 27.038 108.444 26.066 108.588 24.932H112.8V17.732H108.66V16.454H113.628V14.87H102.72ZM111.198 23.546H108.66V22.016H111.198V23.546ZM106.986 23.546H104.448V22.016H106.986V23.546ZM104.448 20.63V19.118H106.986V20.63H104.448ZM108.66 19.118H111.198V20.63H108.66V19.118ZM99.21 21.35V30.872H100.884V18.506C101.442 17.372 101.91 16.184 102.27 14.924L100.722 14.204C99.966 16.94 98.778 19.352 97.176 21.404L97.752 23.222C98.274 22.61 98.76 21.998 99.21 21.35ZM117.39 18.956V20.594H120.774V20.648C119.946 22.538 118.668 24.23 116.94 25.706L117.714 27.704C118.938 26.408 119.964 25.004 120.774 23.474V30.854H122.502V22.952C123.15 23.654 123.942 24.608 124.878 25.796L125.886 24.266C124.734 23.114 123.618 22.07 122.502 21.17V20.594H125.724V18.956H122.502V16.616C123.546 16.364 124.554 16.04 125.544 15.662L124.716 14.24C122.88 14.978 120.468 15.464 117.48 15.716L118.02 17.3C118.956 17.228 119.874 17.12 120.774 16.958V18.956H117.39ZM126.966 15.932V26.948H128.658V15.932H126.966ZM131.052 30.692C132.258 30.692 132.87 30.044 132.87 28.766V14.294H131.142V28.334C131.142 28.856 130.908 29.126 130.458 29.126C129.666 29.126 128.856 29.09 128.01 29.036L128.37 30.692H131.052ZM145.416 18.074V23.924H141.366V30.836H143.058V30.044H150.15V30.836H151.842V23.924H147.126V21.638H152.868V20.018H147.126V18.074H145.416ZM143.058 28.442V25.508H150.15V28.442H143.058ZM145.902 14.15L144.12 14.438C144.408 14.87 144.696 15.338 144.948 15.86H138.504V21.26C138.468 24.824 137.946 27.614 136.956 29.612L138.252 30.764C139.494 28.388 140.142 25.22 140.196 21.26V17.516H153.264V15.86H146.694C146.442 15.248 146.19 14.672 145.902 14.15Z" fill="#030319"/>
    <rect x="6" y="43.9995" width="331" height="28" fill="white"/>
    <path d="M21.584 51.5995V56.8315H30.4V51.5995H21.584ZM29.248 55.7435H22.736V52.6875H29.248V55.7435ZM25.088 58.4155H19.456V65.3595H20.592V64.5435H23.968V65.3595H25.088V58.4155ZM20.592 63.4555V59.5195H23.968V63.4555H20.592ZM32.528 58.4155H26.736V65.3595H27.872V64.5435H31.376V65.3595H32.528V58.4155ZM27.872 63.4555V59.5195H31.376V63.4555H27.872ZM39.68 64.6075H46.832V65.5515H48V58.7995H41.328C44.336 57.4075 46.4 55.6155 47.552 53.4235V52.3995H41.312C41.632 51.9675 41.92 51.5195 42.176 51.0395L40.912 50.8955C39.952 52.5915 38.112 54.0315 35.376 55.1995L36.144 56.1915C37.84 55.3915 39.216 54.4955 40.304 53.4875H46.224C45.472 54.7995 44.288 55.9355 42.656 56.9115C41.968 56.3195 41.008 55.6475 39.792 54.8955L38.8 55.5195C40.016 56.2075 40.976 56.8475 41.68 57.4395C39.84 58.3675 37.536 59.1035 34.768 59.6795L35.376 60.7835C36.496 60.5115 37.536 60.2235 38.528 59.9035V65.5515H39.68V64.6075ZM46.832 63.4875H39.68V59.8715H46.832V63.4875ZM54 54.2555C53.712 54.2555 53.488 54.3515 53.296 54.5595C53.104 54.7355 53.024 54.9595 53.024 55.2475C53.024 55.5195 53.104 55.7435 53.296 55.9355C53.488 56.1275 53.712 56.2235 54 56.2235C54.272 56.2235 54.512 56.1275 54.704 55.9355C54.896 55.7435 54.992 55.5195 54.992 55.2475C54.992 54.9595 54.896 54.7355 54.704 54.5595C54.512 54.3515 54.272 54.2555 54 54.2555ZM54 60.1115C53.712 60.1115 53.488 60.2075 53.296 60.4155C53.104 60.5915 53.024 60.8155 53.024 61.1035C53.024 61.3755 53.104 61.5995 53.296 61.7915C53.488 61.9835 53.712 62.0795 54 62.0795C54.272 62.0795 54.512 61.9835 54.704 61.7915C54.896 61.5995 54.992 61.3755 54.992 61.1035C54.992 60.8155 54.896 60.5915 54.704 60.4155C54.512 60.2075 54.272 60.1115 54 60.1115Z" fill="#030319"/>
    <path d="M68.832 51.7595V53.2315H79.664V63.4235C79.664 63.9035 79.44 64.1435 79.008 64.1435C78.208 64.1435 77.376 64.1115 76.496 64.0635L76.848 65.5355H79.536C80.624 65.5355 81.184 64.9595 81.184 63.8075V53.2315H83.2V51.7595H68.832ZM77.088 55.3115H70.592V62.7835H72.048V61.4715H77.088V55.3115ZM72.048 60.0955V56.6715H75.648V60.0955H72.048ZM97.984 52.6715H86.032V65.3915H87.568V64.4795H96.432V65.3915H97.984V52.6715ZM87.568 62.9915V54.1595H96.432V62.9915H87.568ZM100.832 51.7595V53.2315H111.664V63.4235C111.664 63.9035 111.44 64.1435 111.008 64.1435C110.208 64.1435 109.376 64.1115 108.496 64.0635L108.848 65.5355H111.536C112.624 65.5355 113.184 64.9595 113.184 63.8075V53.2315H115.2V51.7595H100.832ZM109.088 55.3115H102.592V62.7835H104.048V61.4715H109.088V55.3115ZM104.048 60.0955V56.6715H107.648V60.0955H104.048ZM117.504 58.4795H123.36V63.4555C123.36 63.9355 123.136 64.1915 122.72 64.1915C122.096 64.1915 121.44 64.1595 120.752 64.0955L121.088 65.5835H123.248C124.336 65.5835 124.896 64.9915 124.896 63.8395V58.4795H130.608V56.9915H124.896V54.0475H123.36V56.9915H119.184C119.424 55.8875 119.664 54.6555 119.888 53.2795C123.888 53.2155 127.136 52.8475 129.616 52.1755L128.896 50.8955C126.592 51.5995 123.584 51.9675 119.872 51.9835C119.456 51.9675 119.04 51.9195 118.656 51.8555C118.432 53.7755 118.048 55.9835 117.504 58.4795ZM119.536 59.4875C118.768 61.2475 117.84 62.7675 116.768 64.0315L118.096 64.9915C119.152 63.6155 120.08 61.9995 120.88 60.1435L119.536 59.4875ZM128.176 59.4075L126.832 60.0475C127.76 61.5195 128.624 63.1835 129.424 65.0395L130.864 64.3195C130 62.5275 129.104 60.8955 128.176 59.4075ZM133.52 52.5755L132.896 58.9755H134.528C134.752 58.5595 135.056 58.2555 135.472 58.0635C135.856 57.8715 136.288 57.7915 136.8 57.7915C137.568 57.7915 138.144 58.0155 138.56 58.4635C138.976 58.9115 139.184 59.5355 139.184 60.3355C139.184 61.0715 138.944 61.6475 138.464 62.0955C137.984 62.5275 137.392 62.7515 136.688 62.7515C136.048 62.7515 135.536 62.6075 135.152 62.3195C134.72 61.9995 134.464 61.5035 134.4 60.8635H132.688C132.768 61.9195 133.216 62.7675 134.032 63.3755C134.768 63.9355 135.648 64.2235 136.672 64.2235C137.808 64.2235 138.784 63.8875 139.6 63.2155C140.464 62.4635 140.912 61.5035 140.912 60.3195C140.912 59.0875 140.56 58.1275 139.888 57.4235C139.216 56.7195 138.336 56.3675 137.264 56.3675C136.752 56.3675 136.272 56.4475 135.856 56.6235C135.392 56.7835 134.992 57.0395 134.64 57.4075H134.592L134.928 54.1115H140.4V52.5755H133.52ZM146.394 52.3515C145.05 52.3515 144.01 52.9115 143.274 54.0475C142.602 55.0875 142.266 56.4955 142.266 58.2875C142.266 60.0635 142.602 61.4715 143.274 62.5275C144.01 63.6475 145.05 64.2235 146.394 64.2235C147.738 64.2235 148.778 63.6475 149.514 62.5275C150.186 61.4715 150.522 60.0475 150.522 58.2875C150.522 56.5115 150.186 55.1035 149.514 54.0475C148.778 52.9115 147.738 52.3515 146.394 52.3515ZM146.394 53.8235C147.322 53.8235 147.994 54.3355 148.378 55.3755C148.65 56.0795 148.794 57.0555 148.794 58.2875C148.794 59.5035 148.65 60.4795 148.378 61.1995C147.994 62.2235 147.322 62.7515 146.394 62.7515C145.45 62.7515 144.794 62.2235 144.41 61.1995C144.122 60.4795 143.994 59.5035 143.994 58.2875C143.994 57.0555 144.122 56.0795 144.41 55.3755C144.794 54.3355 145.45 53.8235 146.394 53.8235ZM155.988 52.3515C154.644 52.3515 153.604 52.9115 152.868 54.0475C152.196 55.0875 151.86 56.4955 151.86 58.2875C151.86 60.0635 152.196 61.4715 152.868 62.5275C153.604 63.6475 154.644 64.2235 155.988 64.2235C157.332 64.2235 158.372 63.6475 159.108 62.5275C159.78 61.4715 160.116 60.0475 160.116 58.2875C160.116 56.5115 159.78 55.1035 159.108 54.0475C158.372 52.9115 157.332 52.3515 155.988 52.3515ZM155.988 53.8235C156.916 53.8235 157.588 54.3355 157.972 55.3755C158.244 56.0795 158.388 57.0555 158.388 58.2875C158.388 59.5035 158.244 60.4795 157.972 61.1995C157.588 62.2235 156.916 62.7515 155.988 62.7515C155.044 62.7515 154.388 62.2235 154.004 61.1995C153.716 60.4795 153.588 59.5035 153.588 58.2875C153.588 57.0555 153.716 56.0795 154.004 55.3755C154.388 54.3355 155.044 53.8235 155.988 53.8235ZM167.837 62.3355L162.525 62.7515L162.717 63.9195L167.837 63.5355V64.1435C167.837 65.0075 168.349 65.4555 169.373 65.4555H173.821C174.493 65.4555 174.973 65.3595 175.293 65.1675C175.629 64.9595 175.869 64.3195 175.997 63.2635L174.877 62.9115L174.717 61.9195L169.293 62.2715V61.4715L173.821 61.1835L173.677 60.1435L169.293 60.4475V59.7595C170.573 59.6635 171.821 59.5355 173.037 59.3755L172.477 58.4475C170.397 58.7195 167.677 58.9115 164.317 59.0075L164.637 59.9835C165.725 59.9515 166.781 59.9195 167.837 59.8555V60.5115L163.309 60.7995L163.485 61.9035L167.837 61.6315V62.3355ZM174.653 62.9915C174.589 63.5675 174.477 63.9035 174.301 64.0315C174.141 64.1595 173.901 64.2235 173.581 64.2235H169.757C169.437 64.2235 169.293 64.0955 169.293 63.8715V63.3595L174.653 62.9915ZM161.741 51.8075V53.0395H175.837V51.8075H169.485C169.325 51.4235 169.149 51.0715 168.989 50.7515L167.469 51.0235C167.629 51.2635 167.805 51.5195 167.965 51.8075H161.741ZM164.077 53.6315V56.3995H173.533V53.6315H164.077ZM172.109 55.4555H165.501V54.6075H172.109V55.4555ZM175.485 57.0235H162.109V60.0955H163.565V58.1595H174.029V59.8555H175.485V57.0235ZM184.973 50.9115C183.181 51.7115 180.845 52.2715 177.949 52.5595L178.429 53.9355C179.421 53.8555 180.413 53.7275 181.373 53.5355V56.8315H177.613V58.3035H181.341C181.149 61.1835 179.949 63.3115 177.773 64.6715L178.925 65.6795C181.341 64.0795 182.653 61.6315 182.877 58.3035H186.845V65.6315H188.365V58.3035H191.933V56.8315H188.365V51.0395H186.845V56.8315H182.909V53.1515C183.853 52.8955 184.781 52.5595 185.709 52.1435L184.973 50.9115Z" fill="#030319"/>
    <rect x="6" y="76" width="195" height="101" fill="white"/>
    <rect width="195" height="15" transform="matrix(1 0 0 -1 6 196)" fill="white"/>
    <path d="M25.1668 88.6951L23.9668 88.9031C24.2548 89.3991 24.5268 89.9431 24.7508 90.5511H18.8948V91.6551H21.8228L22.4948 94.0871H19.2148V97.5591C19.1828 99.7831 18.6868 101.527 17.7588 102.775L18.6388 103.559C19.7428 102.055 20.3188 100.055 20.3828 97.5591V95.1911H31.8708V94.0871H27.9668C28.3028 93.3191 28.5588 92.5031 28.7508 91.6551H31.5348V90.5511H25.9188C25.6788 89.8631 25.4228 89.2391 25.1668 88.6951ZM23.6308 94.0871L22.9588 91.6551H27.6468C27.4868 92.5031 27.2148 93.3191 26.8628 94.0871H23.6308ZM47.9028 91.9911L44.4628 93.0471V88.9031H43.3428V93.3991L41.0068 94.1191V90.5351H39.8868V94.4711L38.5428 94.8871V96.0071L39.8868 95.5911V101.687C39.8868 102.743 40.4148 103.287 41.4868 103.287H46.5428C47.1348 103.287 47.5668 103.127 47.8388 102.823C48.1588 102.471 48.3668 101.495 48.4788 99.8791L47.4068 99.5431C47.3428 100.839 47.2148 101.623 47.0388 101.879C46.9108 102.087 46.6708 102.199 46.3348 102.199H41.8388C41.2788 102.199 41.0068 101.943 41.0068 101.463V95.2551L43.3428 94.5511V100.263H44.4628V94.2151L46.7988 93.5111C46.7828 95.6871 46.7348 96.9511 46.6548 97.2871C46.5588 97.6391 46.2868 97.8151 45.8548 97.8151C45.6628 97.8151 45.4388 97.7991 45.1988 97.7831L45.5188 98.9191H45.6148C46.8148 98.9191 47.5028 98.5671 47.6628 97.8951C47.8228 97.1911 47.9028 95.2231 47.9028 91.9911ZM38.7508 98.7911C38.1428 99.0791 37.5028 99.3511 36.8628 99.5911V94.2791H38.5268V93.1591H36.8628V89.0311H35.7268V93.1591H33.9028V94.2791H35.7268V99.9751C35.0548 100.167 34.3828 100.343 33.7108 100.487L33.9988 101.639C35.6948 101.191 37.2788 100.615 38.7508 99.9271V98.7911ZM53.1348 92.2311C52.8468 92.2311 52.6228 92.3271 52.4308 92.5351C52.2388 92.7111 52.1588 92.9351 52.1588 93.2231C52.1588 93.4951 52.2388 93.7191 52.4308 93.9111C52.6228 94.1031 52.8468 94.1991 53.1348 94.1991C53.4068 94.1991 53.6468 94.1031 53.8388 93.9111C54.0308 93.7191 54.1268 93.4951 54.1268 93.2231C54.1268 92.9351 54.0308 92.7111 53.8388 92.5351C53.6468 92.3271 53.4068 92.2311 53.1348 92.2311ZM53.1348 98.0871C52.8468 98.0871 52.6228 98.1831 52.4308 98.3911C52.2388 98.5671 52.1588 98.7911 52.1588 99.0791C52.1588 99.3511 52.2388 99.5751 52.4308 99.7671C52.6228 99.9591 52.8468 100.055 53.1348 100.055C53.4068 100.055 53.6468 99.9591 53.8388 99.7671C54.0308 99.5751 54.1268 99.3511 54.1268 99.0791C54.1268 98.7911 54.0308 98.5671 53.8388 98.3911C53.6468 98.1831 53.4068 98.0871 53.1348 98.0871Z" fill="#030319"/>
    <path d="M68.276 93.2595C67.844 94.1715 67.172 94.8915 66.26 95.4435L67.088 96.1515C67.976 95.5755 68.684 94.7355 69.224 93.6315L68.276 93.2595ZM70.7 93.1755L69.86 93.7035C70.7 94.5675 71.372 95.3715 71.852 96.0915L72.764 95.4675C72.284 94.8075 71.6 94.0395 70.7 93.1755ZM63.596 91.2915L62.828 92.0355C63.788 92.6835 64.532 93.2955 65.06 93.8715L65.828 93.1035C65.216 92.5035 64.472 91.8915 63.596 91.2915ZM63.308 94.0995L62.552 94.8555C63.452 95.5035 64.16 96.1155 64.664 96.6915L65.42 95.9355C64.844 95.3235 64.148 94.7115 63.308 94.0995ZM64.808 97.4955C64.232 98.9115 63.536 100.304 62.744 101.648L63.8 102.116C64.52 100.796 65.168 99.3795 65.744 97.8675L64.808 97.4955ZM68.108 97.8795C67.508 98.9595 66.584 99.8595 65.336 100.58L65.924 101.54C67.316 100.568 68.324 99.3435 68.948 97.8795H69.068V102.188H70.172V97.8795H70.304C70.82 99.1875 71.684 100.376 72.908 101.432L73.628 100.532C72.476 99.7395 71.648 98.8635 71.12 97.8795H73.22V96.8355H70.172V95.6235H69.068V96.8355H66.044V97.8795H68.108ZM73.04 91.5675H66.212V93.9795H67.28V92.5995H71.96V93.9315H73.04V91.5675ZM74.624 94.2555V95.3595H76.064V99.3435C75.536 99.4875 75.008 99.6195 74.468 99.7155L74.744 100.868C76.148 100.508 77.468 100.052 78.704 99.5235V98.3835C78.2 98.5995 77.696 98.8035 77.18 98.9955V95.3595H78.524V94.2555H77.18V91.2555H76.064V94.2555H74.624ZM81.764 91.9875V101.444H82.808V91.9875H81.764ZM84.14 91.3995V102.236H85.208V91.3995H84.14ZM79.412 91.4355V96.2355C79.388 98.6835 78.848 100.46 77.78 101.564L78.644 102.32C79.844 101.048 80.468 99.0195 80.492 96.2355V91.4355H79.412Z" fill="#030319"/>
    <path d="M63.14 118.432L62.672 123.232H63.896C64.064 122.92 64.292 122.692 64.604 122.548C64.892 122.404 65.216 122.344 65.6 122.344C66.176 122.344 66.608 122.512 66.92 122.848C67.232 123.184 67.388 123.652 67.388 124.252C67.388 124.804 67.208 125.236 66.848 125.572C66.488 125.896 66.044 126.064 65.516 126.064C65.036 126.064 64.652 125.956 64.364 125.74C64.04 125.5 63.848 125.128 63.8 124.648H62.516C62.576 125.44 62.912 126.076 63.524 126.532C64.076 126.952 64.736 127.168 65.504 127.168C66.356 127.168 67.088 126.916 67.7 126.412C68.348 125.848 68.684 125.128 68.684 124.24C68.684 123.316 68.42 122.596 67.916 122.068C67.412 121.54 66.752 121.276 65.948 121.276C65.564 121.276 65.204 121.336 64.892 121.468C64.544 121.588 64.244 121.78 63.98 122.056H63.944L64.196 119.584H68.3V118.432H63.14ZM72.7953 118.264C71.7873 118.264 71.0073 118.684 70.4553 119.536C69.9513 120.316 69.6993 121.372 69.6993 122.716C69.6993 124.048 69.9513 125.104 70.4553 125.896C71.0073 126.736 71.7873 127.168 72.7953 127.168C73.8033 127.168 74.5833 126.736 75.1353 125.896C75.6393 125.104 75.8913 124.036 75.8913 122.716C75.8913 121.384 75.6393 120.328 75.1353 119.536C74.5833 118.684 73.8033 118.264 72.7953 118.264ZM72.7953 119.368C73.4913 119.368 73.9953 119.752 74.2833 120.532C74.4873 121.06 74.5953 121.792 74.5953 122.716C74.5953 123.628 74.4873 124.36 74.2833 124.9C73.9953 125.668 73.4913 126.064 72.7953 126.064C72.0873 126.064 71.5953 125.668 71.3073 124.9C71.0913 124.36 70.9953 123.628 70.9953 122.716C70.9953 121.792 71.0913 121.06 71.3073 120.532C71.5953 119.752 72.0873 119.368 72.7953 119.368ZM79.9906 118.264C78.9826 118.264 78.2026 118.684 77.6506 119.536C77.1466 120.316 76.8946 121.372 76.8946 122.716C76.8946 124.048 77.1466 125.104 77.6506 125.896C78.2026 126.736 78.9826 127.168 79.9906 127.168C80.9986 127.168 81.7786 126.736 82.3306 125.896C82.8346 125.104 83.0866 124.036 83.0866 122.716C83.0866 121.384 82.8346 120.328 82.3306 119.536C81.7786 118.684 80.9986 118.264 79.9906 118.264ZM79.9906 119.368C80.6866 119.368 81.1906 119.752 81.4786 120.532C81.6826 121.06 81.7906 121.792 81.7906 122.716C81.7906 123.628 81.6826 124.36 81.4786 124.9C81.1906 125.668 80.6866 126.064 79.9906 126.064C79.2826 126.064 78.7906 125.668 78.5026 124.9C78.2866 124.36 78.1906 123.628 78.1906 122.716C78.1906 121.792 78.2866 121.06 78.5026 120.532C78.7906 119.752 79.2826 119.368 79.9906 119.368ZM84.4259 118.432V127H85.7339V120.88H85.7819L88.4099 127H89.5379L92.1659 120.88H92.2139V127H93.5219V118.432H91.9739L88.9979 125.296H88.9619L85.9739 118.432H84.4259ZM95.2072 118.432V127H101.219V125.884H96.5032V118.432H95.2072Z" fill="#030319"/>
    <path d="M17.57 184.98V185.67H21.63V186.98H18.51V191.59H19.22V187.67H21.63V192.98H22.37V187.67H24.9V190.45C24.9 190.73 24.76 190.87 24.48 190.87L23.53 190.83L23.71 191.52H24.71C25.31 191.52 25.62 191.21 25.62 190.61V186.98H22.37V185.67H26.43V184.98H22.34C22.18 184.52 22.02 184.1 21.86 183.73L21.09 183.85C21.27 184.19 21.45 184.56 21.61 184.98H17.57ZM32.02 183.82C31.74 185.32 31.28 186.47 30.64 187.27L31.17 187.72C31.51 187.3 31.81 186.78 32.08 186.14H32.77C32.39 188.06 31.69 189.47 30.66 190.35L31.13 190.89C32.25 189.9 33.01 188.32 33.41 186.14H34.19C34 187.66 33.71 188.89 33.32 189.82C32.9 190.74 32.28 191.58 31.44 192.34L31.88 192.91C32.79 192.08 33.47 191.14 33.93 190.1C34.32 189.13 34.62 187.81 34.84 186.14H35.52C35.5 189.04 35.46 190.78 35.39 191.34C35.3 191.98 34.95 192.3 34.34 192.3C34.11 192.3 33.84 192.28 33.52 192.26L33.69 192.91C34.05 192.93 34.3 192.94 34.44 192.94C35.41 192.94 35.95 192.5 36.06 191.62C36.16 190.84 36.21 188.78 36.21 185.44H32.33C32.47 185 32.59 184.52 32.7 184L32.02 183.82ZM28.4 186.62H29.22V189.32C28.66 189.54 28.08 189.72 27.48 189.86L27.65 190.56C28.19 190.39 28.71 190.2 29.22 190V193H29.92V189.7C30.19 189.57 30.46 189.44 30.72 189.3V188.62C30.46 188.76 30.2 188.89 29.92 189.02V186.62H30.76V185.92H29.92V183.84H29.22V185.92H28.52C28.58 185.49 28.62 185.05 28.64 184.61L28.01 184.56C27.96 185.73 27.75 186.84 27.37 187.9L28 188.08C28.16 187.61 28.29 187.12 28.4 186.62ZM38.67 187.3V192.97H39.41V186.06C39.72 185.45 39.98 184.81 40.19 184.14L39.51 183.83C39.07 185.35 38.35 186.7 37.37 187.88L37.61 188.64C37.99 188.22 38.35 187.77 38.67 187.3ZM44.08 187.33V192.91H44.78V187.33H44.08ZM41.51 187.36V188.87C41.49 190.56 41.05 191.79 40.19 192.55L40.73 193.02C41.69 192.14 42.18 190.76 42.2 188.87V187.36H41.51ZM42.78 183.88C42.06 185.37 41.03 186.58 39.69 187.51L40.09 188.12C41.3 187.28 42.3 186.1 43.1 184.57C43.79 185.93 44.84 187.08 46.24 188.01L46.65 187.4C45.13 186.39 44.05 185.22 43.43 183.88H42.78ZM50.3 189.08V191.6H53.83V189.08H50.3ZM53.18 190.99H50.95V189.68H53.18V190.99ZM54.85 184.9V186H49.37V184.9H54.85ZM49.37 186.65H55.55V184.22H48.67V188.14C48.66 189.9 48.25 191.34 47.43 192.45L47.99 192.95C48.89 191.62 49.35 190.03 49.37 188.18H55.34C55.32 190.23 55.29 191.45 55.23 191.85C55.16 192.17 54.94 192.33 54.58 192.33C54.2 192.33 53.75 192.32 53.22 192.3L53.38 192.91C53.99 192.93 54.42 192.94 54.67 192.94C55.39 192.94 55.8 192.66 55.89 192.11C55.99 191.53 56.04 190 56.04 187.53H49.37V186.65ZM63.04 185.72H66.26V185.02H63.28C63.38 184.66 63.47 184.29 63.55 183.89L62.81 183.75C62.56 185.19 62.08 186.33 61.37 187.18L61.83 187.74C62.32 187.2 62.72 186.52 63.04 185.72ZM64.09 186.4L63.51 186.76C64.02 187.43 64.42 188.04 64.72 188.59L65.32 188.18C65.04 187.67 64.63 187.08 64.09 186.4ZM60.22 183.8V188.74H60.95V183.8H60.22ZM58.15 184.29V188.37H58.86V184.29H58.15ZM65.44 189.24H58.58V192.02H57.46V192.67H66.51V192.02H65.44V189.24ZM59.27 192.02V189.9H60.6V192.02H59.27ZM61.29 192.02V189.9H62.69V192.02H61.29ZM63.38 192.02V189.9H64.75V192.02H63.38ZM68.56 185.77H69.96V187.06H67.54V187.73H69.96V188.78H67.99V192.38H68.69V189.45H69.96V193.01H70.68V189.45H71.94V191.27C71.94 191.53 71.79 191.66 71.51 191.66L71.02 191.63L71.2 192.31H71.73C72.33 192.31 72.63 192.01 72.63 191.42V188.78H70.68V187.73H72.84V187.06H70.68V185.77H72.55V185.1H70.68V183.86H69.96V185.1H68.8C68.88 184.83 68.94 184.54 68.99 184.22L68.31 184.11C68.17 185.06 67.85 185.8 67.35 186.34L67.93 186.76C68.17 186.5 68.38 186.17 68.56 185.77ZM73.43 184.76V190.94H74.13V184.76H73.43ZM75.26 192.91C75.87 192.91 76.18 192.59 76.18 191.97V183.86H75.47V191.79C75.47 192.11 75.31 192.27 75.01 192.27C74.57 192.27 74.11 192.25 73.63 192.22L73.79 192.91H75.26Z" fill="#030319"/>
    <path d="M96.04 185.72H99.26V185.02H96.28C96.38 184.66 96.47 184.29 96.55 183.89L95.81 183.75C95.56 185.19 95.08 186.33 94.37 187.18L94.83 187.74C95.32 187.2 95.72 186.52 96.04 185.72ZM97.09 186.4L96.51 186.76C97.02 187.43 97.42 188.04 97.72 188.59L98.32 188.18C98.04 187.67 97.63 187.08 97.09 186.4ZM93.22 183.8V188.74H93.95V183.8H93.22ZM91.15 184.29V188.37H91.86V184.29H91.15ZM98.44 189.24H91.58V192.02H90.46V192.67H99.51V192.02H98.44V189.24ZM92.27 192.02V189.9H93.6V192.02H92.27ZM94.29 192.02V189.9H95.69V192.02H94.29ZM96.38 192.02V189.9H97.75V192.02H96.38ZM102.4 183.83V185.51H100.69V186.11H102.54V188.23H103.2V186.11H105.11V185.51H103.05V184.88H104.78V184.32H103.05V183.83H102.4ZM108.14 188.49H101.95V193.03H102.64V192.61H107.44V193.02H108.14V188.49ZM102.64 192.05V191.41H107.44V192.05H102.64ZM102.64 190.89V190.22H107.44V190.89H102.64ZM102.64 189.7V189.05H107.44V189.7H102.64ZM104.25 186.43L103.69 186.61C103.95 187.04 104.19 187.53 104.41 188.08L104.93 187.84C104.74 187.34 104.51 186.87 104.25 186.43ZM105.7 185.08C105.87 185.78 106.22 186.39 106.75 186.93C106.32 187.23 105.8 187.48 105.19 187.68L105.5 188.28C106.17 188.04 106.76 187.73 107.26 187.37C107.76 187.75 108.39 188.07 109.14 188.34L109.46 187.75C108.78 187.51 108.22 187.24 107.77 186.94C108.31 186.41 108.71 185.78 108.96 185.05V184.45H105.24V185.08H105.7ZM107.24 186.54C106.76 186.1 106.46 185.62 106.34 185.08H108.23C108.02 185.63 107.69 186.12 107.24 186.54ZM101.5 186.42C101.3 187.02 101 187.56 100.6 188.05L101.12 188.38C101.54 187.86 101.86 187.25 102.1 186.54L101.5 186.42ZM112.01 188.03H114.47V189.53H112.01V188.03ZM114.47 190.2V191.54C114.47 192.41 114.87 192.85 115.69 192.85H118.26C118.73 192.85 119.05 192.76 119.23 192.59C119.41 192.41 119.52 191.89 119.58 191.04L118.9 190.81C118.86 191.49 118.79 191.88 118.69 192C118.57 192.11 118.39 192.17 118.14 192.17H115.86C115.42 192.17 115.2 191.92 115.2 191.43V190.2H118.44V185.22H115.2V183.85H114.47V185.22H111.29V191.05H112.01V190.2H114.47ZM115.2 189.53V188.03H117.73V189.53H115.2ZM117.73 187.37H115.2V185.9H117.73V187.37ZM114.47 185.9V187.37H112.01V185.9H114.47ZM123.6 186.75V187.45H126.34V189.06H124.47V192.97H125.18V192.47H128.25V192.97H128.97V189.06H127.07V187.45H129.65V186.75H127.07V185.08C127.91 184.96 128.66 184.78 129.3 184.55L128.95 183.94C127.59 184.4 125.87 184.63 123.8 184.63L124.01 185.28C124.84 185.28 125.62 185.24 126.34 185.17V186.75H123.6ZM125.18 191.79V189.71H128.25V191.79H125.18ZM121.62 183.93L121.12 184.42C121.84 184.96 122.42 185.48 122.84 185.97L123.33 185.47C122.87 184.95 122.3 184.44 121.62 183.93ZM120.42 186.89V187.58H121.89V191.58C121.89 191.73 121.81 191.87 121.67 192L121.95 192.64C122.64 192.19 123.29 191.68 123.89 191.1L123.7 190.34C123.3 190.73 122.92 191.07 122.58 191.35V186.89H120.42ZM132.5 185.91C132.32 185.91 132.18 185.97 132.06 186.1C131.94 186.21 131.89 186.35 131.89 186.53C131.89 186.7 131.94 186.84 132.06 186.96C132.18 187.08 132.32 187.14 132.5 187.14C132.67 187.14 132.82 187.08 132.94 186.96C133.06 186.84 133.12 186.7 133.12 186.53C133.12 186.35 133.06 186.21 132.94 186.1C132.82 185.97 132.67 185.91 132.5 185.91ZM132.5 189.57C132.32 189.57 132.18 189.63 132.06 189.76C131.94 189.87 131.89 190.01 131.89 190.19C131.89 190.36 131.94 190.5 132.06 190.62C132.18 190.74 132.32 190.8 132.5 190.8C132.67 190.8 132.82 190.74 132.94 190.62C133.06 190.5 133.12 190.36 133.12 190.19C133.12 190.01 133.06 189.87 132.94 189.76C132.82 189.63 132.67 189.57 132.5 189.57ZM142.3 184.86C142.06 185.13 141.78 185.37 141.44 185.59C141.1 185.79 140.76 185.93 140.44 186.02V186.84C141.11 186.64 141.67 186.32 142.12 185.86V192H142.94V184.86H142.3ZM147.114 184.72C146.394 184.72 145.804 184.96 145.364 185.44C144.924 185.91 144.694 186.55 144.694 187.35H145.514C145.524 186.72 145.674 186.24 145.954 185.92C146.214 185.58 146.594 185.42 147.084 185.42C147.544 185.42 147.914 185.54 148.174 185.78C148.434 186.02 148.564 186.35 148.564 186.79C148.564 187.25 148.374 187.68 148.014 188.07C147.824 188.27 147.454 188.56 146.894 188.96C146.134 189.48 145.624 189.91 145.344 190.23C144.864 190.76 144.634 191.35 144.634 192H149.394V191.27H145.644C145.774 190.79 146.294 190.24 147.204 189.63C147.944 189.13 148.434 188.74 148.684 188.48C149.144 187.98 149.384 187.42 149.384 186.8C149.384 186.18 149.164 185.67 148.744 185.29C148.314 184.91 147.774 184.72 147.114 184.72ZM153.08 184.72C152.4 184.72 151.85 184.91 151.43 185.3C150.99 185.69 150.73 186.23 150.67 186.92H151.48C151.53 186.44 151.69 186.07 151.97 185.81C152.24 185.55 152.61 185.43 153.09 185.43C153.55 185.43 153.92 185.54 154.18 185.78C154.42 186 154.55 186.31 154.55 186.71C154.55 187.11 154.42 187.42 154.17 187.64C153.92 187.85 153.56 187.96 153.08 187.96H152.53V188.6H153.11C153.61 188.6 153.99 188.71 154.27 188.95C154.55 189.19 154.69 189.52 154.69 189.95C154.69 190.37 154.54 190.72 154.26 191C153.95 191.29 153.54 191.44 153.03 191.44C152.58 191.44 152.21 191.31 151.91 191.07C151.56 190.78 151.37 190.35 151.35 189.79H150.52C150.58 190.59 150.86 191.2 151.37 191.62C151.8 191.96 152.35 192.14 153.03 192.14C153.77 192.14 154.37 191.93 154.83 191.51C155.28 191.1 155.51 190.57 155.51 189.92C155.51 189.5 155.39 189.15 155.15 188.87C154.93 188.59 154.61 188.39 154.19 188.26C154.97 188 155.36 187.46 155.36 186.66C155.36 186.06 155.15 185.59 154.74 185.24C154.32 184.89 153.76 184.72 153.08 184.72ZM157.056 184.86L156.676 188.8H157.456C157.596 188.52 157.816 188.3 158.096 188.16C158.366 188.01 158.666 187.94 159.006 187.94C159.526 187.94 159.936 188.09 160.226 188.41C160.526 188.72 160.686 189.16 160.686 189.73C160.686 190.23 160.516 190.64 160.196 190.96C159.866 191.28 159.456 191.44 158.956 191.44C158.516 191.44 158.146 191.33 157.866 191.12C157.546 190.88 157.366 190.53 157.326 190.08H156.516C156.566 190.73 156.836 191.25 157.336 191.63C157.776 191.97 158.316 192.14 158.946 192.14C159.646 192.14 160.246 191.92 160.726 191.49C161.236 191.03 161.496 190.44 161.496 189.72C161.496 188.95 161.276 188.35 160.856 187.91C160.436 187.48 159.886 187.27 159.206 187.27C158.876 187.27 158.576 187.32 158.296 187.44C157.986 187.56 157.726 187.74 157.526 187.98H157.486L157.726 185.59H161.206V184.86H157.056ZM165.002 184.72C164.252 184.72 163.672 184.91 163.252 185.3C162.862 185.65 162.672 186.09 162.672 186.61C162.672 186.99 162.762 187.31 162.942 187.57C163.132 187.85 163.412 188.06 163.792 188.19V188.21C163.412 188.3 163.102 188.51 162.842 188.83C162.562 189.17 162.422 189.57 162.422 190.03C162.422 190.66 162.642 191.17 163.082 191.55C163.532 191.94 164.172 192.14 165.002 192.14C165.822 192.14 166.462 191.94 166.922 191.55C167.362 191.17 167.582 190.66 167.582 190.03C167.582 189.57 167.442 189.17 167.162 188.83C166.902 188.51 166.582 188.3 166.212 188.21V188.19C166.582 188.06 166.862 187.85 167.062 187.57C167.242 187.31 167.332 186.99 167.332 186.61C167.332 186.09 167.132 185.65 166.752 185.3C166.332 184.91 165.742 184.72 165.002 184.72ZM165.002 185.39C165.502 185.39 165.902 185.52 166.192 185.78C166.432 186 166.562 186.29 166.562 186.64C166.562 187 166.452 187.3 166.232 187.52C165.962 187.78 165.552 187.92 165.002 187.92C164.442 187.92 164.032 187.78 163.772 187.52C163.552 187.3 163.442 187 163.442 186.64C163.442 186.29 163.562 186 163.812 185.78C164.092 185.52 164.492 185.39 165.002 185.39ZM165.002 188.56C165.572 188.56 166.022 188.7 166.342 188.99C166.622 189.25 166.772 189.6 166.772 190.03C166.772 190.45 166.622 190.79 166.342 191.05C166.022 191.33 165.582 191.47 165.002 191.47C164.422 191.47 163.972 191.33 163.672 191.06C163.372 190.8 163.232 190.45 163.232 190.03C163.232 189.6 163.372 189.25 163.672 188.99C163.982 188.7 164.422 188.56 165.002 188.56Z" fill="#030319"/>
    <path d="M153.564 121.032V122.16H164.424V121.032H153.564ZM169.176 124.536C168.108 124.944 166.86 125.28 165.444 125.52L165.588 126.624C166.932 126.372 168.12 126.036 169.176 125.616V124.536ZM167.568 116.124C167.112 117.396 166.572 118.56 165.96 119.616C165.816 119.82 165.66 119.952 165.48 120.024L165.768 121.068C166.392 120.996 167.004 120.912 167.604 120.828C167.016 121.74 166.524 122.376 166.14 122.748C165.996 122.892 165.828 123 165.624 123.072L165.924 124.104C167.1 123.96 168.336 123.696 169.632 123.312V122.28C168.84 122.52 168.072 122.724 167.316 122.868C168.012 122.04 168.888 120.72 169.932 118.92L168.936 118.548C168.696 118.992 168.456 119.412 168.228 119.796C167.772 119.868 167.304 119.916 166.836 119.964C167.46 119.088 168.06 117.948 168.66 116.556L167.568 116.124ZM170.856 117.636V118.152C170.832 121.968 170.064 124.728 168.564 126.456L169.416 127.2C170.544 125.904 171.3 124.08 171.684 121.752C172.02 122.76 172.488 123.684 173.076 124.524C172.428 125.196 171.624 125.76 170.664 126.216L171.3 127.26C172.284 126.804 173.136 126.204 173.844 125.472C174.42 126.12 175.104 126.708 175.896 127.236L176.628 126.276C175.836 125.796 175.14 125.244 174.54 124.632C175.332 123.528 175.86 122.148 176.124 120.516V119.88H174.636C174.816 119.148 174.996 118.284 175.188 117.276V116.568H169.764V117.636H170.856ZM173.748 123.732C172.836 122.544 172.224 121.164 171.912 119.592C171.936 119.136 171.96 118.656 171.96 118.152V117.636H174.024C173.76 119.052 173.532 120.132 173.328 120.876H174.984C174.756 121.944 174.348 122.892 173.748 123.732Z" fill="#030319"/>
    <path d="M154.884 91.1835L153.96 91.6275C154.272 92.1315 154.56 92.6955 154.836 93.3315H153.768V94.3755H154.524V96.6195H153.564V97.6755H154.488C154.392 99.2955 154.068 100.508 153.516 101.324L154.368 102.068C155.076 101.108 155.484 99.6435 155.592 97.6755H156.624V102.152H157.716V97.6755H158.628V96.6195H157.716V94.3755H158.592V93.3315H157.584C157.872 92.7915 158.136 92.1915 158.376 91.5195L157.296 91.1355C157.056 91.9155 156.768 92.6475 156.444 93.3315H155.16L155.856 92.9835C155.544 92.3235 155.22 91.7235 154.884 91.1835ZM155.628 94.3755H156.624V96.6195H155.628V94.3755ZM158.652 91.5555V92.6595H159.516C159.24 96.0435 158.964 98.7075 158.676 100.652C158.604 100.856 158.448 100.976 158.232 101.024L158.592 102.08C159.912 101.768 160.98 101.432 161.772 101.084L161.532 100.04C160.848 100.352 160.248 100.58 159.744 100.748C159.9 99.7155 160.056 98.4795 160.212 97.0395C160.632 97.7835 160.968 98.4555 161.22 99.0555L162.096 98.4675L161.94 100.916C161.94 101.636 162.204 102.008 162.756 102.008H163.584C163.98 102.008 164.232 101.84 164.352 101.528C164.472 101.216 164.58 100.364 164.7 98.9955L163.788 98.6355C163.728 99.8595 163.68 100.556 163.632 100.736C163.584 100.928 163.488 101.024 163.344 101.024H163.152C163.044 101.024 162.996 100.94 162.996 100.784L163.428 94.0035H160.512C160.536 93.5715 160.572 93.1275 160.62 92.6595H164.196V91.5555H158.652ZM162.096 98.4315C161.832 97.8555 161.46 97.1835 160.98 96.4155L160.236 96.8715L160.416 95.0595H162.3L162.096 98.4315Z" fill="#030319"/>
    <path d="M111.4 91.3991V97.9751H116.408V99.4951H109.88V100.583H116.408V103.623H117.56V100.583H124.088V99.4951H117.56V97.9751H122.568V91.3991H119.496C119.976 90.7431 120.408 90.0071 120.792 89.1911L119.672 88.7911C119.272 89.7191 118.808 90.5991 118.296 91.3991H111.4ZM121.448 96.9511H117.56V95.1591H121.448V96.9511ZM116.408 96.9511H112.52V95.1591H116.408V96.9511ZM112.52 94.1671V92.4071H116.408V94.1671H112.52ZM117.56 92.4071H121.448V94.1671H117.56V92.4071ZM114.232 88.8711L113.256 89.3351C113.8 89.9431 114.296 90.6151 114.776 91.3831L115.736 90.9031C115.256 90.1671 114.76 89.4791 114.232 88.8711ZM129.288 88.8071C128.504 91.2871 127.256 93.4791 125.56 95.3991L125.928 96.6311C126.552 95.9751 127.128 95.2871 127.656 94.5831V103.607H128.808V92.8231C129.432 91.7191 129.944 90.5511 130.36 89.3031L129.288 88.8071ZM130.28 91.4791V92.5831H139.912V91.4791H135.736C135.512 90.5191 135.272 89.6711 135.016 88.9351L133.8 89.1431C134.088 89.8471 134.36 90.6311 134.584 91.4791H130.28ZM130.008 101.687V102.823H140.328V101.687H136.696C137.496 99.4311 138.184 96.8391 138.744 93.9111L137.64 93.6231C137.032 96.8551 136.328 99.5431 135.512 101.687H130.008ZM132.248 93.7991L131.192 94.1191C131.864 96.3911 132.424 98.7431 132.856 101.175L133.928 100.887C133.432 98.2311 132.872 95.8631 132.248 93.7991ZM144.984 92.2311C144.696 92.2311 144.472 92.3271 144.28 92.5351C144.088 92.7111 144.008 92.9351 144.008 93.2231C144.008 93.4951 144.088 93.7191 144.28 93.9111C144.472 94.1031 144.696 94.1991 144.984 94.1991C145.256 94.1991 145.496 94.1031 145.688 93.9111C145.88 93.7191 145.976 93.4951 145.976 93.2231C145.976 92.9351 145.88 92.7111 145.688 92.5351C145.496 92.3271 145.256 92.2311 144.984 92.2311ZM144.984 98.0871C144.696 98.0871 144.472 98.1831 144.28 98.3911C144.088 98.5671 144.008 98.7911 144.008 99.0791C144.008 99.3511 144.088 99.5751 144.28 99.7671C144.472 99.9591 144.696 100.055 144.984 100.055C145.256 100.055 145.496 99.9591 145.688 99.7671C145.88 99.5751 145.976 99.3511 145.976 99.0791C145.976 98.7911 145.88 98.5671 145.688 98.3911C145.496 98.1831 145.256 98.0871 144.984 98.0871Z" fill="#030319"/>
    <path d="M111.64 118.989V119.997H116.408V121.549H109.864V122.557H119.848V124.093H110.808V125.101H119.848V127.341C119.848 127.725 119.624 127.933 119.176 127.933C118.504 127.933 117.784 127.901 117.016 127.853L117.256 128.941H119.576C120.52 128.941 121 128.493 121 127.613V125.101H123.4V124.093H121V122.557H124.088V121.549H117.56V119.997H122.264V118.989H117.56V117.981H116.408V118.989H111.64ZM113.512 125.549L112.584 126.125C113.416 126.957 114.088 127.709 114.584 128.397L115.48 127.773C115.032 127.133 114.376 126.381 113.512 125.549ZM112.216 116.413H112.856C113.304 117.037 113.704 117.677 114.024 118.349L115.064 117.965C114.808 117.485 114.472 116.973 114.056 116.413H116.76V115.437H112.664C112.792 115.117 112.904 114.781 113.032 114.429L111.944 114.189C111.512 115.501 110.824 116.717 109.896 117.821L110.888 118.445C111.384 117.837 111.832 117.149 112.216 116.413ZM118.712 116.365H119.656C120.136 116.989 120.536 117.629 120.872 118.301L121.864 117.933C121.624 117.453 121.288 116.925 120.856 116.365H123.752V115.389H119.144C119.256 115.069 119.368 114.733 119.464 114.397L118.376 114.173C118.056 115.293 117.56 116.301 116.856 117.229L117.816 117.837C118.136 117.389 118.44 116.909 118.712 116.365ZM130.552 125.565C129.144 126.125 127.496 126.573 125.624 126.909L125.768 128.029C127.56 127.693 129.144 127.229 130.552 126.653V125.565ZM128.6 114.253C127.928 116.077 127.128 117.709 126.216 119.133C126.072 119.341 125.912 119.485 125.736 119.549L126.024 120.605C126.952 120.493 127.88 120.365 128.808 120.221C127.912 121.661 127.144 122.669 126.504 123.277C126.36 123.405 126.184 123.517 125.976 123.597L126.28 124.637C127.832 124.445 129.464 124.109 131.16 123.597V122.557C130.008 122.909 128.84 123.197 127.688 123.405C128.68 122.301 129.912 120.445 131.416 117.853L130.408 117.485C130.072 118.077 129.752 118.637 129.448 119.181C128.68 119.309 127.912 119.405 127.144 119.485C128.008 118.301 128.856 116.701 129.688 114.685L128.6 114.253ZM132.968 116.013V116.877C132.936 122.045 131.88 125.789 129.8 128.125L130.648 128.877C132.264 127.053 133.32 124.445 133.8 121.069C134.296 122.701 135.032 124.173 135.992 125.469C135.08 126.429 133.944 127.245 132.6 127.901L133.24 128.957C134.616 128.285 135.8 127.453 136.76 126.429C137.56 127.357 138.536 128.189 139.656 128.925L140.376 127.965C139.256 127.261 138.28 126.477 137.448 125.581C138.6 124.061 139.336 122.189 139.672 119.981V119.341H137.64C137.896 118.317 138.152 117.085 138.408 115.645V114.925H131.384V116.013H132.968ZM136.664 124.669C135.32 122.957 134.44 120.925 134.04 118.589C134.072 118.045 134.088 117.469 134.088 116.877V116.013H137.224C136.888 117.917 136.584 119.357 136.296 120.349H138.52C138.2 121.997 137.592 123.437 136.664 124.669ZM144.984 117.597C144.696 117.597 144.472 117.693 144.28 117.901C144.088 118.077 144.008 118.301 144.008 118.589C144.008 118.861 144.088 119.085 144.28 119.277C144.472 119.469 144.696 119.565 144.984 119.565C145.256 119.565 145.496 119.469 145.688 119.277C145.88 119.085 145.976 118.861 145.976 118.589C145.976 118.301 145.88 118.077 145.688 117.901C145.496 117.693 145.256 117.597 144.984 117.597ZM144.984 123.453C144.696 123.453 144.472 123.549 144.28 123.757C144.088 123.933 144.008 124.157 144.008 124.445C144.008 124.717 144.088 124.941 144.28 125.133C144.472 125.325 144.696 125.421 144.984 125.421C145.256 125.421 145.496 125.325 145.688 125.133C145.88 124.941 145.976 124.717 145.976 124.445C145.976 124.157 145.88 123.933 145.688 123.757C145.496 123.549 145.256 123.453 144.984 123.453Z" fill="#030319"/>
    <path d="M18.2708 116.589V117.693H20.5588V120.333H18.0468V121.453H20.4948C20.2708 124.477 19.3908 126.733 17.8388 128.237L18.6868 128.989C19.9988 127.725 20.8788 125.965 21.3428 123.709C21.9668 124.397 22.7348 125.341 23.6308 126.557L24.2708 125.565C23.3428 124.477 22.4148 123.501 21.5188 122.653C21.5668 122.269 21.6148 121.869 21.6468 121.453H24.0628V120.333H21.7108V117.693H23.8388V116.589H21.7108V114.397H20.5588V116.589H18.2708ZM31.2628 114.941H24.7828V123.725H25.8868V116.013H30.1588V123.725H31.2628V114.941ZM30.8308 128.733C31.3428 128.733 31.7108 128.605 31.9668 128.365C32.2228 128.077 32.4148 127.277 32.5108 125.965L31.5188 125.645C31.4548 126.637 31.3588 127.245 31.2148 127.453C31.1028 127.613 30.9108 127.693 30.6388 127.693H29.8228C29.4708 127.693 29.3108 127.517 29.3108 127.165V123.805H28.2708V127.405C28.2708 128.285 28.6708 128.733 29.5028 128.733H30.8308ZM27.5028 117.341V120.173C27.4548 122.189 27.1028 123.837 26.4468 125.101C25.7428 126.317 24.5108 127.293 22.7508 128.013L23.3588 128.989C25.1508 128.237 26.4628 127.197 27.2628 125.885C28.0788 124.461 28.5108 122.557 28.5428 120.173V117.341H27.5028ZM37.2948 120.669C37.6788 121.229 38.1588 121.965 38.7188 122.893L38.9588 122.525L39.3908 123.101C41.1348 122.429 42.6228 121.629 43.8388 120.685C44.9588 121.565 46.3348 122.349 47.9988 123.053L48.5108 121.981C47.0068 121.421 45.7108 120.765 44.6388 120.013C45.7268 119.005 46.5748 117.869 47.1508 116.589V115.693H42.6388C42.8308 115.309 43.0068 114.909 43.1668 114.493L42.0628 114.253C41.3268 116.029 40.3828 117.469 39.2148 118.573L39.9508 119.453C40.4148 118.989 40.8628 118.477 41.2788 117.933C41.7268 118.637 42.3028 119.309 42.9908 119.965C41.9668 120.717 40.7348 121.373 39.3268 121.949L39.3428 121.933C38.6548 120.989 37.9668 120.141 37.2948 119.373V118.509H39.0388V117.405H37.2948V114.285H36.1588V117.405H34.0308V118.509H36.1428C35.6468 120.477 34.8308 122.221 33.7108 123.757L34.2068 125.005C35.0068 123.757 35.6628 122.365 36.1588 120.845V128.877H37.2948V120.669ZM47.1188 122.941H40.3508V128.909H41.4708V128.205H45.9988V128.909H47.1188V122.941ZM41.4708 127.133V124.013H45.9988V127.133H41.4708ZM43.7748 119.341C42.9908 118.669 42.3508 117.917 41.8548 117.101C41.9188 117.005 41.9668 116.893 42.0308 116.797H45.8868C45.3588 117.725 44.6548 118.573 43.7748 119.341ZM53.1348 117.597C52.8468 117.597 52.6228 117.693 52.4308 117.901C52.2388 118.077 52.1588 118.301 52.1588 118.589C52.1588 118.861 52.2388 119.085 52.4308 119.277C52.6228 119.469 52.8468 119.565 53.1348 119.565C53.4068 119.565 53.6468 119.469 53.8388 119.277C54.0308 119.085 54.1268 118.861 54.1268 118.589C54.1268 118.301 54.0308 118.077 53.8388 117.901C53.6468 117.693 53.4068 117.597 53.1348 117.597ZM53.1348 123.453C52.8468 123.453 52.6228 123.549 52.4308 123.757C52.2388 123.933 52.1588 124.157 52.1588 124.445C52.1588 124.717 52.2388 124.941 52.4308 125.133C52.6228 125.325 52.8468 125.421 53.1348 125.421C53.4068 125.421 53.6468 125.325 53.8388 125.133C54.0308 124.941 54.1268 124.717 54.1268 124.445C54.1268 124.157 54.0308 123.933 53.8388 123.757C53.6468 123.549 53.4068 123.453 53.1348 123.453Z" fill="#030319"/>
    <path d="M19.1348 148.147V149.251H24.5908V152.515C24.5908 152.995 24.3508 153.235 23.8868 153.235C23.3748 153.235 22.8148 153.203 22.2388 153.155L22.4948 154.259H24.2868C25.2788 154.259 25.7748 153.763 25.7748 152.803V149.251H31.0868V148.147H25.7748V146.579H24.5908V148.147H19.1348ZM21.7748 150.243C20.8148 151.283 19.6148 152.179 18.1908 152.947L18.9268 153.923C20.3668 153.075 21.5828 152.083 22.5748 150.947L21.7748 150.243ZM30.9748 153.891L31.8068 153.043C30.4148 151.763 29.1988 150.803 28.1748 150.163L27.4228 150.867C28.6228 151.731 29.8068 152.739 30.9748 153.891ZM22.9908 139.459C21.8868 141.155 20.4948 142.547 18.7988 143.603L19.5348 144.483C20.2708 144.003 20.9748 143.443 21.6308 142.819C22.3188 143.507 23.1188 144.131 24.0468 144.691C22.2868 145.491 20.2228 146.051 17.8548 146.387L18.3508 147.427C20.9748 146.995 23.2308 146.291 25.1508 145.299C27.0068 146.211 29.2468 146.867 31.9028 147.251L32.4308 146.179C30.0628 145.875 28.0148 145.363 26.2868 144.643C27.5828 143.827 28.6868 142.867 29.5988 141.747V140.851H23.3588C23.6148 140.499 23.8548 140.115 24.1108 139.715L22.9908 139.459ZM22.3348 142.115L22.5428 141.875H28.1588C27.3108 142.723 26.3188 143.475 25.1668 144.131C24.0468 143.555 23.1028 142.883 22.3348 142.115ZM39.1828 145.251H36.2388C36.6548 144.131 36.9588 142.931 37.1828 141.651H39.5988V140.531H34.1428V141.651H36.0948C35.7108 144.035 34.9108 146.163 33.6948 148.019L34.2708 148.947C34.6548 148.403 35.0068 147.843 35.3268 147.267V153.779H36.3988V152.563H38.1268V153.475H39.1828V145.251ZM36.3988 151.523V146.307H38.1268V151.523H36.3988ZM41.3428 142.515L40.4788 147.699H46.9428C46.9428 150.259 46.8148 151.811 46.5588 152.355C46.3188 152.867 45.5828 153.139 44.3508 153.139C44.0628 153.139 43.5668 153.107 42.8628 153.043L43.1828 154.163C43.6948 154.195 44.1748 154.211 44.6228 154.211C46.0308 154.211 46.9428 153.907 47.3908 153.331C47.8068 152.723 48.0308 150.499 48.0308 146.627H46.3348L47.2148 140.307H40.3348V141.395H45.9668L45.1668 146.627H41.7748L42.4788 142.595L41.3428 142.515ZM39.9828 149.731V150.819H45.8388V149.731H39.9828ZM53.1348 142.963C52.8468 142.963 52.6228 143.059 52.4308 143.267C52.2388 143.443 52.1588 143.667 52.1588 143.955C52.1588 144.227 52.2388 144.451 52.4308 144.643C52.6228 144.835 52.8468 144.931 53.1348 144.931C53.4068 144.931 53.6468 144.835 53.8388 144.643C54.0308 144.451 54.1268 144.227 54.1268 143.955C54.1268 143.667 54.0308 143.443 53.8388 143.267C53.6468 143.059 53.4068 142.963 53.1348 142.963ZM53.1348 148.819C52.8468 148.819 52.6228 148.915 52.4308 149.123C52.2388 149.299 52.1588 149.523 52.1588 149.811C52.1588 150.083 52.2388 150.307 52.4308 150.499C52.6228 150.691 52.8468 150.787 53.1348 150.787C53.4068 150.787 53.6468 150.691 53.8388 150.499C54.0308 150.307 54.1268 150.083 54.1268 149.811C54.1268 149.523 54.0308 149.299 53.8388 149.123C53.6468 148.915 53.4068 148.819 53.1348 148.819Z" fill="#030319"/>
    <rect x="205" y="75.9995" width="131" height="120" fill="#FFF012"/>
    <path d="M218.424 96.7835L217.544 97.5835C218.008 97.8555 218.456 98.1755 218.904 98.5275H214.424V99.7755H221.288C220.584 100.32 219.816 100.816 218.984 101.248C218.072 100.928 217.128 100.64 216.136 100.384L215.384 101.504C217.544 102.08 219.64 102.848 221.672 103.84L222.456 102.64C221.816 102.336 221.144 102.048 220.472 101.792C221.48 101.168 222.424 100.432 223.32 99.5835V98.5275H219.912L220.28 98.0955C219.704 97.5835 219.08 97.1355 218.424 96.7835ZM218.28 95.0555C218.088 95.1835 217.896 95.2955 217.688 95.4235V94.6075H214.312V95.5515H217.448C215.864 96.4475 213.912 97.2155 211.592 97.8555L212.44 99.0715C214.968 98.2715 217.144 97.2315 218.968 95.9355C220.6 97.2315 222.776 98.2715 225.496 99.0715L226.344 97.8395C223.896 97.2155 221.912 96.4475 220.408 95.5515H223.688V94.6075H220.344V95.5195C220.12 95.3915 219.912 95.2635 219.72 95.1195V92.3835H224.248V94.4315H225.704V91.2315H219.72V90.5115H224.904V89.2955H213.08V90.5115H218.28V91.2315H212.296V94.4315H213.752V92.3835H218.28V95.0555ZM214.344 93.0235V93.9675H217.672V93.0235H214.344ZM220.36 93.0235V93.9675H223.64V93.0235H220.36ZM240.824 98.8475H229.736V103.712H231.24V103.024H239.336V103.712H240.824V98.8475ZM231.24 101.712V100.128H239.336V101.712H231.24ZM229.768 93.5195V97.8875H241.752V96.6235H236.776V95.7115H240.792V94.5275H236.776V93.6795H240.76V92.4955H236.776V91.5995H241.464V90.3515H236.952C236.728 89.7595 236.52 89.2315 236.296 88.7515L234.728 89.0075C234.984 89.4235 235.224 89.8715 235.448 90.3515H231.96C232.152 89.9515 232.344 89.5355 232.504 89.1035L231.016 88.8155C230.36 90.5595 229.224 92.1755 227.608 93.6635L228.088 95.1515C228.696 94.6235 229.256 94.0795 229.768 93.5195ZM235.272 96.6235H231.208V95.7115H235.272V96.6235ZM235.272 94.5275H231.208V93.6795H235.272V94.5275ZM235.272 92.4955H231.208V91.6475C231.208 91.6315 231.224 91.6155 231.24 91.5995H235.272V92.4955ZM245.496 95.0075V103.568H247.032V92.4795C247.512 91.5195 247.912 90.5275 248.232 89.4875L246.808 88.8155C246.104 91.2475 245 93.3755 243.512 95.1995L244.024 96.8315C244.536 96.2555 245.032 95.6475 245.496 95.0075ZM254.088 94.5275V103.504H255.56V94.5275H254.088ZM250.056 94.5755V96.9435C250.024 99.5995 249.352 101.52 248.04 102.72L249.176 103.712C250.712 102.288 251.496 100.032 251.528 96.9435V94.5755H250.056ZM252.072 88.9595C250.952 91.2635 249.352 93.1355 247.272 94.5755L248.12 95.8715C249.992 94.5915 251.544 92.7675 252.76 90.4155C253.832 92.5115 255.464 94.2715 257.64 95.7115L258.488 94.4155C256.12 92.8475 254.44 91.0395 253.464 88.9595H252.072ZM263 92.0475C262.664 92.0475 262.376 92.1595 262.152 92.3995C261.928 92.6235 261.816 92.9115 261.816 93.2475C261.816 93.5675 261.928 93.8555 262.152 94.0795C262.376 94.3035 262.664 94.4315 263 94.4315C263.32 94.4315 263.608 94.3035 263.848 94.0795C264.072 93.8555 264.2 93.5675 264.2 93.2475C264.2 92.9115 264.072 92.6235 263.848 92.3995C263.608 92.1595 263.32 92.0475 263 92.0475ZM263 97.9035C262.664 97.9035 262.376 98.0155 262.152 98.2555C261.928 98.4795 261.816 98.7675 261.816 99.1035C261.816 99.4235 261.928 99.7115 262.152 99.9355C262.376 100.16 262.664 100.288 263 100.288C263.32 100.288 263.608 100.16 263.848 99.9355C264.072 99.7115 264.2 99.4235 264.2 99.1035C264.2 98.7675 264.072 98.4795 263.848 98.2555C263.608 98.0155 263.32 97.9035 263 97.9035Z" fill="#030319"/>
    <path d="M310.1 178.346V179.326H319.774V178.346H310.1ZM309.022 182.462V183.442H312.648V183.652C312.62 185.178 312.312 186.424 311.752 187.376C311.15 188.3 310.1 189.028 308.588 189.588L309.134 190.442C310.688 189.868 311.808 189.07 312.508 188.048C313.208 186.942 313.586 185.472 313.628 183.652V183.442H316.148V188.874C316.148 189.742 316.582 190.176 317.464 190.176H319.494C319.998 190.176 320.376 190.022 320.614 189.742C320.894 189.42 321.076 188.496 321.174 186.97L320.25 186.676C320.194 187.936 320.096 188.692 319.928 188.944C319.816 189.154 319.606 189.266 319.298 189.266H317.744C317.324 189.266 317.128 189.056 317.128 188.664V183.442H320.992V182.462H309.022Z" fill="#030319"/>
    <path fill-rule="evenodd" clip-rule="evenodd" d="M59.6384 135.869H61.0248V156.192H59.6384V135.869ZM61.9493 135.869H62.8736V156.192H61.9493V135.869ZM64.7221 135.869H64.2599V156.192H64.7221V135.869ZM67.9571 135.869H68.8814V156.192H67.9571V135.869ZM71.6532 135.869H69.3426V156.192H71.6532V135.869ZM73.9643 135.869H74.8886V156.192H73.9643V135.869ZM76.2753 135.869H75.8132V156.192H76.2753V135.869ZM77.1995 135.869H79.048V156.192H77.1995V135.869ZM83.2067 135.869H80.4339V156.192H83.2067V135.869ZM83.6693 135.869H84.5936V156.192H83.6693V135.869ZM87.3664 135.869H85.98V156.192H87.3664V135.869ZM88.7528 135.869H89.2149V156.192H88.7528V135.869ZM92.4493 135.869H91.9872V156.192H92.4493V135.869ZM93.8361 135.869H95.6846V156.192H93.8361V135.869ZM98.4575 135.869H97.5332V156.192H98.4575V135.869ZM99.843 135.869H100.305V156.192H99.843V135.869ZM103.54 135.869H101.692V156.192H103.54V135.869ZM105.389 135.869H106.776V156.192H105.389V135.869ZM108.162 135.869H107.7V156.192H108.162V135.869ZM110.01 135.869H111.859V156.192H110.01V135.869ZM113.707 135.869H112.321V156.192H113.707V135.869ZM115.556 135.869H116.942V156.192H115.556V135.869ZM118.791 135.869H118.329V156.192H118.791V135.869ZM120.64 135.869H121.102V156.192H120.64V135.869ZM123.874 135.869H122.949V156.192H123.874V135.869ZM125.723 135.869H126.647V156.192H125.723V135.869ZM129.882 135.869H127.571V156.192H129.882V135.869ZM131.268 135.869H133.117V156.192H131.268V135.869ZM135.427 135.869H134.041V156.192H135.427V135.869ZM136.352 135.869H138.2V156.192H136.352V135.869ZM139.586 135.869H139.124V156.192H139.586V135.869ZM141.897 135.869H142.821V156.192H141.897V135.869ZM144.67 135.869H143.746V156.192H144.67V135.869ZM146.98 135.869H147.905V156.192H146.98V135.869ZM149.753 135.869H149.291V156.192H149.753V135.869ZM151.602 135.869H152.526V156.192H151.602V135.869ZM155.761 135.869H155.299V156.192H155.761V135.869ZM158.072 135.869H159.92V156.192H158.072V135.869ZM162.231 135.869H160.844V156.192H162.231V135.869ZM162.693 135.869H163.618V156.192H162.693V135.869ZM167.314 135.869H165.928V156.192H167.314V135.869ZM167.777 135.869H170.087V156.192H167.777V135.869ZM171.473 135.869H171.011V156.192H171.473V135.869ZM172.397 135.869H172.859V156.192H172.397V135.869ZM176.095 135.869H174.708V156.192H176.095V135.869ZM178.867 135.869H180.253V156.192H178.867V135.869ZM182.103 135.869H181.641V156.192H182.103V135.869ZM183.027 135.869H183.489V156.192H183.027V135.869ZM188.572 135.869H187.186V156.192H188.572V135.869Z" fill="#030319"/>
    <path d="M80.5255 160.72C79.8155 160.72 79.2255 160.95 78.7455 161.42C78.2655 161.88 78.0355 162.46 78.0355 163.18C78.0355 163.88 78.2355 164.45 78.6455 164.89C79.0655 165.34 79.6355 165.57 80.3355 165.57C80.7055 165.57 81.0355 165.49 81.3255 165.35C81.6255 165.19 81.8855 164.96 82.0855 164.65H82.1255C82.1255 164.7 82.1355 164.74 82.1355 164.78C82.1355 165.47 81.9855 166.05 81.7055 166.51C81.4055 166.99 81.0155 167.24 80.5255 167.24C79.8055 167.24 79.3655 166.89 79.2255 166.2H78.1655C78.3455 167.49 79.1255 168.14 80.5155 168.14C81.3355 168.14 81.9855 167.77 82.4755 167.05C82.9455 166.33 83.1855 165.39 83.1855 164.23C83.1855 163.13 82.9555 162.28 82.5155 161.67C82.0555 161.03 81.3955 160.72 80.5255 160.72ZM80.5655 161.62C80.9855 161.62 81.3355 161.76 81.6055 162.04C81.8655 162.31 82.0055 162.68 82.0055 163.15C82.0055 163.61 81.8755 163.99 81.6155 164.27C81.3555 164.55 80.9955 164.69 80.5555 164.69C80.1055 164.69 79.7555 164.55 79.5055 164.27C79.2355 164 79.1055 163.64 79.1055 163.18C79.1055 162.72 79.2355 162.35 79.5055 162.06C79.7655 161.76 80.1255 161.62 80.5655 161.62ZM87.6716 160.72C86.9716 160.72 86.4016 160.91 85.9616 161.31C85.4916 161.71 85.2316 162.26 85.1716 162.97H86.2416C86.2816 162.53 86.4316 162.2 86.6716 161.98C86.9116 161.76 87.2516 161.65 87.6816 161.65C88.1016 161.65 88.4316 161.74 88.6516 161.94C88.8516 162.13 88.9616 162.4 88.9616 162.76C88.9616 163.12 88.8416 163.4 88.6216 163.59C88.4016 163.78 88.0716 163.88 87.6316 163.88H87.1216V164.7H87.6416C88.1116 164.7 88.4716 164.8 88.7116 165C88.9716 165.2 89.1016 165.51 89.1016 165.93C89.1016 166.29 88.9716 166.58 88.7316 166.82C88.4516 167.08 88.0816 167.22 87.6216 167.22C87.2016 167.22 86.8616 167.1 86.6016 166.86C86.3016 166.6 86.1516 166.23 86.1316 165.75H85.0316C85.0916 166.55 85.3716 167.16 85.8716 167.58C86.3116 167.95 86.9016 168.14 87.6316 168.14C88.3916 168.14 89.0216 167.92 89.5016 167.5C89.9516 167.08 90.1816 166.54 90.1816 165.88C90.1816 165.46 90.0616 165.11 89.8216 164.84C89.6016 164.58 89.2816 164.38 88.8616 164.25C89.6416 163.99 90.0416 163.46 90.0416 162.68C90.0416 162.07 89.8216 161.59 89.4016 161.24C88.9616 160.89 88.3916 160.72 87.6716 160.72ZM93.9177 160.86C93.6777 161.12 93.3777 161.35 93.0177 161.57C92.6577 161.77 92.3277 161.91 92.0077 161.99V163.07C92.6677 162.88 93.2177 162.58 93.6477 162.17V168H94.7377V160.86H93.9177ZM99.7897 160.72C99.0297 160.72 98.4097 160.97 97.9497 161.49C97.4997 161.97 97.2697 162.61 97.2597 163.41H98.3497C98.3697 162.83 98.4897 162.4 98.7297 162.1C98.9597 161.79 99.2997 161.64 99.7497 161.64C100.17 161.64 100.5 161.74 100.72 161.94C100.94 162.14 101.05 162.44 101.05 162.84C101.05 163.26 100.88 163.65 100.56 164.01C100.36 164.22 100.02 164.49 99.5397 164.83C98.7297 165.39 98.1897 165.82 97.9297 166.13C97.4497 166.67 97.2197 167.29 97.2197 168H102.14V167.04H98.5697C98.7197 166.65 99.1797 166.2 99.9497 165.69C100.66 165.21 101.15 164.83 101.43 164.54C101.89 164.03 102.13 163.47 102.13 162.85C102.13 162.22 101.91 161.71 101.48 161.31C101.04 160.91 100.47 160.72 99.7897 160.72ZM106.746 160.72C106.046 160.72 105.476 160.91 105.036 161.31C104.566 161.71 104.306 162.26 104.246 162.97H105.316C105.356 162.53 105.506 162.2 105.746 161.98C105.986 161.76 106.326 161.65 106.756 161.65C107.176 161.65 107.506 161.74 107.726 161.94C107.926 162.13 108.036 162.4 108.036 162.76C108.036 163.12 107.916 163.4 107.696 163.59C107.476 163.78 107.146 163.88 106.706 163.88H106.196V164.7H106.716C107.186 164.7 107.546 164.8 107.786 165C108.046 165.2 108.176 165.51 108.176 165.93C108.176 166.29 108.046 166.58 107.806 166.82C107.526 167.08 107.156 167.22 106.696 167.22C106.276 167.22 105.936 167.1 105.676 166.86C105.376 166.6 105.226 166.23 105.206 165.75H104.106C104.166 166.55 104.446 167.16 104.946 167.58C105.386 167.95 105.976 168.14 106.706 168.14C107.466 168.14 108.096 167.92 108.576 167.5C109.026 167.08 109.256 166.54 109.256 165.88C109.256 165.46 109.136 165.11 108.896 164.84C108.676 164.58 108.356 164.38 107.936 164.25C108.716 163.99 109.116 163.46 109.116 162.68C109.116 162.07 108.896 161.59 108.476 161.24C108.036 160.89 107.466 160.72 106.746 160.72ZM113.672 160.72C112.912 160.72 112.302 160.92 111.862 161.32C111.462 161.68 111.262 162.13 111.262 162.66C111.262 163.03 111.342 163.34 111.502 163.59C111.682 163.86 111.952 164.06 112.312 164.2V164.23C111.962 164.31 111.672 164.51 111.432 164.83C111.152 165.17 111.012 165.56 111.012 166.01C111.012 166.64 111.242 167.15 111.702 167.55C112.162 167.94 112.822 168.14 113.672 168.14C114.512 168.14 115.172 167.94 115.642 167.55C116.102 167.15 116.332 166.64 116.332 166.01C116.332 165.56 116.192 165.17 115.912 164.83C115.672 164.51 115.372 164.31 115.032 164.23V164.2C115.392 164.06 115.662 163.86 115.842 163.59C116.002 163.34 116.082 163.03 116.082 162.66C116.082 162.13 115.882 161.68 115.482 161.32C115.032 160.92 114.432 160.72 113.672 160.72ZM113.672 161.59C114.112 161.59 114.462 161.7 114.722 161.94C114.942 162.14 115.062 162.4 115.062 162.7C115.062 163.04 114.962 163.31 114.782 163.51C114.542 163.75 114.172 163.87 113.672 163.87C113.162 163.87 112.792 163.75 112.562 163.51C112.372 163.31 112.282 163.04 112.282 162.7C112.282 162.4 112.392 162.14 112.622 161.94C112.882 161.7 113.232 161.59 113.672 161.59ZM113.672 164.68C114.192 164.68 114.582 164.81 114.862 165.07C115.122 165.3 115.252 165.61 115.252 166.01C115.252 166.38 115.122 166.68 114.862 166.91C114.572 167.14 114.172 167.26 113.672 167.26C113.162 167.26 112.772 167.14 112.502 166.91C112.222 166.68 112.092 166.38 112.092 166.01C112.092 165.61 112.222 165.3 112.492 165.06C112.752 164.8 113.152 164.68 113.672 164.68ZM120.778 160.72C120.018 160.72 119.398 160.97 118.938 161.49C118.488 161.97 118.258 162.61 118.248 163.41H119.338C119.358 162.83 119.478 162.4 119.718 162.1C119.948 161.79 120.288 161.64 120.738 161.64C121.158 161.64 121.488 161.74 121.708 161.94C121.928 162.14 122.038 162.44 122.038 162.84C122.038 163.26 121.868 163.65 121.548 164.01C121.348 164.22 121.008 164.49 120.528 164.83C119.718 165.39 119.178 165.82 118.918 166.13C118.438 166.67 118.208 167.29 118.208 168H123.128V167.04H119.558C119.708 166.65 120.168 166.2 120.938 165.69C121.648 165.21 122.138 164.83 122.418 164.54C122.878 164.03 123.118 163.47 123.118 162.85C123.118 162.22 122.898 161.71 122.468 161.31C122.028 160.91 121.458 160.72 120.778 160.72ZM127.734 160.72C127.034 160.72 126.464 160.91 126.024 161.31C125.554 161.71 125.294 162.26 125.234 162.97H126.304C126.344 162.53 126.494 162.2 126.734 161.98C126.974 161.76 127.314 161.65 127.744 161.65C128.164 161.65 128.494 161.74 128.714 161.94C128.914 162.13 129.024 162.4 129.024 162.76C129.024 163.12 128.904 163.4 128.684 163.59C128.464 163.78 128.134 163.88 127.694 163.88H127.184V164.7H127.704C128.174 164.7 128.534 164.8 128.774 165C129.034 165.2 129.164 165.51 129.164 165.93C129.164 166.29 129.034 166.58 128.794 166.82C128.514 167.08 128.144 167.22 127.684 167.22C127.264 167.22 126.924 167.1 126.664 166.86C126.364 166.6 126.214 166.23 126.194 165.75H125.094C125.154 166.55 125.434 167.16 125.934 167.58C126.374 167.95 126.964 168.14 127.694 168.14C128.454 168.14 129.084 167.92 129.564 167.5C130.014 167.08 130.244 166.54 130.244 165.88C130.244 165.46 130.124 165.11 129.884 164.84C129.664 164.58 129.344 164.38 128.924 164.25C129.704 163.99 130.104 163.46 130.104 162.68C130.104 162.07 129.884 161.59 129.464 161.24C129.024 160.89 128.454 160.72 127.734 160.72ZM133.98 160.86C133.74 161.12 133.44 161.35 133.08 161.57C132.72 161.77 132.39 161.91 132.07 161.99V163.07C132.73 162.88 133.28 162.58 133.71 162.17V168H134.8V160.86H133.98ZM139.812 160.72C139.112 160.72 138.542 160.91 138.102 161.31C137.632 161.71 137.372 162.26 137.312 162.97H138.382C138.422 162.53 138.572 162.2 138.812 161.98C139.052 161.76 139.392 161.65 139.822 161.65C140.242 161.65 140.572 161.74 140.792 161.94C140.992 162.13 141.102 162.4 141.102 162.76C141.102 163.12 140.982 163.4 140.762 163.59C140.542 163.78 140.212 163.88 139.772 163.88H139.262V164.7H139.782C140.252 164.7 140.612 164.8 140.852 165C141.112 165.2 141.242 165.51 141.242 165.93C141.242 166.29 141.112 166.58 140.872 166.82C140.592 167.08 140.222 167.22 139.762 167.22C139.342 167.22 139.002 167.1 138.742 166.86C138.442 166.6 138.292 166.23 138.272 165.75H137.172C137.232 166.55 137.512 167.16 138.012 167.58C138.452 167.95 139.042 168.14 139.772 168.14C140.532 168.14 141.162 167.92 141.642 167.5C142.092 167.08 142.322 166.54 142.322 165.88C142.322 165.46 142.202 165.11 141.962 164.84C141.742 164.58 141.422 164.38 141.002 164.25C141.782 163.99 142.182 163.46 142.182 162.68C142.182 162.07 141.962 161.59 141.542 161.24C141.102 160.89 140.532 160.72 139.812 160.72ZM146.058 160.86C145.818 161.12 145.518 161.35 145.158 161.57C144.798 161.77 144.468 161.91 144.148 161.99V163.07C144.808 162.88 145.358 162.58 145.788 162.17V168H146.878V160.86H146.058ZM151.89 160.72C151.19 160.72 150.62 160.91 150.18 161.31C149.71 161.71 149.45 162.26 149.39 162.97H150.46C150.5 162.53 150.65 162.2 150.89 161.98C151.13 161.76 151.47 161.65 151.9 161.65C152.32 161.65 152.65 161.74 152.87 161.94C153.07 162.13 153.18 162.4 153.18 162.76C153.18 163.12 153.06 163.4 152.84 163.59C152.62 163.78 152.29 163.88 151.85 163.88H151.34V164.7H151.86C152.33 164.7 152.69 164.8 152.93 165C153.19 165.2 153.32 165.51 153.32 165.93C153.32 166.29 153.19 166.58 152.95 166.82C152.67 167.08 152.3 167.22 151.84 167.22C151.42 167.22 151.08 167.1 150.82 166.86C150.52 166.6 150.37 166.23 150.35 165.75H149.25C149.31 166.55 149.59 167.16 150.09 167.58C150.53 167.95 151.12 168.14 151.85 168.14C152.61 168.14 153.24 167.92 153.72 167.5C154.17 167.08 154.4 166.54 154.4 165.88C154.4 165.46 154.28 165.11 154.04 164.84C153.82 164.58 153.5 164.38 153.08 164.25C153.86 163.99 154.26 163.46 154.26 162.68C154.26 162.07 154.04 161.59 153.62 161.24C153.18 160.89 152.61 160.72 151.89 160.72ZM158.136 160.86C157.896 161.12 157.596 161.35 157.236 161.57C156.876 161.77 156.546 161.91 156.226 161.99V163.07C156.886 162.88 157.436 162.58 157.866 162.17V168H158.956V160.86H158.136ZM163.898 160.72C163.058 160.72 162.408 161.07 161.948 161.78C161.528 162.43 161.318 163.31 161.318 164.43C161.318 165.54 161.528 166.42 161.948 167.08C162.408 167.78 163.058 168.14 163.898 168.14C164.738 168.14 165.388 167.78 165.848 167.08C166.268 166.42 166.478 165.53 166.478 164.43C166.478 163.32 166.268 162.44 165.848 161.78C165.388 161.07 164.738 160.72 163.898 160.72ZM163.898 161.64C164.478 161.64 164.898 161.96 165.138 162.61C165.308 163.05 165.398 163.66 165.398 164.43C165.398 165.19 165.308 165.8 165.138 166.25C164.898 166.89 164.478 167.22 163.898 167.22C163.308 167.22 162.898 166.89 162.658 166.25C162.478 165.8 162.398 165.19 162.398 164.43C162.398 163.66 162.478 163.05 162.658 162.61C162.898 161.96 163.308 161.64 163.898 161.64Z" fill="#030319"/>
    <path d="M241.704 153.32C243.432 154.808 245.832 155.528 248.952 155.528C250.824 155.528 252.504 155.144 254.04 154.376C255.528 153.608 256.68 152.456 257.544 151.016C258.36 149.576 258.792 147.896 258.792 145.928V145.016C258.792 143.192 258.408 141.608 257.64 140.264C256.872 138.968 255.816 138.008 254.376 137.384C255.624 136.712 256.584 135.848 257.256 134.696C257.928 133.544 258.264 132.248 258.264 130.808V130.088C258.264 127.448 257.4 125.336 255.768 123.752C254.088 122.168 251.784 121.352 248.904 121.352C245.928 121.352 243.576 122.168 241.896 123.704C240.216 125.24 239.4 127.4 239.4 130.184V131H245.16V130.184C245.16 129.128 245.448 128.264 246.072 127.64C246.648 127.016 247.512 126.68 248.664 126.68C249.72 126.68 250.584 127.064 251.208 127.736C251.832 128.408 252.168 129.368 252.168 130.568V131.288C252.168 132.536 251.832 133.544 251.16 134.216C250.488 134.936 249.528 135.272 248.328 135.272H246.696V140.6H248.376C249.768 140.6 250.824 140.984 251.592 141.752C252.312 142.52 252.696 143.624 252.696 145.064V145.928C252.696 147.272 252.312 148.28 251.64 149.048C250.968 149.816 250.008 150.2 248.856 150.2C247.608 150.2 246.648 149.912 245.976 149.336C245.304 148.76 245.016 147.848 245.016 146.696V145.976H239.16V146.984C239.16 149.72 239.976 151.832 241.704 153.32ZM267.811 148.184V155H274.483V148.184H267.811ZM285.996 153.368C287.676 154.808 289.98 155.528 292.86 155.528C295.884 155.528 298.236 154.712 299.964 152.984C301.692 151.304 302.556 148.952 302.556 145.88V142.76C302.556 139.688 301.836 137.336 300.396 135.704C298.956 134.072 296.892 133.208 294.108 133.208C292.236 133.208 290.652 133.736 289.404 134.744V127.256H301.884V121.88H283.98V140.744H289.404C290.076 139.256 291.18 138.488 292.812 138.488C294.06 138.488 294.972 138.872 295.548 139.64C296.124 140.408 296.46 141.56 296.46 143.096V145.592C296.46 147.128 296.124 148.28 295.548 149.048C294.972 149.816 294.06 150.2 292.86 150.2C291.708 150.2 290.844 149.912 290.22 149.336C289.548 148.76 289.26 147.992 289.26 146.936V146.648H283.5V147.368C283.5 149.96 284.316 151.928 285.996 153.368Z" fill="#030319"/>
</svg>