<svg width="343" height="174" viewBox="0 0 343 174" fill="none" xmlns="http://www.w3.org/2000/svg">
    <rect y="0.349121" width="343" height="173" rx="8" fill="white"/>
    <path d="M94.54 27.1258V28.9658H108.08V41.7058C108.08 42.3058 107.8 42.6058 107.26 42.6058C106.26 42.6058 105.22 42.5658 104.12 42.5058L104.56 44.3458H107.92C109.28 44.3458 109.98 43.6258 109.98 42.1858V28.9658H112.5V27.1258H94.54ZM104.86 31.5658H96.74V40.9058H98.56V39.2658H104.86V31.5658ZM98.56 37.5458V33.2658H103.06V37.5458H98.56ZM130.98 28.2658H116.04V44.1658H117.96V43.0258H129.04V44.1658H130.98V28.2658ZM117.96 41.1658V30.1258H129.04V41.1658H117.96ZM134.54 27.1258V28.9658H148.08V41.7058C148.08 42.3058 147.8 42.6058 147.26 42.6058C146.26 42.6058 145.22 42.5658 144.12 42.5058L144.56 44.3458H147.92C149.28 44.3458 149.98 43.6258 149.98 42.1858V28.9658H152.5V27.1258H134.54ZM144.86 31.5658H136.74V40.9058H138.56V39.2658H144.86V31.5658ZM138.56 37.5458V33.2658H143.06V37.5458H138.56ZM155.38 35.5258H162.7V41.7458C162.7 42.3458 162.42 42.6658 161.9 42.6658C161.12 42.6658 160.3 42.6258 159.44 42.5458L159.86 44.4058H162.56C163.92 44.4058 164.62 43.6658 164.62 42.2258V35.5258H171.76V33.6658H164.62V29.9858H162.7V33.6658H157.48C157.78 32.2858 158.08 30.7458 158.36 29.0258C163.36 28.9458 167.42 28.4858 170.52 27.6458L169.62 26.0458C166.74 26.9258 162.98 27.3858 158.34 27.4058C157.82 27.3858 157.3 27.3258 156.82 27.2458C156.54 29.6458 156.06 32.4058 155.38 35.5258ZM157.92 36.7858C156.96 38.9858 155.8 40.8858 154.46 42.4658L156.12 43.6658C157.44 41.9458 158.6 39.9258 159.6 37.6058L157.92 36.7858ZM168.72 36.6858L167.04 37.4858C168.2 39.3258 169.28 41.4058 170.28 43.7258L172.08 42.8258C171 40.5858 169.88 38.5458 168.72 36.6858ZM175.4 28.1458L174.62 36.1458H176.66C176.94 35.6258 177.32 35.2458 177.84 35.0058C178.32 34.7658 178.86 34.6658 179.5 34.6658C180.46 34.6658 181.18 34.9458 181.7 35.5058C182.22 36.0658 182.48 36.8458 182.48 37.8458C182.48 38.7658 182.18 39.4858 181.58 40.0458C180.98 40.5858 180.24 40.8658 179.36 40.8658C178.56 40.8658 177.92 40.6858 177.44 40.3258C176.9 39.9258 176.58 39.3058 176.5 38.5058H174.36C174.46 39.8258 175.02 40.8858 176.04 41.6458C176.96 42.3458 178.06 42.7058 179.34 42.7058C180.76 42.7058 181.98 42.2858 183 41.4458C184.08 40.5058 184.64 39.3058 184.64 37.8258C184.64 36.2858 184.2 35.0858 183.36 34.2058C182.52 33.3258 181.42 32.8858 180.08 32.8858C179.44 32.8858 178.84 32.9858 178.32 33.2058C177.74 33.4058 177.24 33.7258 176.8 34.1858H176.74L177.16 30.0658H184V28.1458H175.4ZM191.492 27.8658C189.812 27.8658 188.512 28.5658 187.592 29.9858C186.752 31.2858 186.332 33.0458 186.332 35.2858C186.332 37.5058 186.752 39.2658 187.592 40.5858C188.512 41.9858 189.812 42.7058 191.492 42.7058C193.172 42.7058 194.472 41.9858 195.392 40.5858C196.232 39.2658 196.652 37.4858 196.652 35.2858C196.652 33.0658 196.232 31.3058 195.392 29.9858C194.472 28.5658 193.172 27.8658 191.492 27.8658ZM191.492 29.7058C192.652 29.7058 193.492 30.3458 193.972 31.6458C194.312 32.5258 194.492 33.7458 194.492 35.2858C194.492 36.8058 194.312 38.0258 193.972 38.9258C193.492 40.2058 192.652 40.8658 191.492 40.8658C190.312 40.8658 189.492 40.2058 189.012 38.9258C188.652 38.0258 188.492 36.8058 188.492 35.2858C188.492 33.7458 188.652 32.5258 189.012 31.6458C189.492 30.3458 190.312 29.7058 191.492 29.7058ZM203.484 27.8658C201.804 27.8658 200.504 28.5658 199.584 29.9858C198.744 31.2858 198.324 33.0458 198.324 35.2858C198.324 37.5058 198.744 39.2658 199.584 40.5858C200.504 41.9858 201.804 42.7058 203.484 42.7058C205.164 42.7058 206.464 41.9858 207.384 40.5858C208.224 39.2658 208.644 37.4858 208.644 35.2858C208.644 33.0658 208.224 31.3058 207.384 29.9858C206.464 28.5658 205.164 27.8658 203.484 27.8658ZM203.484 29.7058C204.644 29.7058 205.484 30.3458 205.964 31.6458C206.304 32.5258 206.484 33.7458 206.484 35.2858C206.484 36.8058 206.304 38.0258 205.964 38.9258C205.484 40.2058 204.644 40.8658 203.484 40.8658C202.304 40.8658 201.484 40.2058 201.004 38.9258C200.644 38.0258 200.484 36.8058 200.484 35.2858C200.484 33.7458 200.644 32.5258 201.004 31.6458C201.484 30.3458 202.304 29.7058 203.484 29.7058ZM218.297 40.3458L211.657 40.8658L211.897 42.3258L218.297 41.8458V42.6058C218.297 43.6858 218.937 44.2458 220.217 44.2458H225.777C226.617 44.2458 227.217 44.1258 227.617 43.8858C228.037 43.6258 228.337 42.8258 228.497 41.5058L227.097 41.0658L226.897 39.8258L220.117 40.2658V39.2658L225.777 38.9058L225.597 37.6058L220.117 37.9858V37.1258C221.717 37.0058 223.277 36.8458 224.797 36.6458L224.097 35.4858C221.497 35.8258 218.097 36.0658 213.897 36.1858L214.297 37.4058C215.657 37.3658 216.977 37.3258 218.297 37.2458V38.0658L212.637 38.4258L212.857 39.8058L218.297 39.4658V40.3458ZM226.817 41.1658C226.737 41.8858 226.597 42.3058 226.377 42.4658C226.177 42.6258 225.877 42.7058 225.477 42.7058H220.697C220.297 42.7058 220.117 42.5458 220.117 42.2658V41.6258L226.817 41.1658ZM210.677 27.1858V28.7258H228.297V27.1858H220.357C220.157 26.7058 219.937 26.2658 219.737 25.8658L217.837 26.2058C218.037 26.5058 218.257 26.8258 218.457 27.1858H210.677ZM213.597 29.4658V32.9258H225.417V29.4658H213.597ZM223.637 31.7458H215.377V30.6858H223.637V31.7458ZM227.857 33.7058H211.137V37.5458H212.957V35.1258H226.037V37.2458H227.857V33.7058ZM239.717 26.0658C237.477 27.0658 234.557 27.7658 230.937 28.1258L231.537 29.8458C232.777 29.7458 234.017 29.5858 235.217 29.3458V33.4658H230.517V35.3058H235.177C234.937 38.9058 233.437 41.5658 230.717 43.2658L232.157 44.5258C235.177 42.5258 236.817 39.4658 237.097 35.3058H242.057V44.4658H243.957V35.3058H248.417V33.4658H243.957V26.2258H242.057V33.4658H237.137V28.8658C238.317 28.5458 239.477 28.1258 240.637 27.6058L239.717 26.0658Z" fill="#030319"/>
    <path d="M64.136 75.6738V76.7778H66.424V79.4178H63.912V80.5378H66.36C66.136 83.5618 65.256 85.8178 63.704 87.3218L64.552 88.0738C65.864 86.8098 66.744 85.0498 67.208 82.7938C67.832 83.4818 68.6 84.4258 69.496 85.6418L70.136 84.6498C69.208 83.5618 68.28 82.5858 67.384 81.7378C67.432 81.3538 67.48 80.9538 67.512 80.5378H69.928V79.4178H67.576V76.7778H69.704V75.6738H67.576V73.4818H66.424V75.6738H64.136ZM77.128 74.0258H70.648V82.8098H71.752V75.0978H76.024V82.8098H77.128V74.0258ZM76.696 87.8178C77.208 87.8178 77.576 87.6898 77.832 87.4498C78.088 87.1618 78.28 86.3618 78.376 85.0498L77.384 84.7298C77.32 85.7218 77.224 86.3298 77.08 86.5378C76.968 86.6978 76.776 86.7778 76.504 86.7778H75.688C75.336 86.7778 75.176 86.6018 75.176 86.2498V82.8898H74.136V86.4898C74.136 87.3698 74.536 87.8178 75.368 87.8178H76.696ZM73.368 76.4258V79.2578C73.32 81.2738 72.968 82.9218 72.312 84.1858C71.608 85.4018 70.376 86.3778 68.616 87.0978L69.224 88.0738C71.016 87.3218 72.328 86.2818 73.128 84.9698C73.944 83.5458 74.376 81.6418 74.408 79.2578V76.4258H73.368ZM83.16 79.7538C83.544 80.3138 84.024 81.0498 84.584 81.9778L84.824 81.6098L85.256 82.1858C87 81.5138 88.488 80.7138 89.704 79.7698C90.824 80.6498 92.2 81.4338 93.864 82.1378L94.376 81.0658C92.872 80.5058 91.576 79.8498 90.504 79.0978C91.592 78.0898 92.44 76.9538 93.016 75.6738V74.7778H88.504C88.696 74.3938 88.872 73.9938 89.032 73.5778L87.928 73.3378C87.192 75.1138 86.248 76.5538 85.08 77.6578L85.816 78.5378C86.28 78.0738 86.728 77.5618 87.144 77.0178C87.592 77.7218 88.168 78.3938 88.856 79.0498C87.832 79.8018 86.6 80.4578 85.192 81.0338L85.208 81.0178C84.52 80.0738 83.832 79.2258 83.16 78.4578V77.5938H84.904V76.4898H83.16V73.3698H82.024V76.4898H79.896V77.5938H82.008C81.512 79.5618 80.696 81.3058 79.576 82.8418L80.072 84.0898C80.872 82.8418 81.528 81.4498 82.024 79.9298V87.9618H83.16V79.7538ZM92.984 82.0258H86.216V87.9938H87.336V87.2898H91.864V87.9938H92.984V82.0258ZM87.336 86.2178V83.0978H91.864V86.2178H87.336ZM89.64 78.4258C88.856 77.7538 88.216 77.0018 87.72 76.1858C87.784 76.0898 87.832 75.9778 87.896 75.8818H91.752C91.224 76.8098 90.52 77.6578 89.64 78.4258ZM99 76.6818C98.712 76.6818 98.488 76.7778 98.296 76.9858C98.104 77.1618 98.024 77.3858 98.024 77.6738C98.024 77.9458 98.104 78.1698 98.296 78.3618C98.488 78.5538 98.712 78.6498 99 78.6498C99.272 78.6498 99.512 78.5538 99.704 78.3618C99.896 78.1698 99.992 77.9458 99.992 77.6738C99.992 77.3858 99.896 77.1618 99.704 76.9858C99.512 76.7778 99.272 76.6818 99 76.6818ZM99 82.5378C98.712 82.5378 98.488 82.6338 98.296 82.8418C98.104 83.0178 98.024 83.2418 98.024 83.5298C98.024 83.8018 98.104 84.0258 98.296 84.2178C98.488 84.4098 98.712 84.5058 99 84.5058C99.272 84.5058 99.512 84.4098 99.704 84.2178C99.896 84.0258 99.992 83.8018 99.992 83.5298C99.992 83.2418 99.896 83.0178 99.704 82.8418C99.512 82.6338 99.272 82.5378 99 82.5378Z" fill="#030319"/>
    <path d="M112.71 73.5738L112.008 80.7738H113.844C114.096 80.3058 114.438 79.9638 114.906 79.7478C115.338 79.5318 115.824 79.4418 116.4 79.4418C117.264 79.4418 117.912 79.6938 118.38 80.1978C118.848 80.7018 119.082 81.4038 119.082 82.3038C119.082 83.1318 118.812 83.7798 118.272 84.2838C117.732 84.7698 117.066 85.0218 116.274 85.0218C115.554 85.0218 114.978 84.8598 114.546 84.5358C114.06 84.1758 113.772 83.6178 113.7 82.8978H111.774C111.864 84.0858 112.368 85.0398 113.286 85.7238C114.114 86.3538 115.104 86.6778 116.256 86.6778C117.534 86.6778 118.632 86.2998 119.55 85.5438C120.522 84.6978 121.026 83.6178 121.026 82.2858C121.026 80.8998 120.63 79.8198 119.874 79.0278C119.118 78.2358 118.128 77.8398 116.922 77.8398C116.346 77.8398 115.806 77.9298 115.338 78.1278C114.816 78.3078 114.366 78.5958 113.97 79.0098H113.916L114.294 75.3018H120.45V73.5738H112.71ZM127.193 73.3218C125.681 73.3218 124.511 73.9518 123.683 75.2298C122.927 76.3998 122.549 77.9838 122.549 79.9998C122.549 81.9978 122.927 83.5818 123.683 84.7698C124.511 86.0298 125.681 86.6778 127.193 86.6778C128.705 86.6778 129.875 86.0298 130.703 84.7698C131.459 83.5818 131.837 81.9798 131.837 79.9998C131.837 78.0018 131.459 76.4178 130.703 75.2298C129.875 73.9518 128.705 73.3218 127.193 73.3218ZM127.193 74.9778C128.237 74.9778 128.993 75.5538 129.425 76.7238C129.731 77.5158 129.893 78.6138 129.893 79.9998C129.893 81.3678 129.731 82.4658 129.425 83.2758C128.993 84.4278 128.237 85.0218 127.193 85.0218C126.131 85.0218 125.393 84.4278 124.961 83.2758C124.637 82.4658 124.493 81.3678 124.493 79.9998C124.493 78.6138 124.637 77.5158 124.961 76.7238C125.393 75.5538 126.131 74.9778 127.193 74.9778ZM137.986 73.3218C136.474 73.3218 135.304 73.9518 134.476 75.2298C133.72 76.3998 133.342 77.9838 133.342 79.9998C133.342 81.9978 133.72 83.5818 134.476 84.7698C135.304 86.0298 136.474 86.6778 137.986 86.6778C139.498 86.6778 140.668 86.0298 141.496 84.7698C142.252 83.5818 142.63 81.9798 142.63 79.9998C142.63 78.0018 142.252 76.4178 141.496 75.2298C140.668 73.9518 139.498 73.3218 137.986 73.3218ZM137.986 74.9778C139.03 74.9778 139.786 75.5538 140.218 76.7238C140.524 77.5158 140.686 78.6138 140.686 79.9998C140.686 81.3678 140.524 82.4658 140.218 83.2758C139.786 84.4278 139.03 85.0218 137.986 85.0218C136.924 85.0218 136.186 84.4278 135.754 83.2758C135.43 82.4658 135.286 81.3678 135.286 79.9998C135.286 78.6138 135.43 77.5158 135.754 76.7238C136.186 75.5538 136.924 74.9778 137.986 74.9778ZM144.639 73.5738V86.4258H146.601V77.2458H146.673L150.615 86.4258H152.307L156.249 77.2458H156.321V86.4258H158.283V73.5738H155.961L151.497 83.8698H151.443L146.961 73.5738H144.639ZM160.811 73.5738V86.4258H169.829V84.7518H162.755V73.5738H160.811Z" fill="#030319"/>
    <path d="M200.648 83.4178H189.896V88.0898H191.032V87.3058H199.512V88.0898H200.648V83.4178ZM191.032 86.2818V84.4098H199.512V86.2818H191.032ZM189.896 77.5138V82.1698H201.672V81.1938H196.552V79.9938H200.744V79.0818H196.552V77.9618H200.712V77.0498H196.552V75.8818H201.416V74.9218H196.76C196.536 74.3138 196.296 73.7538 196.04 73.2578L194.856 73.4498C195.144 73.8978 195.4 74.3778 195.64 74.9218H191.672C191.912 74.4578 192.12 73.9938 192.312 73.5138L191.192 73.2898C190.504 75.0818 189.32 76.7458 187.656 78.2658L188.008 79.4018C188.696 78.8098 189.32 78.1858 189.896 77.5138ZM195.416 81.1938H191V79.9938H195.416V81.1938ZM195.416 79.0818H191V77.9618H195.416V79.0818ZM195.416 77.0498H191V76.0578C191.032 75.9938 191.064 75.9458 191.112 75.8818H195.416V77.0498ZM205.672 78.9058V87.9778H206.856V76.9218C207.352 75.9458 207.768 74.9218 208.104 73.8498L207.016 73.3538C206.312 75.7858 205.16 77.9458 203.592 79.8338L203.976 81.0498C204.584 80.3778 205.16 79.6578 205.672 78.9058ZM214.328 78.9538V87.8818H215.448V78.9538H214.328ZM210.216 79.0018V81.4178C210.184 84.1218 209.48 86.0898 208.104 87.3058L208.968 88.0578C210.504 86.6498 211.288 84.4418 211.32 81.4178V79.0018H210.216ZM212.248 73.4338C211.096 75.8178 209.448 77.7538 207.304 79.2418L207.944 80.2178C209.88 78.8738 211.48 76.9858 212.76 74.5378C213.864 76.7138 215.544 78.5538 217.784 80.0418L218.44 79.0658C216.008 77.4498 214.28 75.5778 213.288 73.4338H212.248ZM223 76.6818C222.712 76.6818 222.488 76.7778 222.296 76.9858C222.104 77.1618 222.024 77.3858 222.024 77.6738C222.024 77.9458 222.104 78.1698 222.296 78.3618C222.488 78.5538 222.712 78.6498 223 78.6498C223.272 78.6498 223.512 78.5538 223.704 78.3618C223.896 78.1698 223.992 77.9458 223.992 77.6738C223.992 77.3858 223.896 77.1618 223.704 76.9858C223.512 76.7778 223.272 76.6818 223 76.6818ZM223 82.5378C222.712 82.5378 222.488 82.6338 222.296 82.8418C222.104 83.0178 222.024 83.2418 222.024 83.5298C222.024 83.8018 222.104 84.0258 222.296 84.2178C222.488 84.4098 222.712 84.5058 223 84.5058C223.272 84.5058 223.512 84.4098 223.704 84.2178C223.896 84.0258 223.992 83.8018 223.992 83.5298C223.992 83.2418 223.896 83.0178 223.704 82.8418C223.512 82.6338 223.272 82.5378 223 82.5378Z" fill="#030319"/>
    <path d="M240.526 73.3218C239.266 73.3218 238.24 73.6638 237.448 74.3838C236.602 75.1038 236.134 76.0938 236.026 77.3718H237.952C238.024 76.5798 238.294 75.9858 238.726 75.5898C239.158 75.1938 239.77 74.9958 240.544 74.9958C241.3 74.9958 241.894 75.1578 242.29 75.5178C242.65 75.8598 242.848 76.3458 242.848 76.9938C242.848 77.6418 242.632 78.1458 242.236 78.4878C241.84 78.8298 241.246 79.0098 240.454 79.0098H239.536V80.4858H240.472C241.318 80.4858 241.966 80.6658 242.398 81.0258C242.866 81.3858 243.1 81.9438 243.1 82.6998C243.1 83.3478 242.866 83.8698 242.434 84.3018C241.93 84.7698 241.264 85.0218 240.436 85.0218C239.68 85.0218 239.068 84.8058 238.6 84.3738C238.06 83.9058 237.79 83.2398 237.754 82.3758H235.774C235.882 83.8158 236.386 84.9138 237.286 85.6698C238.078 86.3358 239.14 86.6778 240.454 86.6778C241.822 86.6778 242.956 86.2818 243.82 85.5258C244.63 84.7698 245.044 83.7978 245.044 82.6098C245.044 81.8538 244.828 81.2238 244.396 80.7378C244 80.2698 243.424 79.9098 242.668 79.6758C244.072 79.2078 244.792 78.2538 244.792 76.8498C244.792 75.7518 244.396 74.8878 243.64 74.2578C242.848 73.6278 241.822 73.3218 240.526 73.3218ZM248.241 83.8518C247.845 83.8518 247.539 83.9778 247.305 84.2298C247.035 84.4818 246.909 84.8058 246.909 85.2018C246.909 85.5618 247.035 85.8858 247.305 86.1558C247.539 86.3898 247.845 86.5158 248.241 86.5158C248.601 86.5158 248.925 86.3898 249.195 86.1558C249.447 85.8858 249.591 85.5618 249.591 85.2018C249.591 84.8058 249.447 84.4818 249.195 84.2298C248.925 83.9778 248.601 83.8518 248.241 83.8518ZM252.407 73.5738L251.705 80.7738H253.541C253.793 80.3058 254.135 79.9638 254.603 79.7478C255.035 79.5318 255.521 79.4418 256.097 79.4418C256.961 79.4418 257.609 79.6938 258.077 80.1978C258.545 80.7018 258.779 81.4038 258.779 82.3038C258.779 83.1318 258.509 83.7798 257.969 84.2838C257.429 84.7698 256.763 85.0218 255.971 85.0218C255.251 85.0218 254.675 84.8598 254.243 84.5358C253.757 84.1758 253.469 83.6178 253.397 82.8978H251.471C251.561 84.0858 252.065 85.0398 252.983 85.7238C253.811 86.3538 254.801 86.6778 255.953 86.6778C257.231 86.6778 258.329 86.2998 259.247 85.5438C260.219 84.6978 260.723 83.6178 260.723 82.2858C260.723 80.8998 260.327 79.8198 259.571 79.0278C258.815 78.2358 257.825 77.8398 256.619 77.8398C256.043 77.8398 255.503 77.9298 255.035 78.1278C254.513 78.3078 254.063 78.5958 253.667 79.0098H253.613L253.991 75.3018H260.147V73.5738H252.407ZM264.136 72.5298V74.1858H276.682V72.5298H264.136ZM262.75 77.8218V79.4778H267.268V79.8018C267.196 81.6198 266.818 83.0958 266.134 84.2478C265.432 85.3098 264.118 86.1918 262.174 86.8938L263.092 88.3338C265.108 87.6138 266.548 86.6238 267.448 85.3458C268.348 83.9598 268.852 82.1058 268.924 79.8018V79.4778H271.768V86.1018C271.768 87.3618 272.38 87.9918 273.604 87.9918H276.394C277.042 87.9918 277.51 87.7938 277.834 87.4338C278.158 87.0378 278.392 85.8498 278.518 83.8338L276.97 83.3298C276.934 84.8418 276.826 85.7418 276.664 86.0478C276.538 86.3178 276.34 86.4618 276.07 86.4618H274.09C273.64 86.4618 273.424 86.2098 273.424 85.7418V79.4778H278.248V77.8218H262.75Z" fill="#030319"/>
    <path fill-rule="evenodd" clip-rule="evenodd" d="M97.5 101.426H99.0914V133.426H97.5V101.426ZM100.153 101.426H101.213V133.426H100.153V101.426ZM103.336 101.426H102.805V133.426H103.336V101.426ZM107.049 101.426H108.11V133.426H107.049V101.426ZM111.291 101.426H108.639V133.426H111.291V101.426ZM113.944 101.426H115.005V133.426H113.944V101.426ZM116.597 101.426H116.067V133.426H116.597V101.426ZM117.658 101.426H119.78V133.426H117.658V101.426ZM124.553 101.426H121.371V133.426H124.553V101.426ZM125.084 101.426H126.145V133.426H125.084V101.426ZM129.328 101.426H127.737V133.426H129.328V101.426ZM130.92 101.426H131.45V133.426H130.92V101.426ZM135.163 101.426H134.632V133.426H135.163V101.426ZM136.755 101.426H138.876V133.426H136.755V101.426ZM142.06 101.426H140.999V133.426H142.06V101.426ZM143.65 101.426H144.18V133.426H143.65V101.426ZM147.894 101.426H145.772V133.426H147.894V101.426ZM150.016 101.426H151.608V133.426H150.016V101.426ZM153.199 101.426H152.669V133.426H153.199V101.426ZM155.32 101.426H157.442V133.426H155.32V101.426ZM159.564 101.426H157.973V133.426H159.564V101.426ZM161.687 101.426H163.278V133.426H161.687V101.426ZM165.4 101.426H164.869V133.426H165.4V101.426ZM167.522 101.426H168.052V133.426H167.522V101.426ZM171.234 101.426H170.173V133.426H171.234V101.426ZM173.357 101.426H174.418V133.426H173.357V101.426ZM178.131 101.426H175.478V133.426H178.131V101.426ZM179.722 101.426H181.844V133.426H179.722V101.426ZM184.496 101.426H182.905V133.426H184.496V101.426ZM185.557 101.426H187.679V133.426H185.557V101.426ZM189.27 101.426H188.74V133.426H189.27V101.426ZM191.922 101.426H192.983V133.426H191.922V101.426ZM195.106 101.426H194.045V133.426H195.106V101.426ZM197.758 101.426H198.819V133.426H197.758V101.426ZM200.941 101.426H200.41V133.426H200.941V101.426ZM203.063 101.426H204.124V133.426H203.063V101.426ZM207.837 101.426H207.306V133.426H207.837V101.426ZM210.489 101.426H212.611V133.426H210.489V101.426ZM215.263 101.426H213.672V133.426H215.263V101.426ZM215.794 101.426H216.855V133.426H215.794V101.426ZM221.098 101.426H219.507V133.426H221.098V101.426ZM221.629 101.426H224.282V133.426H221.629V101.426ZM225.872 101.426H225.342V133.426H225.872V101.426ZM226.933 101.426H227.464V133.426H226.933V101.426ZM231.177 101.426H229.586V133.426H231.177V101.426ZM234.36 101.426H235.951V133.426H234.36V101.426ZM238.074 101.426H237.543V133.426H238.074V101.426ZM239.135 101.426H239.665V133.426H239.135V101.426ZM245.5 101.426H243.909V133.426H245.5V101.426Z" fill="#030319"/>
    <path d="M128.129 144.536C127.277 144.536 126.569 144.812 125.993 145.376C125.417 145.928 125.141 146.624 125.141 147.488C125.141 148.328 125.381 149.012 125.873 149.54C126.377 150.08 127.061 150.356 127.901 150.356C128.345 150.356 128.741 150.26 129.089 150.092C129.449 149.9 129.761 149.624 130.001 149.252H130.049C130.049 149.312 130.061 149.36 130.061 149.408C130.061 150.236 129.881 150.932 129.545 151.484C129.185 152.06 128.717 152.36 128.129 152.36C127.265 152.36 126.737 151.94 126.569 151.112H125.297C125.513 152.66 126.449 153.44 128.117 153.44C129.101 153.44 129.881 152.996 130.469 152.132C131.033 151.268 131.321 150.14 131.321 148.748C131.321 147.428 131.045 146.408 130.517 145.676C129.965 144.908 129.173 144.536 128.129 144.536ZM128.177 145.616C128.681 145.616 129.101 145.784 129.425 146.12C129.737 146.444 129.905 146.888 129.905 147.452C129.905 148.004 129.749 148.46 129.437 148.796C129.125 149.132 128.693 149.3 128.165 149.3C127.625 149.3 127.205 149.132 126.905 148.796C126.581 148.472 126.425 148.04 126.425 147.488C126.425 146.936 126.581 146.492 126.905 146.144C127.217 145.784 127.649 145.616 128.177 145.616ZM136.704 144.536C135.864 144.536 135.18 144.764 134.652 145.244C134.088 145.724 133.776 146.384 133.704 147.236H134.988C135.036 146.708 135.216 146.312 135.504 146.048C135.792 145.784 136.2 145.652 136.716 145.652C137.22 145.652 137.616 145.76 137.88 146C138.12 146.228 138.252 146.552 138.252 146.984C138.252 147.416 138.108 147.752 137.844 147.98C137.58 148.208 137.184 148.328 136.656 148.328H136.044V149.312H136.668C137.232 149.312 137.664 149.432 137.952 149.672C138.264 149.912 138.42 150.284 138.42 150.788C138.42 151.22 138.264 151.568 137.976 151.856C137.64 152.168 137.196 152.336 136.644 152.336C136.14 152.336 135.732 152.192 135.42 151.904C135.06 151.592 134.88 151.148 134.856 150.572H133.536C133.608 151.532 133.944 152.264 134.544 152.768C135.072 153.212 135.78 153.44 136.656 153.44C137.568 153.44 138.324 153.176 138.9 152.672C139.44 152.168 139.716 151.52 139.716 150.728C139.716 150.224 139.572 149.804 139.284 149.48C139.02 149.168 138.636 148.928 138.132 148.772C139.068 148.46 139.548 147.824 139.548 146.888C139.548 146.156 139.284 145.58 138.78 145.16C138.252 144.74 137.568 144.536 136.704 144.536ZM144.2 144.704C143.912 145.016 143.552 145.292 143.12 145.556C142.688 145.796 142.292 145.964 141.908 146.06V147.356C142.7 147.128 143.36 146.768 143.876 146.276V153.272H145.184V144.704H144.2ZM151.246 144.536C150.334 144.536 149.59 144.836 149.038 145.46C148.498 146.036 148.222 146.804 148.21 147.764H149.518C149.542 147.068 149.686 146.552 149.974 146.192C150.25 145.82 150.658 145.64 151.198 145.64C151.702 145.64 152.098 145.76 152.362 146C152.626 146.24 152.758 146.6 152.758 147.08C152.758 147.584 152.554 148.052 152.17 148.484C151.93 148.736 151.522 149.06 150.946 149.468C149.974 150.14 149.326 150.656 149.014 151.028C148.438 151.676 148.162 152.42 148.162 153.272H154.066V152.12H149.782C149.962 151.652 150.514 151.112 151.438 150.5C152.29 149.924 152.878 149.468 153.214 149.12C153.766 148.508 154.054 147.836 154.054 147.092C154.054 146.336 153.79 145.724 153.274 145.244C152.746 144.764 152.062 144.536 151.246 144.536ZM159.593 144.536C158.753 144.536 158.069 144.764 157.541 145.244C156.977 145.724 156.665 146.384 156.593 147.236H157.877C157.925 146.708 158.105 146.312 158.393 146.048C158.681 145.784 159.089 145.652 159.605 145.652C160.109 145.652 160.505 145.76 160.769 146C161.009 146.228 161.141 146.552 161.141 146.984C161.141 147.416 160.997 147.752 160.733 147.98C160.469 148.208 160.073 148.328 159.545 148.328H158.933V149.312H159.557C160.121 149.312 160.553 149.432 160.841 149.672C161.153 149.912 161.309 150.284 161.309 150.788C161.309 151.22 161.153 151.568 160.865 151.856C160.529 152.168 160.085 152.336 159.533 152.336C159.029 152.336 158.621 152.192 158.309 151.904C157.949 151.592 157.769 151.148 157.745 150.572H156.425C156.497 151.532 156.833 152.264 157.433 152.768C157.961 153.212 158.669 153.44 159.545 153.44C160.457 153.44 161.213 153.176 161.789 152.672C162.329 152.168 162.605 151.52 162.605 150.728C162.605 150.224 162.461 149.804 162.173 149.48C161.909 149.168 161.525 148.928 161.021 148.772C161.957 148.46 162.437 147.824 162.437 146.888C162.437 146.156 162.173 145.58 161.669 145.16C161.141 144.74 160.457 144.536 159.593 144.536ZM167.905 144.536C166.993 144.536 166.261 144.776 165.733 145.256C165.253 145.688 165.013 146.228 165.013 146.864C165.013 147.308 165.109 147.68 165.301 147.98C165.517 148.304 165.841 148.544 166.273 148.712V148.748C165.853 148.844 165.505 149.084 165.217 149.468C164.881 149.876 164.713 150.344 164.713 150.884C164.713 151.64 164.989 152.252 165.541 152.732C166.093 153.2 166.885 153.44 167.905 153.44C168.913 153.44 169.705 153.2 170.269 152.732C170.821 152.252 171.097 151.64 171.097 150.884C171.097 150.344 170.929 149.876 170.593 149.468C170.305 149.084 169.945 148.844 169.537 148.748V148.712C169.969 148.544 170.293 148.304 170.509 147.98C170.701 147.68 170.797 147.308 170.797 146.864C170.797 146.228 170.557 145.688 170.077 145.256C169.537 144.776 168.817 144.536 167.905 144.536ZM167.905 145.58C168.433 145.58 168.853 145.712 169.165 146C169.429 146.24 169.573 146.552 169.573 146.912C169.573 147.32 169.453 147.644 169.237 147.884C168.949 148.172 168.505 148.316 167.905 148.316C167.293 148.316 166.849 148.172 166.573 147.884C166.345 147.644 166.237 147.32 166.237 146.912C166.237 146.552 166.369 146.24 166.645 146C166.957 145.712 167.377 145.58 167.905 145.58ZM167.905 149.288C168.529 149.288 168.997 149.444 169.333 149.756C169.645 150.032 169.801 150.404 169.801 150.884C169.801 151.328 169.645 151.688 169.333 151.964C168.985 152.24 168.505 152.384 167.905 152.384C167.293 152.384 166.825 152.24 166.501 151.964C166.165 151.688 166.009 151.328 166.009 150.884C166.009 150.404 166.165 150.032 166.489 149.744C166.801 149.432 167.281 149.288 167.905 149.288ZM176.432 144.536C175.52 144.536 174.776 144.836 174.224 145.46C173.684 146.036 173.408 146.804 173.396 147.764H174.704C174.728 147.068 174.872 146.552 175.16 146.192C175.436 145.82 175.844 145.64 176.384 145.64C176.888 145.64 177.284 145.76 177.548 146C177.812 146.24 177.944 146.6 177.944 147.08C177.944 147.584 177.74 148.052 177.356 148.484C177.116 148.736 176.708 149.06 176.132 149.468C175.16 150.14 174.512 150.656 174.2 151.028C173.624 151.676 173.348 152.42 173.348 153.272H179.252V152.12H174.968C175.148 151.652 175.7 151.112 176.624 150.5C177.476 149.924 178.064 149.468 178.4 149.12C178.952 148.508 179.24 147.836 179.24 147.092C179.24 146.336 178.976 145.724 178.46 145.244C177.932 144.764 177.248 144.536 176.432 144.536ZM184.779 144.536C183.939 144.536 183.255 144.764 182.727 145.244C182.163 145.724 181.851 146.384 181.779 147.236H183.063C183.111 146.708 183.291 146.312 183.579 146.048C183.867 145.784 184.275 145.652 184.791 145.652C185.295 145.652 185.691 145.76 185.955 146C186.195 146.228 186.327 146.552 186.327 146.984C186.327 147.416 186.183 147.752 185.919 147.98C185.655 148.208 185.259 148.328 184.731 148.328H184.119V149.312H184.743C185.307 149.312 185.739 149.432 186.027 149.672C186.339 149.912 186.495 150.284 186.495 150.788C186.495 151.22 186.339 151.568 186.051 151.856C185.715 152.168 185.271 152.336 184.719 152.336C184.215 152.336 183.807 152.192 183.495 151.904C183.135 151.592 182.955 151.148 182.931 150.572H181.611C181.683 151.532 182.019 152.264 182.619 152.768C183.147 153.212 183.855 153.44 184.731 153.44C185.643 153.44 186.399 153.176 186.975 152.672C187.515 152.168 187.791 151.52 187.791 150.728C187.791 150.224 187.647 149.804 187.359 149.48C187.095 149.168 186.711 148.928 186.207 148.772C187.143 148.46 187.623 147.824 187.623 146.888C187.623 146.156 187.359 145.58 186.855 145.16C186.327 144.74 185.643 144.536 184.779 144.536ZM192.275 144.704C191.987 145.016 191.627 145.292 191.195 145.556C190.763 145.796 190.367 145.964 189.983 146.06V147.356C190.775 147.128 191.435 146.768 191.951 146.276V153.272H193.259V144.704H192.275ZM199.273 144.536C198.433 144.536 197.749 144.764 197.221 145.244C196.657 145.724 196.345 146.384 196.273 147.236H197.557C197.605 146.708 197.785 146.312 198.073 146.048C198.361 145.784 198.769 145.652 199.285 145.652C199.789 145.652 200.185 145.76 200.449 146C200.689 146.228 200.821 146.552 200.821 146.984C200.821 147.416 200.677 147.752 200.413 147.98C200.149 148.208 199.753 148.328 199.225 148.328H198.613V149.312H199.237C199.801 149.312 200.233 149.432 200.521 149.672C200.833 149.912 200.989 150.284 200.989 150.788C200.989 151.22 200.833 151.568 200.545 151.856C200.209 152.168 199.765 152.336 199.213 152.336C198.709 152.336 198.301 152.192 197.989 151.904C197.629 151.592 197.449 151.148 197.425 150.572H196.105C196.177 151.532 196.513 152.264 197.113 152.768C197.641 153.212 198.349 153.44 199.225 153.44C200.137 153.44 200.893 153.176 201.469 152.672C202.009 152.168 202.285 151.52 202.285 150.728C202.285 150.224 202.141 149.804 201.853 149.48C201.589 149.168 201.205 148.928 200.701 148.772C201.637 148.46 202.117 147.824 202.117 146.888C202.117 146.156 201.853 145.58 201.349 145.16C200.821 144.74 200.137 144.536 199.273 144.536ZM206.768 144.704C206.48 145.016 206.12 145.292 205.688 145.556C205.256 145.796 204.86 145.964 204.476 146.06V147.356C205.268 147.128 205.928 146.768 206.444 146.276V153.272H207.752V144.704H206.768ZM213.767 144.536C212.927 144.536 212.243 144.764 211.715 145.244C211.151 145.724 210.839 146.384 210.767 147.236H212.051C212.099 146.708 212.279 146.312 212.567 146.048C212.855 145.784 213.263 145.652 213.779 145.652C214.283 145.652 214.679 145.76 214.943 146C215.183 146.228 215.315 146.552 215.315 146.984C215.315 147.416 215.171 147.752 214.907 147.98C214.643 148.208 214.247 148.328 213.719 148.328H213.107V149.312H213.731C214.295 149.312 214.727 149.432 215.015 149.672C215.327 149.912 215.483 150.284 215.483 150.788C215.483 151.22 215.327 151.568 215.039 151.856C214.703 152.168 214.259 152.336 213.707 152.336C213.203 152.336 212.795 152.192 212.483 151.904C212.123 151.592 211.943 151.148 211.919 150.572H210.599C210.671 151.532 211.007 152.264 211.607 152.768C212.135 153.212 212.843 153.44 213.719 153.44C214.631 153.44 215.387 153.176 215.963 152.672C216.503 152.168 216.779 151.52 216.779 150.728C216.779 150.224 216.635 149.804 216.347 149.48C216.083 149.168 215.699 148.928 215.195 148.772C216.131 148.46 216.611 147.824 216.611 146.888C216.611 146.156 216.347 145.58 215.843 145.16C215.315 144.74 214.631 144.536 213.767 144.536ZM221.262 144.704C220.974 145.016 220.614 145.292 220.182 145.556C219.75 145.796 219.354 145.964 218.97 146.06V147.356C219.762 147.128 220.422 146.768 220.938 146.276V153.272H222.246V144.704H221.262ZM228.177 144.536C227.169 144.536 226.389 144.956 225.837 145.808C225.333 146.588 225.081 147.644 225.081 148.988C225.081 150.32 225.333 151.376 225.837 152.168C226.389 153.008 227.169 153.44 228.177 153.44C229.185 153.44 229.965 153.008 230.517 152.168C231.021 151.376 231.273 150.308 231.273 148.988C231.273 147.656 231.021 146.6 230.517 145.808C229.965 144.956 229.185 144.536 228.177 144.536ZM228.177 145.64C228.873 145.64 229.377 146.024 229.665 146.804C229.869 147.332 229.977 148.064 229.977 148.988C229.977 149.9 229.869 150.632 229.665 151.172C229.377 151.94 228.873 152.336 228.177 152.336C227.469 152.336 226.977 151.94 226.689 151.172C226.473 150.632 226.377 149.9 226.377 148.988C226.377 148.064 226.473 147.332 226.689 146.804C226.977 146.024 227.469 145.64 228.177 145.64Z" fill="#030319"/>
</svg>