<svg width="120" height="90" viewBox="0 0 120 90" fill="none" xmlns="http://www.w3.org/2000/svg">
    <rect width="120" height="90" fill="white"/>
    <path d="M12.47 8.18477H13.53V9.29477H17.41V10.3148H13.53V11.5348H16.96V12.5548H9.05V11.5348H12.47V10.3148H8.59V9.29477H12.47V8.18477ZM16.41 13.3348V17.4248H15.35V17.0848H10.66V17.4248H9.6V13.3348H16.41ZM10.66 16.0848H15.35V14.3448H10.66V16.0848ZM23.41 8.17477C23.69 8.59477 23.97 9.06477 24.24 9.56477L23.68 9.84477H25.12C25.38 9.30477 25.61 8.73477 25.81 8.13477L26.8 8.48477C26.6 8.98477 26.38 9.44477 26.14 9.84477H27.35V10.8248H25.21V11.9848H27.05V12.9648H25.21V14.1748H27.62V15.1648H25.21V17.4548H24.17V15.1648H21.77V14.1748H24.17V12.9648H22.32V11.9848H24.17V10.8248H22.01V9.84477H23.33C23.09 9.38477 22.83 8.96477 22.55 8.58477L23.41 8.17477ZM19.67 13.5348C19.35 13.8548 19 14.1848 18.62 14.5148L18.32 13.5048C19.5 12.4448 20.3 11.4248 20.72 10.4248H18.55V9.44477H19.82C19.69 9.06477 19.54 8.70477 19.38 8.36477L20.36 8.08477C20.55 8.57477 20.7 9.02477 20.81 9.44477H21.77V10.3048C21.55 10.9748 21.2 11.6348 20.73 12.2848C21.2 12.5748 21.63 12.9048 22.03 13.2748L21.5 14.0948C21.22 13.7748 20.94 13.4948 20.67 13.2548V17.4448H19.67V13.5348ZM31.39 8.49477H37.47V9.45477H34.74V10.1048H37.02V14.1648H34.7C34.62 14.7648 34.45 15.2748 34.19 15.7048C35.19 16.1848 36.35 16.4448 37.67 16.5048L37.42 17.4648C35.95 17.3848 34.66 17.0448 33.56 16.4448C33.02 16.8848 32.27 17.2248 31.31 17.4748L30.78 16.6348C31.61 16.4148 32.23 16.1648 32.65 15.8848C32.22 15.5748 31.83 15.2248 31.47 14.8348L32.24 14.3048C32.56 14.6448 32.92 14.9448 33.3 15.2048C33.48 14.8948 33.6 14.5448 33.67 14.1648H31.45V10.1048H33.72V9.45477H31.39V8.49477ZM36.05 13.3248V12.5448H34.74V13.3248H36.05ZM33.72 13.3248V12.5448H32.42V13.3248H33.72ZM32.42 11.7048H33.72V10.9448H32.42V11.7048ZM34.74 10.9448V11.7048H36.05V10.9448H34.74ZM29.4 12.2548C29.16 12.5748 28.91 12.8948 28.65 13.2048L28.3 12.0948C29.17 10.9748 29.82 9.65477 30.24 8.13477L31.18 8.58477C30.98 9.26477 30.73 9.91477 30.43 10.5348V17.4448H29.4V12.2548ZM38.54 10.7548H40.37V9.75477C39.89 9.83477 39.4 9.88477 38.92 9.92477L38.6 8.96477C40.27 8.82477 41.6 8.55477 42.59 8.16477L43.1 9.02477C42.56 9.22477 42 9.40477 41.43 9.54477V10.7548H43.2V11.7648H41.43V12.0148C42.04 12.5148 42.66 13.0648 43.29 13.6848L42.68 14.6248C42.19 13.9948 41.77 13.4948 41.43 13.1148V17.4248H40.37V13.5048C39.93 14.3048 39.4 15.0348 38.76 15.7148L38.28 14.4848C39.22 13.6848 39.92 12.7848 40.37 11.7848V11.7648H38.54V10.7548ZM43.82 9.10477H44.86V15.2148H43.82V9.10477ZM46.14 17.3348H44.65L44.43 16.3248C44.9 16.3648 45.35 16.3848 45.78 16.3848C46.01 16.3848 46.13 16.2448 46.13 15.9648V8.20477H47.19V16.2348C47.19 16.9648 46.84 17.3348 46.14 17.3348ZM53.07 10.3148H54.12V11.3548H57.26V12.3348H54.12V13.5348H56.73V17.4248H55.7V17.0048H51.88V17.4248H50.84V13.5348H53.07V10.3148ZM51.88 16.0248H55.7V14.4948H51.88V16.0248ZM53.43 8.11477C53.58 8.39477 53.72 8.70477 53.86 9.04477H57.49V10.0448H50.28V12.0848C50.25 14.2848 49.89 16.0548 49.2 17.3848L48.4 16.6748C48.94 15.5748 49.23 14.0448 49.25 12.0848V9.04477H52.78C52.64 8.77477 52.5 8.52477 52.34 8.29477L53.43 8.11477Z" fill="#222222"/>
    <path d="M9.728 25.0968H14.272V27.8888H9.728V25.0968ZM13.512 27.1688V25.8168H10.488V27.1688H13.512ZM11.616 28.4888V32.0888H10.88V31.7048H9.4V32.0888H8.656V28.4888H11.616ZM9.4 30.9928H10.88V29.2088H9.4V30.9928ZM15.344 28.4888V32.0888H14.584V31.7048H13.04V32.0888H12.296V28.4888H15.344ZM13.04 30.9928H14.584V29.2088H13.04V30.9928ZM18.936 31.7608V32.1848H18.176V29.4408C17.728 29.5768 17.248 29.7048 16.744 29.8248L16.344 29.0888C17.68 28.8328 18.792 28.5048 19.688 28.0888C19.352 27.8168 18.904 27.5208 18.36 27.2088L19.016 26.8008C19.576 27.1448 20.016 27.4568 20.344 27.7368C21.072 27.2968 21.608 26.7848 21.96 26.2088H19.192C18.648 26.7048 17.968 27.1528 17.136 27.5528L16.624 26.8968C17.976 26.3208 18.888 25.6248 19.368 24.8008L20.2 24.8968C20.088 25.1048 19.968 25.3048 19.832 25.4968H22.832V26.1688C22.312 27.1848 21.376 28.0328 20.024 28.7048H23.088V32.1848H22.32V31.7608H18.936ZM22.32 31.0248V29.4088H18.936V31.0248H22.32ZM26 26.4088C26.16 26.4088 26.304 26.4648 26.424 26.5848C26.536 26.6968 26.6 26.8408 26.6 27.0088C26.6 27.1688 26.536 27.3128 26.424 27.4248C26.304 27.5368 26.16 27.6008 26 27.6008C25.832 27.6008 25.688 27.5368 25.576 27.4248C25.464 27.3128 25.408 27.1688 25.408 27.0088C25.408 26.8408 25.464 26.6968 25.576 26.5848C25.688 26.4648 25.832 26.4088 26 26.4088ZM26 29.3368C26.16 29.3368 26.304 29.3928 26.424 29.5128C26.536 29.6248 26.6 29.7688 26.6 29.9368C26.6 30.0968 26.536 30.2408 26.424 30.3528C26.304 30.4648 26.16 30.5288 26 30.5288C25.832 30.5288 25.688 30.4648 25.576 30.3528C25.464 30.2408 25.408 30.0968 25.408 29.9368C25.408 29.7688 25.464 29.6248 25.576 29.5128C25.688 29.3928 25.832 29.3368 26 29.3368Z" fill="#222222"/>
    <path d="M34.416 25.2648H41.6V26.0008H40.592V31.2888C40.592 31.8648 40.312 32.1528 39.768 32.1528H38.424L38.248 31.4168C38.688 31.4408 39.104 31.4568 39.504 31.4568C39.72 31.4568 39.832 31.3368 39.832 31.0968V26.0008H34.416V25.2648ZM38.544 27.0408V30.1208H36.024V30.7768H35.296V27.0408H38.544ZM36.024 29.4328H37.824V27.7208H36.024V29.4328ZM48.992 25.7208V32.0808H48.216V31.6248H43.784V32.0808H43.016V25.7208H48.992ZM43.784 30.8808H48.216V26.4648H43.784V30.8808ZM50.416 25.2648H57.6V26.0008H56.592V31.2888C56.592 31.8648 56.312 32.1528 55.768 32.1528H54.424L54.248 31.4168C54.688 31.4408 55.104 31.4568 55.504 31.4568C55.72 31.4568 55.832 31.3368 55.832 31.0968V26.0008H50.416V25.2648ZM54.544 27.0408V30.1208H52.024V30.7768H51.296V27.0408H54.544ZM52.024 29.4328H53.824V27.7208H52.024V29.4328ZM58.752 28.6248C59.024 27.3768 59.216 26.2728 59.328 25.3128C59.52 25.3448 59.728 25.3688 59.936 25.3768C61.792 25.3688 63.296 25.1848 64.448 24.8328L64.808 25.4728C63.568 25.8088 61.944 25.9928 59.944 26.0248C59.832 26.7128 59.712 27.3288 59.592 27.8808H61.68V26.4088H62.448V27.8808H65.304V28.6248H62.448V31.3048C62.448 31.8808 62.168 32.1768 61.624 32.1768H60.544L60.376 31.4328C60.72 31.4648 61.048 31.4808 61.36 31.4808C61.568 31.4808 61.68 31.3528 61.68 31.1128V28.6248H58.752ZM59.768 29.1288L60.44 29.4568C60.04 30.3848 59.576 31.1928 59.048 31.8808L58.384 31.4008C58.92 30.7688 59.384 30.0088 59.768 29.1288ZM64.088 29.0888C64.552 29.8328 65 30.6488 65.432 31.5448L64.712 31.9048C64.312 30.9768 63.88 30.1448 63.416 29.4088L64.088 29.0888Z" fill="#222222"/>
    <path d="M8.544 38.9048H9.632V37.8728H10.392V38.9048H11.376V39.6328H10.392V40.7768H11.488V41.5048H10.36C10.344 41.6808 10.32 41.8488 10.304 42.0088C10.736 42.4088 11.176 42.8488 11.624 43.3448L11.192 43.9928C10.792 43.4408 10.456 43.0168 10.184 42.7128C9.944 43.7848 9.52 44.6248 8.912 45.2328L8.344 44.7368C9.064 44.0168 9.48 42.9448 9.6 41.5048H8.432V40.7768H9.632V39.6328H8.544V38.9048ZM15.152 38.1128V42.5848H14.424V38.8088H12.464V42.5848H11.736V38.1128H15.152ZM14.864 45.0888H14.16C13.704 45.0888 13.48 44.8408 13.48 44.3608V42.8968C13.384 43.1928 13.264 43.4568 13.128 43.6888C12.728 44.3528 12.072 44.8648 11.176 45.2328L10.784 44.6008C11.664 44.2328 12.264 43.7608 12.584 43.1928C12.896 42.5848 13.064 41.8008 13.096 40.8328V39.3608H13.792V40.8328C13.776 41.4888 13.696 42.0808 13.568 42.5928H14.176V44.2088C14.176 44.3448 14.24 44.4168 14.376 44.4168H14.744C14.84 44.4168 14.904 44.3768 14.952 44.2968C15 44.2008 15.04 43.9288 15.064 43.4648L15.712 43.6728C15.664 44.3608 15.568 44.7688 15.44 44.9048C15.312 45.0248 15.12 45.0888 14.864 45.0888ZM18.168 41.2888V45.1768H17.424V41.4808C17.192 42.1448 16.904 42.7528 16.568 43.3048L16.24 42.4808C16.768 41.7768 17.16 40.9688 17.408 40.0568H16.424V39.3288H17.424V37.8328H18.168V39.3288H18.976V40.0568H18.168V40.4168C18.488 40.7688 18.8 41.1448 19.12 41.5608C19.76 41.3048 20.32 41.0168 20.8 40.6968C20.512 40.4248 20.264 40.1448 20.056 39.8488C19.88 40.0648 19.688 40.2648 19.496 40.4568L19.016 39.8728C19.56 39.3768 20.024 38.6968 20.408 37.8168L21.136 37.9848C21.056 38.1608 20.984 38.3368 20.904 38.4968H23.072V39.0808C22.8 39.6888 22.416 40.2328 21.912 40.7128C22.432 41.0488 23.04 41.3288 23.728 41.5688L23.384 42.2888C22.592 41.9528 21.92 41.5848 21.368 41.1688C20.872 41.5368 20.288 41.8568 19.632 42.1288H23.016V45.1928H22.28V44.8888H20.304V45.1928H19.56V42.1608C19.432 42.2088 19.304 42.2568 19.184 42.3048L18.952 42.0008L18.768 42.2808C18.536 41.8808 18.336 41.5528 18.168 41.2888ZM20.304 44.1848H22.28V42.8328H20.304V44.1848ZM21.32 40.2888C21.696 39.9528 22 39.6008 22.232 39.2168H20.496C20.472 39.2488 20.448 39.2888 20.432 39.3208C20.664 39.6728 20.96 39.9928 21.32 40.2888ZM26 39.4088C26.16 39.4088 26.304 39.4648 26.424 39.5848C26.536 39.6968 26.6 39.8408 26.6 40.0088C26.6 40.1688 26.536 40.3128 26.424 40.4248C26.304 40.5368 26.16 40.6008 26 40.6008C25.832 40.6008 25.688 40.5368 25.576 40.4248C25.464 40.3128 25.408 40.1688 25.408 40.0088C25.408 39.8408 25.464 39.6968 25.576 39.5848C25.688 39.4648 25.832 39.4088 26 39.4088ZM26 42.3368C26.16 42.3368 26.304 42.3928 26.424 42.5128C26.536 42.6248 26.6 42.7688 26.6 42.9368C26.6 43.0968 26.536 43.2408 26.424 43.3528C26.304 43.4648 26.16 43.5288 26 43.5288C25.832 43.5288 25.688 43.4648 25.576 43.3528C25.464 43.2408 25.408 43.0968 25.408 42.9368C25.408 42.7688 25.464 42.6248 25.576 42.5128C25.688 42.3928 25.832 42.3368 26 42.3368Z" fill="#222222"/>
    <path d="M36.456 38.5608C37.032 38.5608 37.488 38.6968 37.84 38.9768C38.176 39.2568 38.352 39.6408 38.352 40.1288C38.352 40.7528 38.032 41.1768 37.408 41.3848C37.744 41.4888 38 41.6488 38.176 41.8568C38.368 42.0728 38.464 42.3528 38.464 42.6888C38.464 43.2168 38.28 43.6488 37.92 43.9848C37.536 44.3208 37.032 44.4968 36.424 44.4968C35.84 44.4968 35.368 44.3448 35.016 44.0488C34.616 43.7128 34.392 43.2248 34.344 42.5848H35.224C35.24 42.9688 35.36 43.2648 35.6 43.4728C35.808 43.6648 36.08 43.7608 36.416 43.7608C36.784 43.7608 37.08 43.6488 37.304 43.4408C37.496 43.2488 37.6 43.0168 37.6 42.7288C37.6 42.3928 37.496 42.1448 37.288 41.9848C37.096 41.8248 36.808 41.7448 36.432 41.7448H36.016V41.0888H36.424C36.776 41.0888 37.04 41.0088 37.216 40.8568C37.392 40.7048 37.488 40.4808 37.488 40.1928C37.488 39.9048 37.4 39.6888 37.24 39.5368C37.064 39.3768 36.8 39.3048 36.464 39.3048C36.12 39.3048 35.848 39.3928 35.656 39.5688C35.464 39.7448 35.344 40.0088 35.312 40.3608H34.456C34.504 39.7928 34.712 39.3528 35.088 39.0328C35.44 38.7128 35.896 38.5608 36.456 38.5608ZM41.2529 38.5608C41.8289 38.5608 42.2849 38.6968 42.6369 38.9768C42.9729 39.2568 43.1489 39.6408 43.1489 40.1288C43.1489 40.7528 42.8289 41.1768 42.2049 41.3848C42.5409 41.4888 42.7969 41.6488 42.9729 41.8568C43.1649 42.0728 43.2609 42.3528 43.2609 42.6888C43.2609 43.2168 43.0769 43.6488 42.7169 43.9848C42.3329 44.3208 41.8289 44.4968 41.2209 44.4968C40.6369 44.4968 40.1649 44.3448 39.8129 44.0488C39.4129 43.7128 39.1889 43.2248 39.1409 42.5848H40.0209C40.0369 42.9688 40.1569 43.2648 40.3969 43.4728C40.6049 43.6648 40.8769 43.7608 41.2129 43.7608C41.5809 43.7608 41.8769 43.6488 42.1009 43.4408C42.2929 43.2488 42.3969 43.0168 42.3969 42.7288C42.3969 42.3928 42.2929 42.1448 42.0849 41.9848C41.8929 41.8248 41.6049 41.7448 41.2289 41.7448H40.8129V41.0888H41.2209C41.5729 41.0888 41.8369 41.0088 42.0129 40.8568C42.1889 40.7048 42.2849 40.4808 42.2849 40.1928C42.2849 39.9048 42.1969 39.6888 42.0369 39.5368C41.8609 39.3768 41.5969 39.3048 41.2609 39.3048C40.9169 39.3048 40.6449 39.3928 40.4529 39.5688C40.2609 39.7448 40.1409 40.0088 40.1089 40.3608H39.2529C39.3009 39.7928 39.5089 39.3528 39.8849 39.0328C40.2369 38.7128 40.6929 38.5608 41.2529 38.5608ZM45.9938 38.5608C46.6658 38.5608 47.1858 38.8408 47.5538 39.4088C47.8898 39.9368 48.0578 40.6408 48.0578 41.5288C48.0578 42.4088 47.8898 43.1208 47.5538 43.6488C47.1858 44.2088 46.6658 44.4968 45.9938 44.4968C45.3218 44.4968 44.8018 44.2088 44.4338 43.6488C44.0978 43.1208 43.9298 42.4168 43.9298 41.5288C43.9298 40.6328 44.0978 39.9288 44.4338 39.4088C44.8018 38.8408 45.3218 38.5608 45.9938 38.5608ZM45.9938 39.2968C45.5218 39.2968 45.1938 39.5528 45.0018 40.0728C44.8578 40.4248 44.7938 40.9128 44.7938 41.5288C44.7938 42.1368 44.8578 42.6248 45.0018 42.9848C45.1938 43.4968 45.5218 43.7608 45.9938 43.7608C46.4578 43.7608 46.7938 43.4968 46.9858 42.9848C47.1218 42.6248 47.1938 42.1368 47.1938 41.5288C47.1938 40.9128 47.1218 40.4248 46.9858 40.0728C46.7938 39.5528 46.4578 39.2968 45.9938 39.2968ZM48.9506 38.6728H49.9826L51.9746 43.2488H51.9986L53.9826 38.6728H55.0146V44.3848H54.1426V40.3048H54.1106L52.3586 44.3848H51.6066L49.8546 40.3048H49.8226V44.3848H48.9506V38.6728ZM56.1381 38.6728H57.0021V43.6408H60.1461V44.3848H56.1381V38.6728Z" fill="#222222"/>
    <path d="M13.152 50.8488H13.896V53.0008H15.384V57.2488C15.384 57.8568 15.12 58.1608 14.592 58.1608H13.816L13.616 57.4328L14.344 57.4728C14.528 57.4728 14.624 57.3368 14.624 57.0808V56.4648H12.416V58.1768H11.656V53.0008H13.152V50.8488ZM12.416 55.0968V55.8248H14.624V55.0968H12.416ZM14.624 54.4488V53.7208H12.416V54.4488H14.624ZM12.088 51.1528C12.328 51.5528 12.568 51.9848 12.792 52.4648L12.176 52.7768C11.952 52.2808 11.712 51.8488 11.448 51.4648L12.088 51.1528ZM14.96 51.0728L15.592 51.3688C15.4 51.8488 15.144 52.3208 14.84 52.7768L14.224 52.4568C14.528 51.9928 14.776 51.5288 14.96 51.0728ZM9.296 50.8408L10.032 50.9928C9.968 51.2248 9.904 51.4488 9.84 51.6648H11.208V52.3848H9.584C9.456 52.7048 9.312 53.0088 9.168 53.2888H11.072V53.9688H10.304V54.7928H11.344V55.4968H10.304V57.1528C10.64 57.0248 10.984 56.8568 11.32 56.6568L11.448 57.3288C10.912 57.6168 10.296 57.8488 9.592 58.0328L9.28 57.3848C9.472 57.3128 9.568 57.2088 9.568 57.0808V55.4968H8.528V54.7928H9.568V53.9688H9.144V53.3448C9.048 53.5128 8.96 53.6728 8.864 53.8328L8.248 53.4408C8.744 52.6408 9.088 51.7688 9.296 50.8408ZM22.912 55.8088V58.2408H22.168V57.8968H18.12V58.2408H17.368V55.8088H22.912ZM18.12 57.2408H22.168V56.4488H18.12V57.2408ZM17.384 53.1448C17.128 53.4248 16.848 53.6968 16.544 53.9608L16.304 53.2168C17.112 52.4728 17.68 51.6648 18.008 50.7928L18.752 50.9368C18.672 51.1528 18.576 51.3608 18.48 51.5608H20.224C20.112 51.3208 19.992 51.0968 19.864 50.8888L20.648 50.7608C20.76 51.0008 20.864 51.2648 20.976 51.5608H23.232V52.1848H20.888V52.6328H22.88V53.2248H20.888V53.6488H22.896V54.2408H20.888V54.6968H23.376V55.3288H17.384V53.1448ZM20.136 54.6968V54.2408H18.104V54.6968H20.136ZM20.136 53.6488V53.2248H18.104V53.6488H20.136ZM20.136 52.6328V52.1848H18.12C18.112 52.1928 18.104 52.2008 18.104 52.2088V52.6328H20.136ZM25.248 53.8888C25.016 54.2088 24.768 54.5128 24.512 54.8008L24.256 53.9848C25 53.0728 25.552 52.0088 25.904 50.7928L26.616 51.1288C26.456 51.6488 26.256 52.1448 26.016 52.6248V58.1688H25.248V53.8888ZM29.544 53.6488H30.28V58.1368H29.544V53.6488ZM27.528 53.6728H28.264V54.8568C28.248 56.4008 27.856 57.5288 27.088 58.2408L26.52 57.7448C27.176 57.1448 27.512 56.1848 27.528 54.8568V53.6728ZM28.536 50.8648H29.232C29.72 51.9048 30.56 52.8088 31.744 53.5928L31.32 54.2408C30.232 53.5208 29.416 52.6408 28.88 51.5928C28.272 52.7688 27.496 53.6808 26.56 54.3208L26.136 53.6728C27.176 52.9528 27.976 52.0168 28.536 50.8648ZM34 52.4088C34.16 52.4088 34.304 52.4648 34.424 52.5848C34.536 52.6968 34.6 52.8408 34.6 53.0088C34.6 53.1688 34.536 53.3128 34.424 53.4248C34.304 53.5368 34.16 53.6008 34 53.6008C33.832 53.6008 33.688 53.5368 33.576 53.4248C33.464 53.3128 33.408 53.1688 33.408 53.0088C33.408 52.8408 33.464 52.6968 33.576 52.5848C33.688 52.4648 33.832 52.4088 34 52.4088ZM34 55.3368C34.16 55.3368 34.304 55.3928 34.424 55.5128C34.536 55.6248 34.6 55.7688 34.6 55.9368C34.6 56.0968 34.536 56.2408 34.424 56.3528C34.304 56.4648 34.16 56.5288 34 56.5288C33.832 56.5288 33.688 56.4648 33.576 56.3528C33.464 56.2408 33.408 56.0968 33.408 55.9368C33.408 55.7688 33.464 55.6248 33.576 55.5128C33.688 55.3928 33.832 55.3368 34 55.3368Z" fill="#222222"/>
    <path d="M44.456 51.5608C45.032 51.5608 45.488 51.6968 45.84 51.9768C46.176 52.2568 46.352 52.6408 46.352 53.1288C46.352 53.7528 46.032 54.1768 45.408 54.3848C45.744 54.4888 46 54.6488 46.176 54.8568C46.368 55.0728 46.464 55.3528 46.464 55.6888C46.464 56.2168 46.28 56.6488 45.92 56.9848C45.536 57.3208 45.032 57.4968 44.424 57.4968C43.84 57.4968 43.368 57.3448 43.016 57.0488C42.616 56.7128 42.392 56.2248 42.344 55.5848H43.224C43.24 55.9688 43.36 56.2648 43.6 56.4728C43.808 56.6648 44.08 56.7608 44.416 56.7608C44.784 56.7608 45.08 56.6488 45.304 56.4408C45.496 56.2488 45.6 56.0168 45.6 55.7288C45.6 55.3928 45.496 55.1448 45.288 54.9848C45.096 54.8248 44.808 54.7448 44.432 54.7448H44.016V54.0888H44.424C44.776 54.0888 45.04 54.0088 45.216 53.8568C45.392 53.7048 45.488 53.4808 45.488 53.1928C45.488 52.9048 45.4 52.6888 45.24 52.5368C45.064 52.3768 44.8 52.3048 44.464 52.3048C44.12 52.3048 43.848 52.3928 43.656 52.5688C43.464 52.7448 43.344 53.0088 43.312 53.3608H42.456C42.504 52.7928 42.712 52.3528 43.088 52.0328C43.44 51.7128 43.896 51.5608 44.456 51.5608ZM47.9729 51.2088H53.5489V51.9448H47.9729V51.2088ZM47.3569 53.5608H54.2449V54.2968H52.1009V57.0808C52.1009 57.2888 52.1969 57.4008 52.3969 57.4008H53.2769C53.3969 57.4008 53.4849 57.3368 53.5409 57.2168C53.6129 57.0808 53.6609 56.6808 53.6769 56.0088L54.3649 56.2328C54.3089 57.1288 54.2049 57.6568 54.0609 57.8328C53.9169 57.9928 53.7089 58.0808 53.4209 58.0808H52.1809C51.6369 58.0808 51.3649 57.8008 51.3649 57.2408V54.2968H50.1009V54.4408C50.0689 55.4648 49.8449 56.2888 49.4449 56.9048C49.0449 57.4728 48.4049 57.9128 47.5089 58.2328L47.1009 57.5928C47.9649 57.2808 48.5489 56.8888 48.8609 56.4168C49.1649 55.9048 49.3329 55.2488 49.3649 54.4408V54.2968H47.3569V53.5608Z" fill="#222222"/>
    <path d="M8.976 73.624H11.64V72.96H12.408V73.624H15V74.344H12.408V75.976C12.408 76.52 12.128 76.8 11.568 76.8H10.688L10.512 76.072C10.792 76.104 11.056 76.12 11.304 76.12C11.528 76.12 11.64 76.008 11.64 75.784V74.344H8.976V73.624ZM10.248 74.712L10.776 75.176C10.28 75.744 9.68 76.24 8.968 76.664L8.472 76.016C9.176 75.648 9.768 75.208 10.248 74.712ZM14.848 76.632C14.32 76.096 13.736 75.6 13.096 75.136L13.584 74.664C14.096 74.976 14.696 75.448 15.4 76.08L14.848 76.632ZM10.856 69.368L11.592 69.528C11.488 69.688 11.384 69.84 11.28 69.992H14.304V70.576C13.872 71.096 13.36 71.552 12.768 71.936C13.6 72.256 14.568 72.48 15.68 72.616L15.328 73.312C14.04 73.128 12.936 72.816 12.016 72.368C11.072 72.848 9.952 73.192 8.664 73.4L8.328 72.72C9.44 72.568 10.416 72.312 11.264 71.96C10.88 71.72 10.544 71.464 10.24 71.176C9.936 71.448 9.616 71.696 9.28 71.92L8.792 71.336C9.592 70.856 10.28 70.2 10.856 69.368ZM10.704 70.704C11.072 71.048 11.504 71.344 12.008 71.6C12.504 71.328 12.952 71.016 13.336 70.664H10.744L10.704 70.704ZM16.472 69.704H20.512V70.416H19.776V72.528H20.632V73.264H19.776V76.768H19V73.264H17.984C17.912 74.848 17.552 76.024 16.912 76.784L16.344 76.288C16.864 75.632 17.152 74.624 17.216 73.264H16.328V72.528H17.232V70.416H16.472V69.704ZM18 70.416V72.528H19V70.416H18ZM22.736 69.464L23.232 70.04C22.576 70.696 21.776 71.24 20.824 71.672L20.504 70.976C21.408 70.592 22.152 70.088 22.736 69.464ZM23.088 71.6L23.584 72.176C22.928 72.888 22.12 73.48 21.16 73.944L20.84 73.256C21.752 72.84 22.496 72.288 23.088 71.6ZM23.28 73.816L23.784 74.392C22.968 75.368 21.96 76.168 20.776 76.808L20.448 76.104C21.6 75.528 22.544 74.76 23.28 73.816ZM27.112 72.192V76.408H26.408V76.016H25.72V76.56H25.016V73.544C24.888 73.752 24.76 73.952 24.624 74.144L24.248 73.536C24.8 72.656 25.168 71.664 25.36 70.56H24.48V69.824H27.256V70.56H26.08C25.976 71.144 25.832 71.688 25.648 72.192H27.112ZM25.72 75.32H26.408V72.88H25.72V75.32ZM28.016 70.904L28.76 70.952L28.424 72.872H29.952L30.312 70.432H27.576V69.712H31.144L30.72 72.872H31.536C31.536 74.872 31.416 76.024 31.192 76.328C30.96 76.632 30.472 76.784 29.736 76.784C29.512 76.784 29.272 76.768 29.032 76.752L28.824 76.016C29.176 76.056 29.416 76.08 29.552 76.08C30.152 76.08 30.512 75.96 30.624 75.72C30.752 75.472 30.816 74.76 30.816 73.584H27.584L28.016 70.904ZM27.4 74.424H30.376V75.144H27.4V74.424ZM34 71.024C34.16 71.024 34.304 71.08 34.424 71.2C34.536 71.312 34.6 71.456 34.6 71.624C34.6 71.784 34.536 71.928 34.424 72.04C34.304 72.152 34.16 72.216 34 72.216C33.832 72.216 33.688 72.152 33.576 72.04C33.464 71.928 33.408 71.784 33.408 71.624C33.408 71.456 33.464 71.312 33.576 71.2C33.688 71.08 33.832 71.024 34 71.024ZM34 73.952C34.16 73.952 34.304 74.008 34.424 74.128C34.536 74.24 34.6 74.384 34.6 74.552C34.6 74.712 34.536 74.856 34.424 74.968C34.304 75.08 34.16 75.144 34 75.144C33.832 75.144 33.688 75.08 33.576 74.968C33.464 74.856 33.408 74.712 33.408 74.552C33.408 74.384 33.464 74.24 33.576 74.128C33.688 74.008 33.832 73.952 34 73.952Z" fill="#222222"/>
    <path d="M42.689 62.3848H42V79.6106H42.689V62.3848Z" fill="#222222"/>
    <path d="M43.3797 62.3848H43.0352V79.6106H43.3797V62.3848Z" fill="#222222"/>
    <path d="M44.4109 62.3848H44.0664V79.6106H44.4109V62.3848Z" fill="#222222"/>
    <path d="M46.1336 62.3848H45.7891V79.6106H46.1336V62.3848Z" fill="#222222"/>
    <path d="M47.857 62.3848H47.168V79.6106H47.857V62.3848Z" fill="#222222"/>
    <path d="M48.5437 62.3848H48.1992V79.6106H48.5437V62.3848Z" fill="#222222"/>
    <path d="M50.9562 62.3848H49.5781V79.6106H50.9562V62.3848Z" fill="#222222"/>
    <path d="M51.993 62.3848H51.6484V79.6106H51.993V62.3848Z" fill="#222222"/>
    <path d="M53.0242 62.3848H52.6797V79.6106H53.0242V62.3848Z" fill="#222222"/>
    <path d="M53.7156 62.3848H53.3711V79.6106H53.7156V62.3848Z" fill="#222222"/>
    <path d="M54.7469 62.3848H54.4023V79.6106H54.7469V62.3848Z" fill="#222222"/>
    <path d="M55.7789 62.3848H55.0898V79.6106H55.7789V62.3848Z" fill="#222222"/>
    <path d="M58.5382 62.3848H57.1602V79.6106H58.5382V62.3848Z" fill="#222222"/>
    <path d="M59.9164 62.3848H58.8828V79.6106H59.9164V62.3848Z" fill="#222222"/>
    <path d="M60.6023 62.3848H60.2578V79.6106H60.6023V62.3848Z" fill="#222222"/>
    <path d="M61.2937 62.3848H60.9492V79.6106H61.2937V62.3848Z" fill="#222222"/>
    <path d="M61.9812 62.3848H61.6367V79.6106H61.9812V62.3848Z" fill="#222222"/>
    <path d="M64.0499 62.3848H62.6719V79.6106H64.0499V62.3848Z" fill="#222222"/>
    <path d="M65.4273 62.3848H64.7383V79.6106H65.4273V62.3848Z" fill="#222222"/>
    <path d="M66.4578 62.3848H66.1133V79.6106H66.4578V62.3848Z" fill="#222222"/>
    <path d="M67.1531 62.3848H66.8086V79.6106H67.1531V62.3848Z" fill="#222222"/>
    <path d="M68.8719 62.3848H68.5273V79.6106H68.8719V62.3848Z" fill="#222222"/>
    <path d="M69.9039 62.3848H69.2148V79.6106H69.9039V62.3848Z" fill="#222222"/>
    <path d="M70.9422 62.3848H70.5977V79.6106H70.9422V62.3848Z" fill="#222222"/>
    <path d="M73.0054 62.3848H72.3164V79.6106H73.0054V62.3848Z" fill="#222222"/>
    <path d="M74.0406 62.3848H73.3516V79.6106H74.0406V62.3848Z" fill="#222222"/>
    <path d="M75.4195 62.3848H74.7305V79.6106H75.4195V62.3848Z" fill="#222222"/>
    <path d="M76.45 62.3848H76.1055V79.6106H76.45V62.3848Z" fill="#222222"/>
    <path d="M77.8304 62.3848H76.7969V79.6106H77.8304V62.3848Z" fill="#222222"/>
    <path d="M79.5538 62.3848H78.1758V79.6106H79.5538V62.3848Z" fill="#222222"/>
    <path d="M80.239 62.3848H79.8945V79.6106H80.239V62.3848Z" fill="#222222"/>
    <path d="M81.275 62.3848H80.5859V79.6106H81.275V62.3848Z" fill="#222222"/>
    <path d="M82.9984 62.3848H81.9648V79.6106H82.9984V62.3848Z" fill="#222222"/>
    <path d="M84.032 62.3848H83.6875V79.6106H84.032V62.3848Z" fill="#222222"/>
    <path d="M85.407 62.3848H85.0625V79.6106H85.407V62.3848Z" fill="#222222"/>
    <path d="M86.439 62.3848H85.75V79.6106H86.439V62.3848Z" fill="#222222"/>
    <path d="M87.8211 62.3848H87.4766V79.6106H87.8211V62.3848Z" fill="#222222"/>
    <path d="M88.857 62.3848H88.168V79.6106H88.857V62.3848Z" fill="#222222"/>
    <path d="M90.2289 62.3848H89.1953V79.6106H90.2289V62.3848Z" fill="#222222"/>
    <path d="M91.9547 62.3848H91.2656V79.6106H91.9547V62.3848Z" fill="#222222"/>
    <path d="M94.0218 62.3848H92.9883V79.6106H94.0218V62.3848Z" fill="#222222"/>
    <path d="M94.7117 62.3848H94.3672V79.6106H94.7117V62.3848Z" fill="#222222"/>
    <path d="M95.7437 62.3848H95.0547V79.6106H95.7437V62.3848Z" fill="#222222"/>
    <path d="M54.8533 81.7482C55.4053 81.7482 55.7213 82.0042 55.7933 82.5242H55.3693C55.3093 82.2442 55.1373 82.1082 54.8493 82.1082C54.6493 82.1082 54.4933 82.2042 54.3773 82.4002C54.2613 82.5842 54.2053 82.8122 54.2053 83.0922C54.2053 83.1042 54.2053 83.1202 54.2093 83.1442H54.2253C54.3053 83.0162 54.4053 82.9242 54.5293 82.8642C54.6413 82.8042 54.7733 82.7762 54.9253 82.7762C55.2053 82.7762 55.4293 82.8642 55.5973 83.0402C55.7613 83.2202 55.8453 83.4522 55.8453 83.7322C55.8453 84.0162 55.7493 84.2522 55.5613 84.4362C55.3693 84.6202 55.1293 84.7162 54.8493 84.7162C54.4973 84.7162 54.2333 84.5882 54.0493 84.3322C53.8733 84.0882 53.7853 83.7482 53.7853 83.3122C53.7853 82.8482 53.8773 82.4722 54.0693 82.1842C54.2613 81.8922 54.5253 81.7482 54.8533 81.7482ZM54.8373 83.1282C54.6573 83.1282 54.5173 83.1842 54.4133 83.2962C54.3093 83.4082 54.2573 83.5562 54.2573 83.7442C54.2573 83.9282 54.3093 84.0762 54.4173 84.1882C54.5213 84.3002 54.6613 84.3562 54.8333 84.3562C55.0093 84.3562 55.1493 84.2962 55.2533 84.1802C55.3613 84.0602 55.4173 83.9122 55.4173 83.7322C55.4173 83.5482 55.3653 83.4002 55.2613 83.2962C55.1573 83.1842 55.0133 83.1282 54.8373 83.1282ZM57.1797 81.7482C57.5277 81.7482 57.7917 81.8722 57.9757 82.1282C58.1517 82.3722 58.2437 82.7122 58.2437 83.1522C58.2437 83.6162 58.1477 83.9922 57.9597 84.2802C57.7637 84.5682 57.5037 84.7162 57.1757 84.7162C56.6197 84.7162 56.3077 84.4562 56.2357 83.9402H56.6597C56.7157 84.2162 56.8917 84.3562 57.1797 84.3562C57.3757 84.3562 57.5317 84.2562 57.6517 84.0642C57.7637 83.8802 57.8237 83.6482 57.8237 83.3722C57.8237 83.3562 57.8197 83.3402 57.8197 83.3202H57.8037C57.7237 83.4442 57.6197 83.5362 57.4997 83.6002C57.3837 83.6562 57.2517 83.6882 57.1037 83.6882C56.8237 83.6882 56.5957 83.5962 56.4277 83.4162C56.2637 83.2402 56.1837 83.0122 56.1837 82.7322C56.1837 82.4442 56.2757 82.2122 56.4677 82.0282C56.6597 81.8402 56.8957 81.7482 57.1797 81.7482ZM57.1957 82.1082C57.0197 82.1082 56.8757 82.1642 56.7717 82.2842C56.6637 82.4002 56.6117 82.5482 56.6117 82.7322C56.6117 82.9162 56.6637 83.0602 56.7717 83.1682C56.8717 83.2802 57.0117 83.3362 57.1917 83.3362C57.3677 83.3362 57.5117 83.2802 57.6157 83.1682C57.7197 83.0562 57.7717 82.9042 57.7717 82.7202C57.7717 82.5322 57.7157 82.3842 57.6117 82.2762C57.5037 82.1642 57.3637 82.1082 57.1957 82.1082ZM59.6542 81.7482C59.9262 81.7482 60.1542 81.8242 60.3302 81.9842C60.5022 82.1442 60.5902 82.3482 60.5902 82.6002C60.5902 82.8482 60.4942 83.0722 60.3102 83.2762C60.1982 83.3922 60.0022 83.5442 59.7182 83.7362C59.4102 83.9402 59.2262 84.1202 59.1662 84.2762H60.5942V84.6602H58.6262C58.6262 84.3762 58.7182 84.1282 58.9102 83.9122C59.0142 83.7882 59.2302 83.6162 59.5542 83.3922C59.7462 83.2562 59.8822 83.1482 59.9622 83.0642C60.0902 82.9202 60.1582 82.7642 60.1582 82.5962C60.1582 82.4362 60.1142 82.3162 60.0262 82.2362C59.9382 82.1562 59.8062 82.1162 59.6382 82.1162C59.4582 82.1162 59.3222 82.1762 59.2302 82.3002C59.1342 82.4202 59.0862 82.5922 59.0782 82.8242H58.6422C58.6462 82.5042 58.7382 82.2482 58.9182 82.0562C59.1022 81.8482 59.3502 81.7482 59.6542 81.7482ZM62.0366 81.7482C62.3246 81.7482 62.5526 81.8162 62.7286 81.9562C62.8966 82.0962 62.9846 82.2882 62.9846 82.5322C62.9846 82.8442 62.8246 83.0562 62.5126 83.1602C62.6806 83.2122 62.8086 83.2922 62.8966 83.3962C62.9926 83.5042 63.0406 83.6442 63.0406 83.8122C63.0406 84.0762 62.9486 84.2922 62.7686 84.4602C62.5766 84.6282 62.3246 84.7162 62.0206 84.7162C61.7286 84.7162 61.4926 84.6402 61.3166 84.4922C61.1166 84.3242 61.0046 84.0802 60.9806 83.7602H61.4206C61.4286 83.9522 61.4886 84.1002 61.6086 84.2042C61.7126 84.3002 61.8486 84.3482 62.0166 84.3482C62.2006 84.3482 62.3486 84.2922 62.4606 84.1882C62.5566 84.0922 62.6086 83.9762 62.6086 83.8322C62.6086 83.6642 62.5566 83.5402 62.4526 83.4602C62.3566 83.3802 62.2126 83.3402 62.0246 83.3402H61.8166V83.0122H62.0206C62.1966 83.0122 62.3286 82.9722 62.4166 82.8962C62.5046 82.8202 62.5526 82.7082 62.5526 82.5642C62.5526 82.4202 62.5086 82.3122 62.4286 82.2362C62.3406 82.1562 62.2086 82.1202 62.0406 82.1202C61.8686 82.1202 61.7326 82.1642 61.6366 82.2522C61.5406 82.3402 61.4806 82.4722 61.4646 82.6482H61.0366C61.0606 82.3642 61.1646 82.1442 61.3526 81.9842C61.5286 81.8242 61.7566 81.7482 62.0366 81.7482ZM64.135 81.8042H64.463V84.6602H64.027V82.3282C63.855 82.4922 63.635 82.6122 63.371 82.6882V82.2562C63.499 82.2242 63.631 82.1682 63.775 82.0882C63.919 82.0002 64.039 81.9082 64.135 81.8042ZM66.0678 81.7482C66.3558 81.7482 66.5838 81.8162 66.7598 81.9562C66.9278 82.0962 67.0158 82.2882 67.0158 82.5322C67.0158 82.8442 66.8558 83.0562 66.5438 83.1602C66.7118 83.2122 66.8398 83.2922 66.9278 83.3962C67.0238 83.5042 67.0718 83.6442 67.0718 83.8122C67.0718 84.0762 66.9798 84.2922 66.7998 84.4602C66.6078 84.6282 66.3558 84.7162 66.0518 84.7162C65.7598 84.7162 65.5238 84.6402 65.3478 84.4922C65.1478 84.3242 65.0358 84.0802 65.0118 83.7602H65.4518C65.4598 83.9522 65.5198 84.1002 65.6398 84.2042C65.7438 84.3002 65.8798 84.3482 66.0478 84.3482C66.2318 84.3482 66.3798 84.2922 66.4918 84.1882C66.5878 84.0922 66.6398 83.9762 66.6398 83.8322C66.6398 83.6642 66.5878 83.5402 66.4838 83.4602C66.3878 83.3802 66.2438 83.3402 66.0558 83.3402H65.8478V83.0122H66.0518C66.2278 83.0122 66.3598 82.9722 66.4478 82.8962C66.5358 82.8202 66.5838 82.7082 66.5838 82.5642C66.5838 82.4202 66.5398 82.3122 66.4598 82.2362C66.3718 82.1562 66.2398 82.1202 66.0718 82.1202C65.8998 82.1202 65.7638 82.1642 65.6678 82.2522C65.5718 82.3402 65.5118 82.4722 65.4958 82.6482H65.0678C65.0918 82.3642 65.1958 82.1442 65.3838 81.9842C65.5598 81.8242 65.7878 81.7482 66.0678 81.7482ZM68.4823 81.7482C68.7543 81.7482 68.9823 81.8242 69.1583 81.9842C69.3303 82.1442 69.4183 82.3482 69.4183 82.6002C69.4183 82.8482 69.3223 83.0722 69.1383 83.2762C69.0263 83.3922 68.8303 83.5442 68.5463 83.7362C68.2383 83.9402 68.0543 84.1202 67.9943 84.2762H69.4223V84.6602H67.4543C67.4543 84.3762 67.5463 84.1282 67.7383 83.9122C67.8423 83.7882 68.0583 83.6162 68.3823 83.3922C68.5743 83.2562 68.7103 83.1482 68.7903 83.0642C68.9183 82.9202 68.9863 82.7642 68.9863 82.5962C68.9863 82.4362 68.9423 82.3162 68.8543 82.2362C68.7663 82.1562 68.6343 82.1162 68.4663 82.1162C68.2863 82.1162 68.1503 82.1762 68.0583 82.3002C67.9623 82.4202 67.9143 82.5922 67.9063 82.8242H67.4703C67.4743 82.5042 67.5663 82.2482 67.7463 82.0562C67.9303 81.8482 68.1783 81.7482 68.4823 81.7482ZM70.5647 81.8042H70.8927V84.6602H70.4567V82.3282C70.2847 82.4922 70.0647 82.6122 69.8007 82.6882V82.2562C69.9287 82.2242 70.0607 82.1682 70.2047 82.0882C70.3487 82.0002 70.4687 81.9082 70.5647 81.8042ZM72.4975 81.7482C72.7855 81.7482 73.0135 81.8162 73.1895 81.9562C73.3575 82.0962 73.4455 82.2882 73.4455 82.5322C73.4455 82.8442 73.2855 83.0562 72.9735 83.1602C73.1415 83.2122 73.2695 83.2922 73.3575 83.3962C73.4535 83.5042 73.5015 83.6442 73.5015 83.8122C73.5015 84.0762 73.4095 84.2922 73.2295 84.4602C73.0375 84.6282 72.7855 84.7162 72.4815 84.7162C72.1895 84.7162 71.9535 84.6402 71.7775 84.4922C71.5775 84.3242 71.4655 84.0802 71.4415 83.7602H71.8815C71.8895 83.9522 71.9495 84.1002 72.0695 84.2042C72.1735 84.3002 72.3095 84.3482 72.4775 84.3482C72.6615 84.3482 72.8095 84.2922 72.9215 84.1882C73.0175 84.0922 73.0695 83.9762 73.0695 83.8322C73.0695 83.6642 73.0175 83.5402 72.9135 83.4602C72.8175 83.3802 72.6735 83.3402 72.4855 83.3402H72.2775V83.0122H72.4815C72.6575 83.0122 72.7895 82.9722 72.8775 82.8962C72.9655 82.8202 73.0135 82.7082 73.0135 82.5642C73.0135 82.4202 72.9695 82.3122 72.8895 82.2362C72.8015 82.1562 72.6695 82.1202 72.5015 82.1202C72.3295 82.1202 72.1935 82.1642 72.0975 82.2522C72.0015 82.3402 71.9415 82.4722 71.9255 82.6482H71.4975C71.5215 82.3642 71.6255 82.1442 71.8135 81.9842C71.9895 81.8242 72.2175 81.7482 72.4975 81.7482ZM74.596 81.8042H74.924V84.6602H74.488V82.3282C74.316 82.4922 74.096 82.6122 73.832 82.6882V82.2562C73.96 82.2242 74.092 82.1682 74.236 82.0882C74.38 82.0002 74.5 81.9082 74.596 81.8042ZM76.5448 81.7482C76.8168 81.7482 77.0448 81.8242 77.2208 81.9842C77.3928 82.1442 77.4808 82.3482 77.4808 82.6002C77.4808 82.8482 77.3848 83.0722 77.2008 83.2762C77.0888 83.3922 76.8928 83.5442 76.6088 83.7362C76.3008 83.9402 76.1168 84.1202 76.0568 84.2762H77.4848V84.6602H75.5168C75.5168 84.3762 75.6088 84.1282 75.8008 83.9122C75.9048 83.7882 76.1208 83.6162 76.4448 83.3922C76.6368 83.2562 76.7728 83.1482 76.8528 83.0642C76.9808 82.9202 77.0488 82.7642 77.0488 82.5962C77.0488 82.4362 77.0048 82.3162 76.9168 82.2362C76.8288 82.1562 76.6968 82.1162 76.5288 82.1162C76.3488 82.1162 76.2128 82.1762 76.1208 82.3002C76.0248 82.4202 75.9768 82.5922 75.9688 82.8242H75.5328C75.5368 82.5042 75.6288 82.2482 75.8088 82.0562C75.9928 81.8482 76.2408 81.7482 76.5448 81.7482ZM78.9272 81.7482C79.2152 81.7482 79.4432 81.8162 79.6192 81.9562C79.7872 82.0962 79.8752 82.2882 79.8752 82.5322C79.8752 82.8442 79.7152 83.0562 79.4032 83.1602C79.5712 83.2122 79.6992 83.2922 79.7872 83.3962C79.8832 83.5042 79.9312 83.6442 79.9312 83.8122C79.9312 84.0762 79.8392 84.2922 79.6592 84.4602C79.4672 84.6282 79.2152 84.7162 78.9112 84.7162C78.6192 84.7162 78.3832 84.6402 78.2072 84.4922C78.0072 84.3242 77.8952 84.0802 77.8712 83.7602H78.3112C78.3192 83.9522 78.3792 84.1002 78.4992 84.2042C78.6032 84.3002 78.7392 84.3482 78.9072 84.3482C79.0912 84.3482 79.2392 84.2922 79.3512 84.1882C79.4472 84.0922 79.4992 83.9762 79.4992 83.8322C79.4992 83.6642 79.4472 83.5402 79.3432 83.4602C79.2472 83.3802 79.1032 83.3402 78.9152 83.3402H78.7072V83.0122H78.9112C79.0872 83.0122 79.2192 82.9722 79.3072 82.8962C79.3952 82.8202 79.4432 82.7082 79.4432 82.5642C79.4432 82.4202 79.3992 82.3122 79.3192 82.2362C79.2312 82.1562 79.0992 82.1202 78.9312 82.1202C78.7592 82.1202 78.6232 82.1642 78.5272 82.2522C78.4312 82.3402 78.3712 82.4722 78.3552 82.6482H77.9272C77.9512 82.3642 78.0552 82.1442 78.2432 81.9842C78.4192 81.8242 78.6472 81.7482 78.9272 81.7482ZM81.3257 81.7482C81.6137 81.7482 81.8417 81.8162 82.0177 81.9562C82.1857 82.0962 82.2737 82.2882 82.2737 82.5322C82.2737 82.8442 82.1137 83.0562 81.8017 83.1602C81.9697 83.2122 82.0977 83.2922 82.1857 83.3962C82.2817 83.5042 82.3297 83.6442 82.3297 83.8122C82.3297 84.0762 82.2377 84.2922 82.0577 84.4602C81.8657 84.6282 81.6137 84.7162 81.3097 84.7162C81.0177 84.7162 80.7817 84.6402 80.6057 84.4922C80.4057 84.3242 80.2937 84.0802 80.2697 83.7602H80.7097C80.7177 83.9522 80.7777 84.1002 80.8977 84.2042C81.0017 84.3002 81.1377 84.3482 81.3057 84.3482C81.4897 84.3482 81.6377 84.2922 81.7497 84.1882C81.8457 84.0922 81.8977 83.9762 81.8977 83.8322C81.8977 83.6642 81.8457 83.5402 81.7417 83.4602C81.6457 83.3802 81.5017 83.3402 81.3137 83.3402H81.1057V83.0122H81.3097C81.4857 83.0122 81.6177 82.9722 81.7057 82.8962C81.7937 82.8202 81.8417 82.7082 81.8417 82.5642C81.8417 82.4202 81.7977 82.3122 81.7177 82.2362C81.6297 82.1562 81.4977 82.1202 81.3297 82.1202C81.1577 82.1202 81.0217 82.1642 80.9257 82.2522C80.8297 82.3402 80.7697 82.4722 80.7537 82.6482H80.3257C80.3497 82.3642 80.4537 82.1442 80.6417 81.9842C80.8177 81.8242 81.0457 81.7482 81.3257 81.7482ZM83.4241 81.8042H83.7521V84.6602H83.3161V82.3282C83.1441 82.4922 82.9241 82.6122 82.6601 82.6882V82.2562C82.7881 82.2242 82.9201 82.1682 83.0641 82.0882C83.2081 82.0002 83.3281 81.9082 83.4241 81.8042Z" fill="#222222"/>
</svg>